<?xml version="1.0" encoding="utf-8"?>
<!-- Generator: Adobe Illustrator 23.0.5, SVG Export Plug-In . SVG Version: 6.00 Build 0)  -->
<svg version="1.1" id="Слой_1" xmlns="http://www.w3.org/2000/svg" xmlns:xlink="http://www.w3.org/1999/xlink" x="0px" y="0px"
	 viewBox="0 0 301 73" style="enable-background:new 0 0 301 73;" xml:space="preserve">
<style type="text/css">
	.st0{fill-rule:evenodd;clip-rule:evenodd;fill:#384B9C;}
	.st1{fill:#384B9C;}
</style>
<g>
	<path class="st0" d="M237.8,33.4c-1.2,1.3-2.6,2.3-4.1,3c-1.6,0.7-3.2,1.1-5,1.1c-3.4,0-6.5-1.4-8.7-3.6c-2.2-2.2-3.6-5.3-3.6-8.7
		c0-3.4,1.4-6.5,3.6-8.7c2.2-2.2,5.3-3.6,8.7-3.6c1.6,0,3.3,0.3,4.8,1c1.5,0.6,2.9,1.6,4,2.7l-3.2,3.1c-0.7-0.8-1.6-1.3-2.5-1.7
		c-0.9-0.4-2-0.6-3-0.6c-2.1,0-4.1,0.9-5.5,2.3c-1.4,1.4-2.3,3.3-2.3,5.5c0,2.1,0.9,4.1,2.3,5.5c1.4,1.4,3.3,2.3,5.5,2.3
		c1.1,0,2.2-0.2,3.1-0.7c1-0.4,1.9-1.1,2.6-1.9L237.8,33.4L237.8,33.4z"/>
	<path class="st1" d="M289.6,26.9h2.7c2.6,0,3.7,1.4,3.7,2.9c0,0.9-0.5,2.9-3.7,2.9h-2.7V26.9L289.6,26.9z M289.6,17.7h2.2
		c2.3,0,3.2,1.4,3.2,2.6s-1,2.7-3.1,2.7h-2.3V17.7L289.6,17.7z M284.7,37.1h7.8c6,0,8.5-3.1,8.5-6.6c0-3.2-1.8-5.1-4.2-5.8
		c2-1,3-2.9,3-5c0-2.9-1.5-6.6-9.1-6.6c-0.9,0-4.5,0.1-6.1,0.1V37.1L284.7,37.1z"/>
	<path class="st1" d="M194.3,17.6h1.6c3.2,0,3.9,2,3.9,3.3c0,1.4-0.9,3.3-4.2,3.3c-0.5,0-0.9,0-1.3-0.1V17.6L194.3,17.6z
		 M189.4,37.1h4.9v-8.5c0.5,0,0.9,0.1,1.4,0.1c6.1,0,9-3.7,9-7.8c0-3.1-1.6-7.8-9.7-7.8c-1.7,0-4.5,0.1-5.7,0.2V37.1L189.4,37.1z"/>
	<path class="st1" d="M127.2,26.9h2.7c2.6,0,3.7,1.4,3.7,2.9c0,0.9-0.5,2.9-3.7,2.9h-2.7V26.9L127.2,26.9z M127.2,17.7h2.2
		c2.3,0,3.2,1.4,3.2,2.6s-1,2.7-3.1,2.7h-2.3V17.7L127.2,17.7z M122.3,37.1h7.8c6,0,8.5-3.1,8.5-6.6c0-3.2-1.8-5.1-4.2-5.8
		c2-1,3-2.9,3-5c0-2.9-1.5-6.6-9.1-6.6c-0.9,0-4.5,0.1-6.1,0.1V37.1L122.3,37.1z"/>
	<path class="st1" d="M101,31.9h-8.2l-2.4,5.2h-6.1c4.2-8.5,8.4-16.9,12.6-25.4c4.2,8.5,8.4,16.9,12.6,25.4h-6.2L101,31.9L101,31.9z
		 M97,22l-2.6,5.5h5.1L97,22L97,22z"/>
	<path class="st0" d="M174.1,31.3c-1.1,1.9-2.7,3.4-4.5,4.5c-1.8,1.1-3.9,1.6-6.1,1.6c-3.4,0-6.5-1.4-8.7-3.6
		c-2.2-2.2-3.6-5.3-3.6-8.7c0-3.4,1.4-6.5,3.6-8.7c2.2-2.2,5.3-3.6,8.7-3.6c2.4,0,4.6,0.7,6.6,1.9c1.8,1.2,3.4,2.8,4.4,4.8
		c-0.8,0.5-1.7,1.1-2.2,1.4l-14.6,9.2c0.1,0.1,0.2,0.3,0.4,0.4c1.4,1.4,3.3,2.3,5.5,2.3c1.4,0,2.7-0.4,3.9-1
		c1.2-0.7,2.1-1.6,2.8-2.8L174.1,31.3L174.1,31.3z M168.1,18.9c-0.1-0.1-0.3-0.2-0.5-0.3c-1.2-0.8-2.7-1.2-4.2-1.2
		c-2.1,0-4.1,0.9-5.5,2.3c-1.4,1.4-2.3,3.3-2.3,5.5c0,0.5,0,1,0.1,1.5L168.1,18.9L168.1,18.9z"/>
	<path class="st0" d="M254,30.4c0.7,0.8,1.6,1.4,2.6,1.9c1,0.4,2.1,0.7,3.2,0.7c2.1,0,4.1-0.9,5.5-2.3c1-1,1.7-2.1,2-3.5H258v-4h9.3
		c-0.4-1.3-1.1-2.5-2-3.5c-1.4-1.4-3.3-2.3-5.5-2.3c-1.1,0-2.1,0.2-3,0.6c-0.9,0.4-1.8,1-2.5,1.7l-3.2-3.1c1.2-1.2,2.5-2.1,4-2.7
		c1.5-0.6,3.1-1,4.8-1c3.4,0,6.5,1.4,8.7,3.6c2.2,2.2,3.6,5.3,3.6,8.7c0,3.4-1.4,6.5-3.6,8.7c-2.2,2.2-5.3,3.6-8.7,3.6
		c-1.7,0-3.4-0.4-5-1.1c-1.6-0.7-3-1.7-4.1-3L254,30.4L254,30.4z"/>
	<polygon class="st0" points="68.2,6 69.5,6 69.5,66.8 68.2,66.8 68.2,6 	"/>
	<path class="st1" d="M86.5,58.8h-1.8v-8.9h1.7v6.5l4.3-6.5h1.8v8.9h-1.7v-6.5L86.5,58.8L86.5,58.8z M105.5,53.5h1.9
		c0.3,0,0.5,0,0.7,0c0.2,0,0.4-0.1,0.5-0.2c0.1-0.1,0.3-0.2,0.3-0.3c0.1-0.1,0.1-0.3,0.1-0.5c0-0.2,0-0.5-0.1-0.6
		c-0.1-0.2-0.2-0.3-0.4-0.4c-0.2-0.1-0.4-0.2-0.6-0.2c-0.2,0-0.5-0.1-0.7-0.1c-0.5,0-0.9,0.1-1.2,0.3c-0.3,0.2-0.5,0.4-0.8,0.7
		l-1.4-0.9c0.3-0.5,0.8-0.9,1.3-1.2c0.6-0.3,1.2-0.4,2-0.4c0.6,0,1.2,0.1,1.6,0.2c0.5,0.1,0.8,0.3,1.1,0.6c0.3,0.2,0.5,0.5,0.7,0.9
		c0.1,0.3,0.2,0.7,0.2,1.1c0,0.5-0.1,0.9-0.4,1.2c-0.2,0.3-0.5,0.6-0.9,0.7c0.2,0.1,0.4,0.2,0.5,0.3c0.2,0.1,0.3,0.3,0.4,0.5
		c0.1,0.2,0.2,0.4,0.3,0.6c0.1,0.2,0.1,0.5,0.1,0.7c0,0.9-0.3,1.6-1,2c-0.6,0.5-1.6,0.7-2.9,0.7c-0.4,0-0.8,0-1.2-0.1
		c-0.3-0.1-0.6-0.2-0.9-0.3c-0.3-0.1-0.5-0.3-0.7-0.5c-0.2-0.2-0.4-0.4-0.5-0.7l1.4-0.9c0.1,0.2,0.3,0.3,0.4,0.5
		c0.1,0.1,0.3,0.2,0.4,0.3c0.2,0.1,0.3,0.1,0.5,0.2c0.2,0,0.4,0.1,0.6,0.1c0.3,0,0.6,0,0.8-0.1c0.2-0.1,0.5-0.1,0.6-0.2
		c0.2-0.1,0.3-0.2,0.4-0.4c0.1-0.2,0.2-0.3,0.2-0.6c0-0.4-0.1-0.8-0.4-1c-0.3-0.2-0.7-0.3-1.3-0.3h-2V53.5L105.5,53.5z M121.8,61.1
		v-3.6h0.9c0.2-0.3,0.3-0.7,0.5-1.2c0.2-0.5,0.4-1,0.5-1.6c0.2-0.6,0.3-1.3,0.4-2.1c0.1-0.8,0.2-1.7,0.2-2.6h5.6v7.5h1.3v3.6h-1.7
		v-2.2h-5.9v2.2H121.8L121.8,61.1z M128.1,51.3H126c0,0.7-0.1,1.4-0.2,2c-0.1,0.6-0.2,1.2-0.4,1.7c-0.1,0.5-0.3,1-0.5,1.4
		c-0.2,0.4-0.3,0.7-0.5,1h3.6V51.3L128.1,51.3z M147.7,58.8v-1c-0.4,0.4-0.9,0.7-1.3,0.9c-0.5,0.2-1,0.4-1.5,0.4
		c-0.5,0-0.9-0.1-1.2-0.2c-0.4-0.1-0.6-0.3-0.9-0.6c-0.2-0.2-0.4-0.5-0.5-0.9c-0.1-0.3-0.2-0.7-0.2-1.1c0-0.5,0.1-1,0.3-1.4
		c0.2-0.4,0.4-0.7,0.7-0.9c0.3-0.2,0.7-0.4,1.1-0.5c0.4-0.1,0.9-0.2,1.4-0.3l2-0.2v-0.4c0-0.3,0-0.5-0.1-0.7
		c-0.1-0.2-0.2-0.4-0.4-0.5c-0.2-0.1-0.4-0.2-0.6-0.3c-0.2,0-0.5-0.1-0.8-0.1c-0.3,0-0.6,0-0.8,0.1c-0.2,0.1-0.4,0.1-0.6,0.2
		c-0.2,0.1-0.3,0.2-0.4,0.3c-0.1,0.1-0.2,0.2-0.3,0.3l-1.4-0.9c0.1-0.2,0.3-0.4,0.4-0.6c0.2-0.2,0.4-0.3,0.7-0.5
		c0.3-0.1,0.6-0.3,1-0.4c0.4-0.1,0.8-0.1,1.3-0.1c0.6,0,1.2,0,1.6,0.2c0.5,0.1,0.9,0.3,1.2,0.5c0.3,0.2,0.6,0.6,0.7,1
		c0.2,0.4,0.2,0.9,0.2,1.5v6.1H147.7L147.7,58.8z M147.6,54.5l-1.3,0.1c-0.4,0-0.7,0.1-1,0.2c-0.3,0.1-0.6,0.2-0.8,0.3
		c-0.2,0.1-0.4,0.3-0.5,0.5c-0.1,0.2-0.2,0.4-0.2,0.7c0,0.5,0.1,0.8,0.4,1c0.3,0.2,0.6,0.3,1.1,0.3c0.2,0,0.4,0,0.5-0.1
		c0.2-0.1,0.4-0.1,0.6-0.2c0.2-0.1,0.4-0.2,0.6-0.4c0.2-0.1,0.4-0.3,0.6-0.4V54.5L147.6,54.5z M168.1,51.3h-3v7.6h-1.8v-7.6h-2.9
		v-1.4h7.7V51.3L168.1,51.3z M180.5,54.7c0,0.4,0.1,0.8,0.1,1.2c0.1,0.3,0.2,0.6,0.4,0.9c0.2,0.2,0.4,0.4,0.7,0.5
		c0.3,0.1,0.7,0.2,1.1,0.2c0.4,0,0.8-0.1,1.1-0.2c0.3-0.1,0.6-0.4,0.9-0.7l1.4,1c-0.2,0.3-0.4,0.5-0.6,0.7c-0.2,0.2-0.5,0.4-0.7,0.5
		c-0.3,0.1-0.6,0.2-0.9,0.3c-0.4,0.1-0.8,0.1-1.2,0.1c-1.4,0-2.5-0.4-3.2-1.2c-0.7-0.8-1-1.9-1-3.5c0-0.7,0.1-1.4,0.2-2
		c0.1-0.6,0.4-1.1,0.7-1.5c0.3-0.4,0.7-0.7,1.3-1c0.5-0.2,1.1-0.3,1.9-0.3c0.7,0,1.2,0.1,1.7,0.3c0.5,0.2,0.8,0.5,1.1,0.8
		c0.3,0.4,0.5,0.8,0.6,1.3c0.1,0.5,0.2,1.1,0.2,1.7v1H180.5L180.5,54.7z M184.6,53.4c0-0.7-0.2-1.3-0.5-1.7
		c-0.3-0.4-0.8-0.6-1.5-0.6c-0.3,0-0.6,0.1-0.9,0.1c-0.2,0.1-0.4,0.2-0.6,0.4c-0.2,0.2-0.3,0.4-0.4,0.7c-0.1,0.3-0.2,0.6-0.2,1
		H184.6L184.6,53.4z M201.4,51.3v0.6c0,1.2-0.1,2.2-0.2,3.1c-0.1,0.9-0.3,1.6-0.6,2.2c-0.3,0.6-0.6,1-1,1.3
		c-0.4,0.3-0.9,0.4-1.4,0.4c-0.1,0-0.2,0-0.3,0c-0.1,0-0.2,0-0.3,0c-0.1,0-0.2,0-0.3-0.1c-0.1,0-0.2,0-0.2-0.1l0.3-1.4
		c0.1,0,0.2,0,0.3,0c0.1,0,0.2,0,0.2,0c0.3,0,0.5-0.1,0.7-0.3c0.2-0.2,0.4-0.6,0.5-1c0.1-0.5,0.3-1.1,0.3-1.8
		c0.1-0.8,0.1-1.7,0.1-2.7v-1.6h5.9v8.9h-1.8v-7.5H201.4L201.4,51.3z M219.7,53.2h1.5c1.3,0,2.3,0.2,2.9,0.7
		c0.6,0.5,0.9,1.2,0.9,2.2c0,0.5-0.1,0.9-0.2,1.2c-0.2,0.3-0.4,0.6-0.7,0.9c-0.3,0.2-0.7,0.4-1.2,0.5c-0.5,0.1-1.1,0.2-1.8,0.2h-3.2
		v-8.9h1.8V53.2L219.7,53.2z M223.1,56c0-0.3,0-0.5-0.1-0.7c-0.1-0.2-0.2-0.3-0.4-0.5c-0.2-0.1-0.4-0.2-0.7-0.2
		c-0.3,0-0.6-0.1-1-0.1h-1.2v2.9h1.4c0.8,0,1.3-0.1,1.6-0.3C223,56.9,223.1,56.5,223.1,56L223.1,56z M243.7,57.5
		c-0.2,0.2-0.3,0.5-0.5,0.7c-0.2,0.2-0.4,0.4-0.7,0.5c-0.3,0.1-0.6,0.2-0.9,0.3c-0.3,0.1-0.7,0.1-1.2,0.1c-0.7,0-1.4-0.1-1.9-0.3
		c-0.5-0.2-1-0.5-1.3-1c-0.3-0.4-0.6-0.9-0.7-1.5c-0.2-0.6-0.2-1.2-0.2-1.9c0-0.7,0.1-1.4,0.2-2c0.2-0.6,0.4-1.1,0.7-1.5
		c0.3-0.4,0.8-0.7,1.3-1c0.5-0.2,1.1-0.3,1.8-0.3c0.8,0,1.4,0.1,2,0.4c0.6,0.3,1,0.7,1.3,1.2l-1.4,1c-0.2-0.3-0.4-0.5-0.7-0.7
		c-0.3-0.2-0.7-0.2-1.1-0.2c-0.8,0-1.3,0.3-1.7,0.8c-0.4,0.5-0.5,1.3-0.5,2.4c0,0.5,0,0.9,0.1,1.3c0.1,0.4,0.2,0.7,0.4,1
		c0.2,0.3,0.4,0.5,0.7,0.6c0.3,0.1,0.7,0.2,1.1,0.2c0.2,0,0.4,0,0.6,0c0.2,0,0.3-0.1,0.5-0.2c0.2-0.1,0.3-0.2,0.4-0.3
		c0.1-0.1,0.3-0.3,0.4-0.4L243.7,57.5L243.7,57.5z M261.8,51.3h-3v7.6h-1.8v-7.6h-2.9v-1.4h7.7V51.3L261.8,51.3z M280.5,56.1
		c0,0.9-0.3,1.6-1,2c-0.7,0.4-1.6,0.7-2.9,0.7H273v-8.9h3.4c0.7,0,1.2,0,1.7,0.1c0.5,0.1,0.8,0.2,1.1,0.4c0.3,0.2,0.5,0.4,0.6,0.7
		c0.1,0.3,0.2,0.6,0.2,1c0,0.5-0.1,0.9-0.4,1.3c-0.3,0.3-0.6,0.6-1,0.8c0.3,0.1,0.5,0.1,0.8,0.3c0.2,0.1,0.4,0.2,0.6,0.4
		c0.2,0.2,0.3,0.4,0.4,0.6C280.4,55.5,280.5,55.8,280.5,56.1L280.5,56.1z M278.2,52.3c0-0.2,0-0.4-0.1-0.5c-0.1-0.1-0.2-0.2-0.4-0.3
		c-0.2-0.1-0.4-0.1-0.6-0.2c-0.2,0-0.5,0-0.8,0h-1.4v2.3h1.4c0.7,0,1.2-0.1,1.5-0.3C278,53,278.2,52.7,278.2,52.3L278.2,52.3z
		 M278.6,56.1c0-0.2,0-0.4-0.1-0.6c-0.1-0.2-0.2-0.3-0.4-0.4c-0.2-0.1-0.4-0.2-0.7-0.2c-0.3,0-0.6-0.1-0.9-0.1h-1.7v2.6h1.3
		c0.4,0,0.8,0,1.1-0.1c0.3,0,0.6-0.1,0.8-0.2c0.2-0.1,0.4-0.2,0.5-0.4C278.6,56.6,278.6,56.4,278.6,56.1L278.6,56.1z M300.2,54.4
		c0,0.7-0.1,1.4-0.2,2c-0.2,0.6-0.4,1.1-0.7,1.5c-0.3,0.4-0.8,0.7-1.3,0.9c-0.5,0.2-1.1,0.3-1.9,0.3c-0.7,0-1.4-0.1-1.9-0.3
		c-0.5-0.2-0.9-0.5-1.3-0.9c-0.3-0.4-0.6-0.9-0.7-1.5c-0.2-0.6-0.2-1.2-0.2-1.9c0-0.7,0.1-1.4,0.2-2c0.2-0.6,0.4-1.1,0.7-1.5
		c0.3-0.4,0.8-0.7,1.3-0.9c0.5-0.2,1.1-0.3,1.9-0.3c0.7,0,1.3,0.1,1.9,0.3c0.5,0.2,0.9,0.5,1.3,0.9c0.3,0.4,0.6,0.9,0.7,1.5
		C300.1,53,300.2,53.6,300.2,54.4L300.2,54.4z M298.3,54.4c0-1.1-0.2-1.9-0.5-2.4c-0.3-0.5-0.9-0.8-1.7-0.8c-0.8,0-1.3,0.3-1.7,0.8
		c-0.4,0.5-0.5,1.3-0.5,2.4c0,1,0.2,1.8,0.5,2.3c0.3,0.5,0.9,0.8,1.7,0.8c0.8,0,1.3-0.3,1.7-0.8C298.1,56.2,298.3,55.4,298.3,54.4
		L298.3,54.4z"/>
	<path class="st0" d="M0,12.2L43.5,0.8l11.3,43.5l-7.8,2L27.8,7.7l-19,38.2L0,12.2L0,12.2z M38,48.8l-23.4,6.1l4.7-10h16.8L38,48.8
		L38,48.8z M27.8,26.2l5,10.7h-10L27.8,26.2L27.8,26.2z"/>
	<polygon class="st0" points="51.4,51.1 50.5,62.4 15,58.2 51.4,51.1 	"/>
	<polygon class="st0" points="38.8,64.3 37,72.2 15.3,61.6 38.8,64.3 	"/>
</g>
</svg>
