<svg width="198" height="84" fill="none" xmlns="http://www.w3.org/2000/svg"><path fill-rule="evenodd" clip-rule="evenodd" d="M39.843 82.025l-38.42-38.42L0 42.182l1.424-1.424 38.42-38.42L41.267.914l1.424 1.424 38.42 38.42 1.424 1.424-1.424 1.423-38.42 38.42-1.424 1.424-1.424-1.424z" fill="#DD002D"/><path fill-rule="evenodd" clip-rule="evenodd" d="M3.85 42.182l37.417 37.416 37.417-37.416L41.267 4.765 3.851 42.182z" fill="#fff"/><path fill-rule="evenodd" clip-rule="evenodd" d="M47.255 82.025l-38.42-38.42-1.424-1.423 1.424-1.424 38.42-38.42L48.678.914l1.424 1.424 38.42 38.42 1.424 1.424-1.424 1.423-38.42 38.42-1.424 1.424-1.423-1.424z" fill="#00539F"/><path fill-rule="evenodd" clip-rule="evenodd" d="M11.262 42.182l37.417 37.416 37.417-37.416L48.679 4.765 11.262 42.182z" fill="#fff"/><path fill-rule="evenodd" clip-rule="evenodd" d="M15.396 42.181l33.282 33.282L81.96 42.181 48.678 8.9 15.396 42.181z" fill="#00539F"/><path fill-rule="evenodd" clip-rule="evenodd" d="M37.666 54.463H24.697l-3.12-22.5h16.09v-1.528H59.77v1.527h16.01l-3.12 22.5H59.77v1.416h-6.63c.07.481.112.97.118 1.465.11 8.135-5.882 10.94-12.167 13.97 2.18-5.741 5.538-10.116 4.331-15.472h-7.757v-1.378z" fill="#fff"/><path fill-rule="evenodd" clip-rule="evenodd" d="M36.878 33.605H23.463l.764 5.51h12.65v-5.51zm23.601 0h13.415l-.765 5.51H60.48v-5.51zm0 14.957h11.34l-.59 4.259h-10.75v-4.259zm0-7.228h12.343l-.695 5.01H60.48v-5.01zm-23.601 7.228h-11.34l.59 4.259h10.75v-4.259zm0-7.228H24.534l.695 5.01h11.647v-5.01zM49.48 51.17c3.829 5.689 2.84 11.914-5.617 17.384 4.529-8.145 4.731-13.372.921-17.16 4.204-2.99 4.398-8.692-.13-12.409 7.733-.234 10.285 6.742 4.826 12.184z" fill="#DD002D"/><path fill-rule="evenodd" clip-rule="evenodd" d="M39.309 32.077h18.82v22.159h-4.472v-18.44h-9.875v18.44h-4.473v-22.16z" fill="#DD002D"/><path fill-rule="evenodd" clip-rule="evenodd" d="M118.764 49.835c0 4.385-1.879 6.578-5.638 6.578H95.897v-38.55h101.279v7.282h-93.918v14.04h9.437c2.375 0 3.981.423 4.816 1.272.835.848 1.253 2.46 1.253 4.836v4.542zm-7.674-1.057v-3.642h-7.832v3.642h7.832zm32.176 2.701c0 3.29-1.854 4.934-5.56 4.934h-15.232v-7.635h13.587v-3.642h-11.002v-5.99h11.002v-3.642h-29.404V28.22h31.127c3.655 0 5.482 1.666 5.482 4.973v4.58c0 2.324-.77 3.838-2.31 4.543 1.54.783 2.31 2.284 2.31 4.503v4.659zm53.917 4.934h-7.126V40.477l-8.575 15.936h-7.165V28.22h7.165v15.936l8.575-15.936h7.126v28.192z" fill="#00539F"/><path fill-rule="evenodd" clip-rule="evenodd" d="M170.143 66.5h-7.44V35.505h-7.987v30.997h-7.44V28.22h22.867V66.5z" fill="#DD002D"/><path fill-rule="evenodd" clip-rule="evenodd" d="M96.277 59.218h58.435V66.5H96.277v-7.282z" fill="#DD002D"/><path fill-rule="evenodd" clip-rule="evenodd" d="M162.704 59.218h34.48V66.5h-34.48v-7.282z" fill="#E30016"/></svg>