<svg width="999" height="294" viewBox="0 0 999 294" fill="none" xmlns="http://www.w3.org/2000/svg">
<g clip-path="url(#clip0)">
<path d="M332.1 51.7V77L233.5 37.3V0L332.1 51.7ZM332.1 236.8V262.2L198.1 293.8V257.4L332.1 236.8ZM332.1 200V225.4L151.7 239.3V206.3L332.1 200ZM332.1 162.7V188L102.9 190.9V159.8L332.1 162.7ZM332.1 126.3V151.7L151.7 144.5V111.5L332.1 126.3ZM332.1 89V114.4L198.1 93.3V57.9L332.1 89Z" fill="#447541"/>
<path d="M0 51.7L233.5 0V37.3L0 77V51.7ZM0 236.8L198.1 257.4V293.8L0 262.2V236.8ZM0 200L151.7 206.2V239.2L0 225.4V200ZM0 162.7L102.9 159.8V190.9L0 188V162.7ZM0 126.3L151.7 111.5V144.5L0 151.7V126.3ZM0 89L198.1 57.9V93.3L0 114.4V89Z" fill="#80B951"/>
<path d="M411.8 88.8999C412.5 87.1999 413 85.3999 413.3 83.5999C413.6 81.7999 413.7 79.6999 413.7 77.0999V44.6999C413.7 42.0999 413.5 39.9999 413.3 38.1999C413 36.3999 412.5 34.6999 411.8 32.8999H421.1H430.5C429.8 34.5999 429.3 36.3999 429 38.1999C428.7 39.9999 428.6 42.0999 428.6 44.6999V79.1999H447V44.6999C447 42.0999 446.9 39.9999 446.6 38.1999C446.3 36.3999 445.8 34.6999 445.1 32.8999H454.4H463.8C463.1 34.5999 462.6 36.3999 462.3 38.1999C462 39.9999 461.8 42.0999 461.8 44.6999V79.1999H469.6C469.3 79.9999 469 81.3999 468.8 83.2999C468.6 85.1999 468.5 87.1999 468.5 89.1999V91.1999C468.5 93.1999 468.6 95.1999 468.8 97.0999C469 98.9999 469.3 100.4 469.6 101.2H452.6C452.9 100.4 453.2 98.9999 453.4 97.0999C453.6 95.1999 453.7 93.1999 453.7 91.1999V89.1999V88.8999H437.8H411.8Z" fill="#4D4D4F"/>
<path d="M494.2 89.6999C487.6 89.6999 482.4 87.9 478.6 84.3C474.8 80.7 472.9 75.8 472.9 69.5C472.9 63.5 474.6 58.7 478 54.9C481.4 51.1 485.7 49.2 491.1 49.2H491C496.1 49.2 500.1 50.8 503 54C505.9 57.2 507.3 61.7 507.3 67.4C507.3 68.9 507.2 70.4 506.9 71.8H486.4C486.9 73.8 487.6 75.5 488.7 77C490.6 79.5 493.4 80.6999 497.1 80.6999C498.8 80.6999 500.6 80.4 502.4 79.8C504.2 79.2 505.8 78.4 507.3 77.4L502.6 88.8C500.4 89.1 498.8 89.4 497.7 89.5C496.6 89.6 495.4 89.6999 494.2 89.6999ZM495.6 64.3V63C495.6 61.2 495.2 59.7 494.4 58.7C493.6 57.7 492.4 57.2 490.9 57.2C489.2 57.2 487.9 58 487.1 59.5C486.4 60.6 486 62.2 485.9 64.3H495.6Z" fill="#4D4D4F"/>
<path d="M512.7 77.1V61.8C512.7 59.1 512.6 56.9 512.3 55.1C512 53.3 511.5 51.6 510.8 50H519.4H528C527.3 51.6 526.8 53.3 526.5 55.1C526.2 56.9 526.1 59.1 526.1 61.7V64.3H534.7V61.7C534.7 59 534.6 56.8 534.3 55.1C534 53.3 533.5 51.6 532.8 50H541.4H550C549.3 51.6 548.8 53.4 548.6 55.1C548.3 56.9 548.2 59.1 548.2 61.8V77.1C548.2 79.8 548.3 82 548.6 83.8C548.9 85.6 549.4 87.3 550 88.9H541.4H532.8C533.5 87.2 534 85.5 534.3 83.8C534.6 82 534.7 79.8 534.7 77.1V73H526.1V77.1C526.1 79.8 526.2 82 526.5 83.8C526.8 85.6 527.3 87.3 528 88.9H519.4H510.8C511.5 87.3 512 85.5 512.3 83.8C512.6 82 512.7 79.8 512.7 77.1Z" fill="#4D4D4F"/>
<path d="M568.2 77.0999V57.7999C566.3 57.8999 564.6 57.9999 563.1 58.1999C559.5 58.5999 556.5 59.3999 554.1 60.3999L555.7 55.2999L557.4 50.0999H575H595.6L594.3 54.9999L593 59.8999C591.5 59.2999 589 58.6999 585.4 58.1999L581.8 57.7999V77.0999C581.8 79.5999 582 81.6999 582.3 83.4999C582.6 85.2999 583.2 87.0999 583.9 88.8999H575H566.2C567 87.0999 567.5 85.2999 567.8 83.4999C568.1 81.6999 568.2 79.5999 568.2 77.0999Z" fill="#4D4D4F"/>
<path d="M602 61.7999C602 59.0999 601.9 56.8999 601.6 55.0999C601.3 53.2999 600.8 51.6 600.1 50H607.8H615.5V55.5L620.5 49.5999C621.6 49.2999 622.7 49.2 623.9 49.2C628.5 49.2 632.3 51 635.2 54.7C638.1 58.4 639.6 63.1 639.6 68.8C639.6 74.9 637.9 79.9 634.6 83.8C631.3 87.7 627 89.5999 621.8 89.5999C619.5 89.5999 617.4 89.0999 615.5 88.1999V89.3C615.5 91.6 615.7 93.6 616 95.3C616.3 97.1 616.9 99 617.8 101H608.9H599.9C600.7 99.1 601.2 97.2999 601.5 95.5999C601.8 93.7999 602 91.7 602 89.3V61.7999V61.7999ZM618.7 80.5999C620.9 80.5999 622.6 79.5999 624 77.5999C625.4 75.5999 626 73.1 626 70C626 66.5 625.5 63.7999 624.5 62.0999C623.5 60.2999 622 59.4 620 59.4C618.3 59.4 616.8 60.1 615.5 61.5V80C616.4 80.4 617.5 80.5999 618.7 80.5999Z" fill="#4D4D4F"/>
<path d="M432.2 179.8H422.9H413.5C414.2 178.1 414.7 176.3 415 174.5C415.3 172.7 415.4 170.6 415.4 168V135.6C415.4 133 415.3 130.9 415 129.1C414.7 127.3 414.2 125.6 413.5 123.8H438.4H463.3C462.6 125.5 462.1 127.3 461.8 129.1C461.5 130.9 461.3 133 461.3 135.6V168C461.3 170.6 461.4 172.7 461.8 174.5C462.1 176.3 462.6 178 463.3 179.8H454H444.6C445.3 178.1 445.8 176.3 446.1 174.5C446.4 172.7 446.5 170.6 446.5 168V133.5H430.1V168C430.1 170.6 430.2 172.7 430.5 174.5C431 176.3 431.5 178.1 432.2 179.8Z" fill="#4D4D4F"/>
<path d="M472.6 152.8C472.6 150.1 472.5 147.9 472.2 146.1C471.9 144.3 471.4 142.6 470.7 141H478.4H486.1V146.5L491.1 140.6C492.2 140.3 493.3 140.2 494.5 140.2C499.1 140.2 502.9 142 505.8 145.7C508.7 149.4 510.1 154.1 510.1 159.8C510.1 165.9 508.5 170.9 505.1 174.8C501.8 178.7 497.5 180.6 492.3 180.6C490 180.6 487.9 180.1 486 179.2V180.3C486 182.6 486.2 184.6 486.5 186.4C486.8 188.2 487.4 190.1 488.3 192.1H479.4H470.5C471.3 190.2 471.8 188.4 472.1 186.7C472.4 184.9 472.6 182.8 472.6 180.4V152.8V152.8ZM489.3 171.6C491.4 171.6 493.2 170.6 494.6 168.6C496 166.6 496.6 164.1 496.6 161C496.6 157.5 496.1 154.8 495.1 153C494.1 151.2 492.6 150.4 490.6 150.4C488.9 150.4 487.4 151.1 486.1 152.5V171.1C487 171.4 488.1 171.6 489.3 171.6Z" fill="#4D4D4F"/>
<path d="M518.7 175.5C515 172 513.2 167.6 513.2 162.1C513.2 155.7 515.2 150.4 519.2 146.3C523.2 142.2 528.4 140.2 534.7 140.2C540.5 140.2 545.2 141.9 548.8 145.4C552.5 148.9 554.3 153.4 554.3 158.8C554.3 165.2 552.3 170.4 548.3 174.5C544.3 178.6 539.1 180.6 532.8 180.6C527.1 180.7 522.3 178.9 518.7 175.5ZM539.5 168.3C540.3 166.4 540.7 164.5 540.7 162.6C540.7 159.1 539.7 156 537.7 153.3C535.7 150.6 533 148.8 529.8 148.1C528.9 149 528.1 150.4 527.5 152.3C526.9 154.2 526.6 156.3 526.6 158.4C526.6 162 527.5 165.1 529.4 167.8C531.3 170.5 533.6 172.2 536.5 172.9C537.7 171.7 538.7 170.2 539.5 168.3Z" fill="#4D4D4F"/>
<path d="M572.8 168.1C572.8 170.8 572.9 173 573.2 174.8C573.5 176.6 574 178.3 574.6 179.9H565.7H556.8C557.5 178.3 558 176.5 558.3 174.8C558.6 173 558.7 170.8 558.7 168.1V144.8L556.6 142.5C554.9 140.7 554.4 140.2 555.2 141H563.1H571C571.2 142.1 571.5 143.1 571.9 143.9C572.3 144.7 572.9 145.4 573.7 146.2L583.2 155.5L591.7 146.2C592.6 145.2 593.2 144.4 593.6 143.6C594 142.8 594.3 142 594.4 141H601.7H609.1C608.1 143.5 607.4 146.1 606.9 149C606.5 151.8 606.3 155.4 606.3 159.9V168.2C606.3 170.9 606.5 173.1 606.7 174.9C607 176.7 607.5 178.4 608.2 180H599.6H591C591.7 178.4 592.2 176.6 592.5 174.9C592.8 173.1 592.9 170.9 592.9 168.2V159.3L582.9 170.3L572.9 159.7V168.1H572.8Z" fill="#4D4D4F"/>
<path d="M616.5 168.1V152.8C616.5 150.1 616.4 147.9 616.1 146.1C615.8 144.3 615.3 142.6 614.6 141H623.2H631.8C631.1 142.7 630.6 144.4 630.3 146.1C630 147.9 629.9 150.1 629.9 152.8V155H632C637.7 155 642 156.1 645.1 158.2C648.2 160.4 649.7 163.4 649.7 167.4C649.7 171.4 648.1 174.4 645 176.5C641.9 178.6 637.5 179.7 631.7 179.7H623.2H614.6C615.3 178.1 615.8 176.3 616.1 174.6C616.4 173 616.5 170.7 616.5 168.1ZM629.9 172C631.8 172 633.3 171.5 634.3 170.7C635.4 169.9 635.9 168.7 635.9 167.2C635.9 165.8 635.4 164.7 634.4 164C633.4 163.3 632.1 162.9 630.3 162.9H629.8V172H629.9ZM654.1 168.1V152.8C654.1 150.1 654 147.9 653.7 146.1C653.4 144.3 652.9 142.6 652.2 141H660.8H669.4C668.7 142.6 668.2 144.3 668 146.1C667.7 147.9 667.6 150.1 667.6 152.8V168.1C667.6 170.8 667.7 173 668 174.8C668.3 176.6 668.7 178.3 669.4 179.9H660.8H652.2C652.9 178.3 653.4 176.5 653.7 174.8C654 173 654.1 170.7 654.1 168.1Z" fill="#4D4D4F"/>
<path d="M673.9 179.8C674.6 178.2 675.1 176.4 675.4 174.7C675.7 172.9 675.8 170.7 675.8 168V152.7C675.8 150 675.7 147.8 675.4 146C675.1 144.2 674.6 142.5 673.9 140.9H682.4H690.9C690.3 142.4 689.9 144 689.6 145.8C689.4 147.6 689.2 149.9 689.2 152.7V172.2H700.6V152.7C700.6 149.8 700.5 147.5 700.2 145.8C700 144 699.5 142.4 698.9 141H707.3H715.7C715.1 142.4 714.7 144.1 714.4 145.8C714.1 147.6 714 149.9 714 152.7V172.2H725.4V152.7C725.4 149.8 725.3 147.5 725 145.8C724.7 144 724.3 142.4 723.7 141H732.2H740.7C740 142.6 739.5 144.3 739.2 146.1C738.9 147.9 738.8 150.1 738.8 152.8V168.1C738.8 170.8 738.9 173 739.2 174.8C739.5 176.6 740 178.3 740.7 179.9H707.3H673.9V179.8Z" fill="#4D4D4F"/>
<path d="M769.1 148.6H762.4V164.3C762.4 170 761.4 174.2 759.3 176.8C757.2 179.4 754 180.7 749.5 180.7H748.5L742.6 170.3C743.2 170.6 743.9 170.7 744.7 170.7C746.2 170.7 747.3 170.2 747.9 169.2C748.6 168.2 748.9 166.5 748.9 164.3V152.8C748.9 150.1 748.7 147.9 748.5 146.1C748.2 144.3 747.7 142.6 747 141H765.7H784.4C783.7 142.6 783.2 144.3 782.9 146.1C782.6 147.9 782.5 150.1 782.5 152.8V168.1C782.5 170.8 782.6 173 782.9 174.8C783.2 176.6 783.7 178.3 784.4 179.9H775.8H767.2C767.9 178.3 768.4 176.5 768.7 174.8C769 173 769.1 170.8 769.1 168.2V148.6V148.6Z" fill="#4D4D4F"/>
<path d="M809.6 180.7C803 180.7 797.8 178.9 794 175.3C790.2 171.7 788.3 166.8 788.3 160.5C788.3 154.5 790 149.7 793.4 145.9C796.8 142.1 801.2 140.2 806.5 140.2H806.4C811.5 140.2 815.5 141.8 818.4 145C821.3 148.2 822.7 152.7 822.7 158.4C822.7 159.9 822.5 161.4 822.3 162.8H801.8C802.3 164.8 803.1 166.6 804.1 168C806 170.5 808.8 171.7 812.5 171.7C814.2 171.7 816 171.4 817.8 170.8C819.6 170.2 821.2 169.4 822.7 168.4L818 179.8C815.8 180.1 814.2 180.4 813.1 180.5C812 180.6 810.9 180.7 809.6 180.7ZM811 155.3V154C811 152.2 810.6 150.7 809.8 149.7C809 148.7 807.8 148.2 806.3 148.2C804.6 148.2 803.3 149 802.5 150.5C801.8 151.6 801.4 153.2 801.3 155.3H811Z" fill="#4D4D4F"/>
<path d="M828.2 168.1V152.8C828.2 150.1 828.1 147.9 827.8 146.1C827.5 144.3 827 142.6 826.3 141H834.9H843.5C842.8 142.6 842.3 144.3 842 146.1C841.7 147.9 841.6 150.1 841.6 152.7V155.3H850.2V152.7C850.2 150 850.1 147.8 849.8 146.1C849.5 144.3 849 142.6 848.3 141H856.9H865.5C864.8 142.6 864.3 144.3 864 146.1C863.7 147.9 863.6 150.1 863.6 152.8V168.1C863.6 170.8 863.7 173 864 174.8C864.3 176.6 864.8 178.3 865.5 179.9H856.9H848.3C849 178.3 849.5 176.5 849.8 174.8C850.1 173 850.2 170.8 850.2 168.2V164H841.6V168.1C841.6 170.8 841.7 173 842 174.7C842.3 176.5 842.7 178.2 843.5 179.8H834.9H826.3C827 178.2 827.5 176.4 827.8 174.7C828 173 828.2 170.7 828.2 168.1Z" fill="#4D4D4F"/>
<path d="M871.4 168.1V152.8C871.4 150.1 871.3 147.9 871 146.1C870.7 144.3 870.2 142.6 869.5 141H878.1H886.7C886 142.6 885.5 144.3 885.3 146.1C885 147.9 884.9 150.1 884.9 152.7V155.3H893.5V152.7C893.5 150 893.4 147.8 893.1 146.1C892.8 144.3 892.3 142.6 891.7 141H900.3H908.9C908.2 142.6 907.7 144.3 907.4 146.1C907.1 147.9 907 150.1 907 152.8V168.1C907 170.8 907.1 173 907.4 174.8C907.7 176.6 908.2 178.3 908.9 179.9H900.3H891.7C892.4 178.3 892.9 176.5 893.1 174.8C893.4 173 893.5 170.8 893.5 168.2V164H884.9V168.1C884.9 170.8 885 173 885.3 174.7C885.6 176.5 886.1 178.2 886.7 179.8H878.1H869.5C870.2 178.2 870.7 176.4 871 174.7C871.2 173 871.4 170.7 871.4 168.1Z" fill="#4D4D4F"/>
<path d="M917.8 175.5C914.1 172 912.3 167.6 912.3 162.1C912.3 155.7 914.3 150.4 918.4 146.3C922.4 142.2 927.6 140.2 933.9 140.2C939.7 140.2 944.4 141.9 948.1 145.4C951.8 148.9 953.6 153.4 953.6 158.8C953.6 165.2 951.6 170.4 947.6 174.5C943.6 178.6 938.4 180.6 932.1 180.6C926.2 180.7 921.4 178.9 917.8 175.5ZM938.6 168.3C939.4 166.4 939.8 164.5 939.8 162.6C939.8 159.1 938.8 156 936.8 153.3C934.8 150.6 932.1 148.8 928.9 148.1C928 149 927.2 150.4 926.6 152.3C926 154.2 925.7 156.3 925.7 158.4C925.7 162 926.6 165.1 928.5 167.8C930.3 170.5 932.7 172.2 935.6 172.9C936.8 171.7 937.8 170.2 938.6 168.3Z" fill="#4D4D4F"/>
<path d="M973.1 175.2C973.4 176.8 973.9 178.3 974.5 179.8H965.9H957.3C958 178.2 958.5 176.4 958.8 174.7C959.1 172.9 959.2 170.7 959.2 168V152.7C959.2 150 959 147.8 958.8 146C958.5 144.2 958 142.5 957.3 140.9H965.9H974.5C973.8 142.5 973.3 144.2 973 146C972.7 147.8 972.6 150 972.6 152.7V162.3L983.2 145.6C982.9 144 982.4 142.5 981.8 141H990.4H999C998.3 142.6 997.8 144.3 997.5 146.1C997.2 147.9 997.1 150.1 997.1 152.8V168.1C997.1 170.8 997.2 173 997.5 174.8C997.8 176.6 998.3 178.3 999 179.9H990.4H981.8C982.5 178.3 983 176.5 983.3 174.8C983.6 173 983.7 170.8 983.7 168.1V158.5L973.1 175.2ZM978.1 136.4C974.8 136.4 971.9 135.5 969.6 133.7C967.3 131.9 965.9 129.6 965.4 126.6H971.5C972 127.4 972.9 128 974.1 128.5C975.3 129 976.6 129.3 978.1 129.3C979.5 129.3 980.8 129 982 128.5C983.2 128 984.1 127.3 984.6 126.6H990.7C990.3 129.5 988.9 131.9 986.5 133.7C984.3 135.5 981.5 136.4 978.1 136.4Z" fill="#4D4D4F"/>
<path d="M416.2 257.6C410.6 252.2 407.8 245.3 407.8 236.8C407.8 228.3 410.6 221.4 416.2 216C421.8 210.6 429 207.9 437.9 207.9C446.7 207.9 454 210.6 459.6 216C465.2 221.4 468 228.3 468 236.8C468 245.3 465.2 252.2 459.6 257.6C454 263 446.8 265.7 437.9 265.7C429 265.7 421.8 263 416.2 257.6ZM450.4 247.6C451.5 244.4 452 241 452 237.5C452 231.5 449.9 226.8 445.7 223.3C441.5 219.8 436.1 218.3 429.5 218.8C427.8 220.4 426.4 222.8 425.4 226C424.3 229.2 423.8 232.6 423.8 236.1C423.8 242.1 425.9 246.8 430.1 250.3C434.3 253.8 439.7 255.2 446.3 254.7C447.9 253.2 449.3 250.8 450.4 247.6Z" fill="#4D4D4F"/>
<path d="M473.1 264.7C473.8 263.1 474.3 261.3 474.6 259.6C474.9 257.8 475 255.6 475 252.9V237.6C475 234.9 474.9 232.7 474.6 230.9C474.3 229.1 473.8 227.4 473.1 225.8H481.7H490.3C489.6 227.5 489.1 229.1 488.8 230.9C488.5 232.7 488.4 234.9 488.4 237.5V257H498.8V237.5C498.8 234.8 498.7 232.6 498.4 230.9C498.1 229.1 497.6 227.4 497 225.8H505.6H514.2C513.5 227.5 513 229.1 512.7 230.9C512.4 232.7 512.3 234.9 512.3 237.5V257H518.8C518.5 257.8 518.3 259.1 518.1 260.8C518 261.8 517.9 262.9 517.9 263.9C517.9 265.6 517.9 267.3 518.1 269.1C518.3 270.9 518.5 272.2 518.8 273.1H503.3C503.7 272 504 270.5 504.2 268.7C504.4 267.2 504.4 265.8 504.3 264.5H493.6H473.1V264.7Z" fill="#4D4D4F"/>
<path d="M540.6 265.5C534 265.5 528.8 263.7 525 260.1C521.2 256.5 519.3 251.6 519.3 245.3C519.3 239.3 521 234.5 524.4 230.7C527.8 226.9 532.2 225 537.5 225H537.4C542.5 225 546.5 226.6 549.4 229.8C552.3 233 553.7 237.5 553.7 243.2C553.7 244.7 553.6 246.2 553.3 247.6H532.8C533.3 249.6 534 251.4 535.1 252.7C537 255.2 539.8 256.4 543.5 256.4C545.2 256.4 547 256.1 548.8 255.5C550.6 254.9 552.2 254.1 553.7 253.1L549 264.5C546.8 264.8 545.2 265.1 544.1 265.2C543 265.5 541.8 265.5 540.6 265.5ZM542 240.1V238.8C542 237 541.6 235.6 540.8 234.5C540 233.5 538.8 233 537.3 233C535.6 233 534.4 233.8 533.5 235.3C532.8 236.4 532.4 238 532.3 240.1H542Z" fill="#4D4D4F"/>
<path d="M559.1 252.9V237.6C559.1 234.9 559 232.7 558.7 230.9C558.4 229.1 557.9 227.4 557.2 225.8H565.8H574.4C573.7 227.4 573.2 229.1 572.9 230.9C572.6 232.7 572.5 234.9 572.5 237.5V240.1H581V237.5C581 234.8 580.9 232.6 580.6 230.9C580.3 229.1 579.8 227.4 579.1 225.8H587.7H596.3C595.6 227.5 595.1 229.2 594.8 230.9C594.5 232.7 594.4 234.9 594.4 237.6V252.9C594.4 255.6 594.5 257.8 594.8 259.6C595.1 261.4 595.6 263.1 596.3 264.7H587.7H579.1C579.8 263.1 580.3 261.3 580.6 259.6C580.9 257.8 581 255.6 581 252.9V248.8H572.5V252.9C572.5 255.6 572.6 257.8 572.9 259.6C573.2 261.4 573.7 263.1 574.4 264.7H565.8H557.2C557.9 263.1 558.4 261.3 558.7 259.6C559 257.8 559.1 255.6 559.1 252.9Z" fill="#4D4D4F"/>
<path d="M615.9 252.9C615.9 255.6 616 257.8 616.3 259.6C616.6 261.4 617.1 263.1 617.8 264.7H609.2H600.6C601.3 263.1 601.8 261.4 602.1 259.6C602.4 257.8 602.5 255.6 602.5 252.9V237.6C602.5 234.9 602.4 232.7 602.1 230.9C601.8 229.1 601.3 227.4 600.6 225.8H609.2H617.8C617.1 227.5 616.6 229.2 616.3 230.9C616 232.6 615.9 234.9 615.9 237.5V239.5L624.6 229.2C625.3 228.4 625.8 227.7 626.2 227.2C626.5 226.7 626.7 226.2 626.8 225.8H635.4H644C643.4 226.1 641.8 227.4 639.5 229.7C637.1 232 633.4 235.8 628.2 241.1L625.9 243.5L630.8 249.3C635.4 254.6 638.7 258.4 640.8 260.7C642.9 263 644.2 264.3 644.8 264.6H635.5H626.2C626.1 263.8 625.9 263 625.5 262.3C625.1 261.6 624.6 260.7 623.9 259.8L615.9 249.7V252.9V252.9Z" fill="#4D4D4F"/>
<path d="M662.1 260C662.4 261.6 662.9 263.1 663.5 264.7H655H646.4C647.1 263.1 647.6 261.3 647.9 259.6C648.2 257.8 648.3 255.6 648.3 252.9V237.6C648.3 234.9 648.2 232.7 647.9 230.9C647.6 229.1 647.1 227.4 646.4 225.8H655H663.6C662.9 227.5 662.4 229.2 662.1 230.9C661.8 232.7 661.7 234.9 661.7 237.6V247.2L672.3 230.5C672 228.9 671.5 227.4 670.9 225.9H679.5H688.1C687.4 227.6 686.9 229.3 686.6 231C686.3 232.8 686.2 235 686.2 237.7V253C686.2 255.7 686.3 257.9 686.6 259.7C686.9 261.5 687.4 263.2 688.1 264.8H679.5H670.9C671.6 263.2 672.1 261.4 672.4 259.7C672.7 257.9 672.8 255.7 672.8 253V243.4L662.1 260Z" fill="#4D4D4F"/>
</g>
<defs>
<clipPath id="clip0">
<rect width="999" height="293.8" fill="white"/>
</clipPath>
</defs>
</svg>
