<svg width="252" height="63" viewBox="0 0 252 63" fill="none" xmlns="http://www.w3.org/2000/svg">
<g clip-path="url(#clip0)">
<path d="M72.3744 37.1952H68.9472V34.776C67.2336 36.6408 65.2176 37.548 62.8488 37.548C60.0264 37.548 57.8088 36.6408 56.0952 34.8264C54.432 33.012 53.5752 30.5928 53.5752 27.6696C53.5752 24.6456 54.5328 22.2264 56.4984 20.3112C58.464 18.396 60.984 17.4384 64.0584 17.4384C65.9736 17.4384 67.5864 17.892 68.8968 18.7992V9.67681C68.8968 8.31601 70.0056 7.20721 71.3664 7.20721H72.324V37.1952H72.3744ZM63.504 34.3224C65.6208 34.3224 67.4352 33.4656 68.9472 31.752V22.176C67.3344 21.168 65.772 20.664 64.2096 20.664C62.244 20.664 60.5808 21.3192 59.22 22.5792C57.9096 23.8392 57.204 25.5024 57.204 27.5688C57.204 29.6352 57.7584 31.248 58.9176 32.4576C60.1272 33.7176 61.6392 34.3224 63.504 34.3224ZM78.7752 34.8264C76.9104 32.8608 75.9528 30.4416 75.9528 27.5688C75.9528 24.6456 76.9104 22.2264 78.7752 20.3616C80.6904 18.4464 83.16 17.4888 86.184 17.4888C89.208 17.4888 91.6776 18.4464 93.5424 20.3616C95.4576 22.2264 96.4152 24.6456 96.4152 27.5688C96.4152 30.492 95.4576 32.9112 93.5424 34.8264C91.6776 36.6912 89.208 37.6488 86.184 37.6488C83.16 37.6488 80.6904 36.6912 78.7752 34.8264ZM79.5816 27.5688C79.5816 29.5848 80.1864 31.248 81.396 32.508C82.656 33.8184 84.2184 34.4232 86.184 34.4232C88.0992 34.4232 89.712 33.768 90.9216 32.508C92.1816 31.248 92.7864 29.5848 92.7864 27.5688C92.7864 25.6032 92.1816 23.94 90.9216 22.6296C89.712 21.3192 88.0992 20.7144 86.184 20.7144C84.2688 20.7144 82.656 21.3696 81.4464 22.6296C80.1864 23.8896 79.5816 25.5528 79.5816 27.5688ZM109.267 32.004C109.267 31.2984 108.914 30.744 108.209 30.2904C107.503 29.8368 106.646 29.4336 105.638 29.1312C104.63 28.8288 103.622 28.476 102.614 28.0728C101.606 27.6696 100.75 27.0144 99.9936 26.1576C99.288 25.3008 98.9352 24.192 98.9352 22.932C98.9352 21.3192 99.54 20.0088 100.75 19.0008C101.959 17.9928 103.522 17.4888 105.487 17.4888C108.31 17.4888 110.477 18.2448 112.09 19.7568L110.477 22.3776C109.066 21.1176 107.453 20.5128 105.638 20.5128C104.731 20.5128 103.975 20.7648 103.421 21.2184C102.866 21.672 102.564 22.2264 102.564 22.932C102.564 23.688 102.917 24.2928 103.622 24.7464C104.328 25.2 105.185 25.6032 106.193 25.9056C107.201 26.208 108.209 26.5608 109.217 26.9136C110.225 27.3168 111.082 27.9216 111.838 28.728C112.543 29.5344 112.896 30.5928 112.896 31.8024C112.896 33.7176 112.19 35.1792 110.779 36.1872C109.368 37.1448 107.604 37.6488 105.487 37.6488C103.975 37.6488 102.564 37.3464 101.203 36.6912C99.792 36.036 98.8848 35.3304 98.4312 34.6248L100.346 32.1552C100.901 32.8104 101.758 33.3648 102.816 33.8688C103.975 34.3728 104.983 34.5744 105.89 34.5744C106.898 34.5744 107.705 34.3224 108.36 33.8688C108.965 33.4656 109.267 32.8104 109.267 32.004ZM115.97 29.8872V15.0192C115.97 13.6584 117.079 12.5496 118.44 12.5496H119.398V17.892H126.454V18.648C126.454 20.0088 125.345 21.1176 123.984 21.1176H119.448V29.5344C119.448 32.76 120.607 34.3224 122.875 34.3224C123.984 34.3224 124.992 33.9696 125.899 33.264L126.958 35.9352C125.647 37.044 123.984 37.548 122.069 37.548C120.002 37.548 118.49 36.9432 117.533 35.6832C116.424 34.4232 115.97 32.4576 115.97 29.8872ZM130.536 20.412L130.133 19.2024C132.048 18.0432 134.165 17.4384 136.534 17.4384C139.104 17.4384 140.969 18.0936 142.178 19.3536C143.338 20.664 143.942 22.6296 143.942 25.3008V37.1448H143.136C141.775 37.1448 140.666 36.036 140.666 34.6752C139.154 36.54 137.138 37.4472 134.518 37.4472C132.754 37.4472 131.342 36.8928 130.234 35.8344C129.175 34.776 128.621 33.3144 128.621 31.5C128.621 29.6352 129.276 28.1232 130.637 27.0144C131.947 25.9056 133.711 25.3512 135.878 25.3512C137.894 25.3512 139.507 25.7544 140.666 26.6112C140.666 24.444 140.364 22.8816 139.759 21.924C139.154 20.9664 137.995 20.5128 136.332 20.5128C135.072 20.5128 133.762 20.7648 132.451 21.2688C131.645 21.6216 130.788 21.2184 130.536 20.412ZM135.727 34.4232C137.642 34.4232 139.255 33.6168 140.666 31.9536V29.484C139.457 28.6272 138.046 28.1736 136.382 28.1736C135.223 28.1736 134.266 28.476 133.459 29.0304C132.653 29.5848 132.3 30.3912 132.3 31.3488C132.3 32.3064 132.602 33.0624 133.207 33.5664C133.762 34.1712 134.618 34.4232 135.727 34.4232ZM162.842 17.892H164.858L156.391 37.3968H153.922L145.001 17.892H148.982L153.619 28.3248C154.174 29.5344 154.678 30.9456 155.232 32.6088C155.635 31.248 156.139 29.7864 156.794 28.224L160.524 19.404C160.978 18.4968 161.885 17.892 162.842 17.892ZM170.554 37.1952H167.126V9.67681C167.126 8.31601 168.235 7.20721 169.596 7.20721H170.554V37.1952ZM180.331 17.892H183.557L175.392 26.8632L184.565 37.1952H179.928L171.259 27.1152L178.466 18.7488C178.92 18.2448 179.575 17.892 180.331 17.892ZM187.085 20.412L186.682 19.2024C188.597 18.0432 190.714 17.4384 193.082 17.4384C195.653 17.4384 197.518 18.0936 198.727 19.3536C199.886 20.664 200.491 22.6296 200.491 25.3008V37.1448H199.735C198.374 37.1448 197.266 36.036 197.266 34.6752C195.754 36.54 193.738 37.4472 191.117 37.4472C189.353 37.4472 187.942 36.8928 186.833 35.8344C185.774 34.776 185.22 33.3144 185.22 31.5C185.22 29.6352 185.875 28.1232 187.236 27.0144C188.546 25.9056 190.31 25.3512 192.478 25.3512C194.494 25.3512 196.106 25.7544 197.266 26.6112C197.266 24.444 196.963 22.8816 196.358 21.924C195.754 20.9664 194.594 20.5128 192.931 20.5128C191.671 20.5128 190.361 20.7648 189.05 21.2688C188.244 21.6216 187.337 21.2184 187.085 20.412ZM192.276 34.4232C194.191 34.4232 195.804 33.6168 197.215 31.9536V29.484C196.006 28.6272 194.594 28.1736 192.931 28.1736C191.772 28.1736 190.814 28.476 190.008 29.0304C189.202 29.5848 188.849 30.3912 188.849 31.3488C188.849 32.3064 189.151 33.0624 189.756 33.5664C190.361 34.1712 191.218 34.4232 192.276 34.4232ZM204.422 34.8768C204.422 34.272 204.674 33.768 205.128 33.3144C205.582 32.8608 206.186 32.6088 206.842 32.6088C207.446 32.6088 207.95 32.8608 208.404 33.3144C208.858 33.768 209.11 34.3224 209.11 34.8768C209.11 35.5824 208.908 36.1368 208.454 36.5904C208.051 37.044 207.497 37.296 206.842 37.296C206.136 37.296 205.582 37.044 205.128 36.5904C204.624 36.1872 204.422 35.5824 204.422 34.8768ZM213.091 35.4312V9.67681C213.091 8.31601 214.2 7.20721 215.561 7.20721H216.518V19.7568C217.224 19.0512 218.131 18.4968 219.24 18.0936C220.349 17.6904 221.407 17.4888 222.516 17.4888C225.338 17.4888 227.556 18.396 229.169 20.2104C230.832 21.9744 231.638 24.3432 231.638 27.2664C231.638 30.4416 230.681 32.9616 228.715 34.8768C226.8 36.7416 224.179 37.6488 220.954 37.6488C217.728 37.6488 215.107 36.8928 213.091 35.4312ZM221.71 20.7144C220.702 20.7144 219.744 20.9664 218.786 21.42C217.829 21.924 217.073 22.4784 216.518 23.184V33.1128C217.829 34.02 219.341 34.4232 221.105 34.4232C223.121 34.4232 224.784 33.8184 226.044 32.5584C227.304 31.2984 227.959 29.6352 227.959 27.5184C227.959 25.4016 227.405 23.7384 226.246 22.5288C225.137 21.3192 223.625 20.7144 221.71 20.7144ZM241.114 37.1952L231.89 17.892H234.41C235.368 17.892 236.275 18.4464 236.678 19.3536L241.618 30.1896C241.718 30.3912 242.122 31.3488 242.777 33.1128C243.029 32.1552 243.331 31.1976 243.684 30.1392L248.119 17.892H252L244.339 37.1952C243.634 38.9088 243.432 39.816 242.424 40.9248C241.366 42.1344 240.106 42.7392 238.694 42.7392C237.434 42.7392 236.225 42.336 235.066 41.5296L236.174 38.9088C237.082 39.3624 237.787 39.564 238.291 39.564C238.997 39.564 239.602 39.312 240.206 38.7576C240.358 38.6064 240.509 38.4048 240.61 38.2032L241.114 37.1952Z" fill="#5A9632"/>
<path d="M57.6072 57.7584C56.7 56.8512 56.2464 55.692 56.2464 54.3312C56.2464 52.9704 56.7 51.8112 57.6072 50.904C58.5144 49.9968 59.6736 49.5432 61.1352 49.5432C62.5968 49.5432 63.756 49.9968 64.6632 50.904C65.5704 51.8112 66.024 52.9704 66.024 54.3312C66.024 55.692 65.5704 56.8512 64.6632 57.7584C63.756 58.6656 62.5968 59.1192 61.1352 59.1192C59.6736 59.1192 58.5144 58.6656 57.6072 57.7584ZM57.96 54.3312C57.96 55.2888 58.2624 56.0448 58.8168 56.6496C59.4216 57.2544 60.1776 57.5568 61.0848 57.5568C61.992 57.5568 62.748 57.2544 63.3528 56.6496C63.9576 56.0448 64.2096 55.2384 64.2096 54.2808C64.2096 53.3232 63.9072 52.5672 63.3528 51.9624C62.748 51.3576 61.992 51.0552 61.0848 51.0552C60.1776 51.0552 59.4216 51.3576 58.8168 51.9624C58.2624 52.6176 57.96 53.3736 57.96 54.3312Z" fill="#404040"/>
<path d="M75.2472 58.9176V55.0368H70.2072V58.9176H68.5944V49.7448H70.2072V53.5248H75.2472V49.7448H76.86V58.9176H75.2472Z" fill="#404040"/>
<path d="M86.2344 58.9176V51.3576H83.0592L82.9584 52.92C82.8576 53.928 82.7568 54.8352 82.6056 55.5408C82.4544 56.2968 82.2528 56.8512 82.0512 57.3048C81.8496 57.7584 81.5976 58.1112 81.2952 58.3632C80.9928 58.6152 80.6904 58.8168 80.388 58.8672C80.0856 58.968 79.7328 59.0184 79.3296 59.0184L79.128 57.456C79.2792 57.456 79.4304 57.456 79.5816 57.4056C79.7328 57.3552 79.9344 57.204 80.0856 57.0024C80.2872 56.8008 80.4384 56.5488 80.5896 56.196C80.7408 55.8432 80.892 55.3896 80.9928 54.7848C81.144 54.18 81.1944 53.4744 81.2448 52.668L81.396 49.7952H87.7464V58.968L86.2344 58.9176Z" fill="#404040"/>
<path d="M91.5264 51.7104L91.1232 50.4C92.0304 49.8456 93.0384 49.5432 94.1472 49.5432C95.4072 49.5432 96.3144 49.8456 96.8184 50.5008C97.3728 51.1056 97.6248 52.0632 97.6248 53.3232V58.968H96.0624V57.8088C95.3568 58.716 94.3992 59.1192 93.1392 59.1192C92.2824 59.1192 91.6272 58.8672 91.1232 58.3632C90.6192 57.8592 90.3672 57.1536 90.3672 56.2968C90.3672 55.3896 90.6696 54.684 91.3248 54.18C91.98 53.676 92.7864 53.424 93.7944 53.424C94.752 53.424 95.508 53.6256 96.0624 54.0288C96.0624 53.0712 95.9112 52.3152 95.6592 51.8616C95.4072 51.408 94.8528 51.156 93.996 51.156C93.1896 51.0048 92.3832 51.2568 91.5264 51.7104ZM93.744 57.6072C94.6512 57.6072 95.4072 57.204 96.1128 56.448V55.2888C95.5584 54.8856 94.8528 54.684 94.0464 54.684C93.492 54.684 93.0384 54.8352 92.6856 55.0872C92.3328 55.3392 92.1312 55.7424 92.1312 56.196C92.1312 56.6496 92.2824 57.0024 92.5848 57.2544C92.8368 57.456 93.24 57.6072 93.744 57.6072Z" fill="#404040"/>
<path d="M102.312 58.9176H100.699V49.7448H102.312V56.5488L107.554 49.7448H109.166V58.9176H107.554V52.1136L102.312 58.9176ZM101.959 45.0576H103.471C103.572 46.116 104.076 46.6704 105.034 46.6704C105.941 46.6704 106.445 46.116 106.495 45.0576H108.007C108.007 45.864 107.755 46.5696 107.201 47.0736C106.646 47.628 105.941 47.88 105.034 47.88C104.076 47.88 103.32 47.628 102.766 47.0736C102.262 46.62 101.959 45.9144 101.959 45.0576Z" fill="#404040"/>
<path d="M119.045 58.9176V55.0368H114.005V58.9176H112.392V49.7448H114.005V53.5248H119.045V49.7448H120.658V58.9176H119.045Z" fill="#404040"/>
<path d="M123.53 54.1296V52.6176H128.369V54.1296H123.53Z" fill="#404040"/>
<path d="M131.191 58.9176V49.7448H136.937V51.2568H132.804V58.9176H131.191Z" fill="#404040"/>
<path d="M140.566 58.9176H138.953V49.7448H140.566V56.5488L145.807 49.7448H147.42V58.9176H145.807V52.1136L140.566 58.9176Z" fill="#404040"/>
<path d="M157.198 58.9176V51.2568H152.258V58.9176H150.646V49.7448H158.861V58.9176H157.198Z" fill="#404040"/>
<path d="M169.243 56.6496L169.747 57.9096C168.89 58.716 167.731 59.1192 166.32 59.1192C164.858 59.1192 163.649 58.6656 162.792 57.8088C161.885 56.952 161.482 55.7928 161.482 54.3312C161.482 52.9704 161.885 51.8112 162.742 50.904C163.598 49.9968 164.707 49.5432 166.169 49.5432C167.378 49.5432 168.386 49.9464 169.193 50.7024C169.999 51.4584 170.402 52.4664 170.402 53.7264C170.402 54.1296 170.352 54.5328 170.302 54.8352H163.296C163.346 55.692 163.699 56.3472 164.254 56.8512C164.808 57.3552 165.564 57.6072 166.471 57.6072C167.63 57.6072 168.588 57.3048 169.243 56.6496ZM166.068 51.1056C165.262 51.1056 164.606 51.3576 164.102 51.8112C163.598 52.2648 163.296 52.8696 163.195 53.5752H168.739C168.689 52.8192 168.437 52.2144 167.983 51.7608C167.479 51.3072 166.874 51.1056 166.068 51.1056Z" fill="#404040"/>
<path d="M172.922 63V49.7448H174.535V50.8032C174.838 50.4 175.291 50.0976 175.846 49.896C176.4 49.644 177.005 49.5432 177.61 49.5432C178.87 49.5432 179.928 49.9968 180.684 50.8536C181.44 51.7104 181.843 52.8192 181.843 54.18C181.843 55.5912 181.39 56.7504 180.533 57.708C179.676 58.6656 178.517 59.1192 177.106 59.1192C176.047 59.1192 175.19 58.9176 174.535 58.464V62.9496H172.922V63ZM177.206 51.1056C176.148 51.1056 175.241 51.5088 174.586 52.3656V56.9016C175.291 57.3552 176.098 57.6072 177.005 57.6072C177.962 57.6072 178.718 57.3048 179.323 56.6496C179.878 56.0448 180.18 55.2384 180.18 54.2304C180.18 53.2728 179.928 52.5168 179.374 51.912C178.819 51.3072 178.114 51.1056 177.206 51.1056Z" fill="#404040"/>
<path d="M184.464 58.9176V49.7448H185.926L189.403 54.2808L192.73 49.7448H194.191V58.9176H192.578V52.2144L189.403 56.448H189.353L186.077 52.2144V58.9176H184.464Z" fill="#404040"/>
<path d="M197.921 51.7104L197.518 50.4C198.425 49.8456 199.433 49.5432 200.542 49.5432C201.802 49.5432 202.709 49.8456 203.213 50.5008C203.767 51.1056 204.019 52.0632 204.019 53.3232V58.968H202.457V57.8088C201.751 58.716 200.794 59.1192 199.534 59.1192C198.677 59.1192 198.022 58.8672 197.518 58.3632C197.014 57.8592 196.762 57.1536 196.762 56.2968C196.762 55.3896 197.064 54.684 197.719 54.18C198.374 53.676 199.181 53.424 200.189 53.424C201.146 53.424 201.902 53.6256 202.457 54.0288C202.457 53.0712 202.306 52.3152 202.054 51.8616C201.802 51.408 201.247 51.156 200.39 51.156C199.584 51.0048 198.778 51.2568 197.921 51.7104ZM200.138 57.6072C201.046 57.6072 201.802 57.204 202.507 56.448V55.2888C201.953 54.8856 201.247 54.684 200.441 54.684C199.886 54.684 199.433 54.8352 199.08 55.0872C198.727 55.3392 198.526 55.7424 198.526 56.196C198.526 56.6496 198.677 57.0024 198.979 57.2544C199.231 57.456 199.634 57.6072 200.138 57.6072Z" fill="#404040"/>
<path d="M207.043 63V49.7448H208.656V50.8032C208.958 50.4 209.412 50.0976 209.966 49.896C210.521 49.644 211.126 49.5432 211.73 49.5432C212.99 49.5432 214.049 49.9968 214.805 50.8536C215.561 51.7104 215.964 52.8192 215.964 54.18C215.964 55.5912 215.51 56.7504 214.654 57.708C213.797 58.6656 212.638 59.1192 211.226 59.1192C210.168 59.1192 209.311 58.9176 208.656 58.464V62.9496H207.043V63ZM211.327 51.1056C210.269 51.1056 209.362 51.5088 208.706 52.3656V56.9016C209.412 57.3552 210.218 57.6072 211.126 57.6072C212.083 57.6072 212.839 57.3048 213.444 56.6496C213.998 56.0448 214.301 55.2384 214.301 54.2304C214.301 53.2728 214.049 52.5168 213.494 51.912C212.94 51.3072 212.234 51.1056 211.327 51.1056Z" fill="#404040"/>
<path d="M218.585 58.9176V49.7448H220.198V58.9176H218.585ZM226.548 49.7448L222.566 54.1296L226.951 58.9176H224.683L220.601 54.2304L224.431 49.7448H226.548Z" fill="#404040"/>
<path d="M235.62 56.6496L236.124 57.9096C235.267 58.716 234.108 59.1192 232.697 59.1192C231.235 59.1192 230.026 58.6656 229.169 57.8088C228.262 56.952 227.858 55.7928 227.858 54.3312C227.858 52.9704 228.262 51.8112 229.118 50.904C229.975 49.9968 231.084 49.5432 232.546 49.5432C233.755 49.5432 234.763 49.9464 235.57 50.7024C236.376 51.4584 236.779 52.4664 236.779 53.7264C236.779 54.1296 236.729 54.5328 236.678 54.8352H229.673C229.723 55.692 230.076 56.3472 230.63 56.8512C231.185 57.3552 231.941 57.6072 232.848 57.6072C234.007 57.6072 234.914 57.3048 235.62 56.6496ZM232.445 51.1056C231.638 51.1056 230.983 51.3576 230.479 51.8112C229.975 52.2648 229.673 52.8696 229.572 53.5752H235.116C235.066 52.8192 234.814 52.2144 234.36 51.7608C233.806 51.3072 233.201 51.1056 232.445 51.1056Z" fill="#404040"/>
<path d="M238.291 51.408V49.7952H246.607V51.408H243.281V58.968H241.668V51.408H238.291Z" fill="#404040"/>
<path d="M43.6459 12.1464C43.5955 9.6768 41.5795 7.7112 39.1099 7.7112H33.7675V5.7456C33.7675 2.5704 31.1971 0 28.1227 0H16.7827C13.6579 0 11.0875 2.5704 11.0875 5.6952V7.6608H5.74512C3.27552 7.6608 1.25952 9.6264 1.20912 12.096L-0.000479765 53.8272C-0.0508798 55.0872 0.40272 56.2464 1.25952 57.1536C2.11632 58.0608 3.27552 58.5648 4.53552 58.5648H40.3195C41.5795 58.5648 42.7387 58.0608 43.5955 57.1536C44.4523 56.2464 44.9059 55.0872 44.8555 53.8272L43.6459 12.1464ZM14.5147 5.6952C14.5147 4.4352 15.5227 3.4272 16.7323 3.4272H28.0723C29.2819 3.4272 30.2899 4.4352 30.2899 5.6952V7.6608H14.5147V5.6952ZM41.1259 54.7344C40.9243 54.936 40.6219 55.0872 40.3195 55.0872H4.53552C4.23312 55.0872 3.93072 54.9864 3.72912 54.7344C3.52752 54.5328 3.42672 54.2304 3.42672 53.928L4.63632 12.1968C4.63632 11.592 5.14032 11.088 5.74512 11.088H11.0875V11.4912C11.0875 12.4488 11.8435 13.2048 12.8011 13.2048C13.7587 13.2048 14.5147 12.4488 14.5147 11.4912V11.088H30.3403V11.4912C30.3403 12.4488 31.0963 13.2048 32.0539 13.2048C33.0115 13.2048 33.7675 12.4488 33.7675 11.4912V11.088H39.1099C39.7147 11.088 40.2187 11.5416 40.2187 12.1968L41.4283 53.928C41.4283 54.2304 41.3275 54.5328 41.1259 54.7344Z" fill="#5A9632"/>
<path d="M23.0832 20.4624C19.0512 20.4624 15.9264 21.7224 13.608 24.192C11.2896 26.6616 10.1304 29.8368 10.1304 33.6672C10.1304 37.6992 11.34 40.8744 13.8096 43.2936C16.2792 45.7128 19.5048 46.872 23.5872 46.872C26.8632 46.872 29.5848 46.0656 31.8024 44.5032C32.508 43.9992 32.8104 43.0416 32.508 42.2352C32.1048 41.1768 30.8448 40.7232 29.8872 41.2776C28.2744 42.1848 26.3088 42.6384 23.94 42.6384C21.4704 42.6384 19.404 41.9832 17.8416 40.6224C16.2792 39.2616 15.372 37.3968 15.1704 35.0784H33.3144C34.02 35.0784 34.6248 34.524 34.6752 33.8184C34.7256 33.264 34.776 32.6592 34.776 32.0544C34.776 28.6272 33.6672 25.8552 31.4496 23.7384C29.1312 21.5208 26.3592 20.4624 23.0832 20.4624ZM14.868 31.3992C15.12 29.4336 15.9768 27.7704 17.388 26.5608C18.7992 25.3008 20.6136 24.696 22.8816 24.696C25.0488 24.696 26.7624 25.3008 28.0224 26.5104C29.2824 27.72 29.988 29.3832 30.1392 31.4496L14.868 31.3992Z" fill="#5A9632"/>
</g>
<defs>
<clipPath id="clip0">
<rect width="252" height="63" fill="white"/>
</clipPath>
</defs>
</svg>
