<svg width="783" height="783" viewBox="0 0 783 783" fill="none" xmlns="http://www.w3.org/2000/svg">
<circle cx="391.5" cy="391.5" r="391.5" fill="white"/>
<circle cx="392" cy="391" r="371.5" fill="white" stroke="#91AD2A" stroke-width="9"/>
<path d="M445.306 163.135C418.504 178.526 390.105 194.834 390.874 255.923C390.82 257.411 390.921 258.537 391.06 259.516C410.193 208.848 447.21 185.807 449.761 184.22C449.853 184.162 449.9 184.131 449.9 184.131C424.679 203.271 407.662 238.558 399.329 259.259C403.603 257.891 408.677 256.659 414.192 255.321C451.088 246.369 507.662 232.643 475.681 141.279C467.303 150.504 456.442 156.74 445.306 163.135Z" fill="#F19B35"/>
<path d="M380.945 231.075C386.84 197.562 364.361 195.196 355.266 181.185C332.391 223.23 372.057 226.717 380.754 233.797C380.942 233.057 380.791 232.295 380.945 231.075Z" fill="#F19B35"/>
<path d="M375.567 431.349C380.639 385.329 349.892 384.073 336.306 365.84C308.915 424.924 363.11 426.205 375.546 435.061C375.737 434.041 375.465 433.019 375.567 431.349Z" fill="#91AD2A"/>
<path d="M391.71 387.718C379.713 345.664 408.147 339.635 417.917 320.509C452.762 371.2 402.498 380.959 392.316 391.171C391.977 390.251 392.069 389.257 391.71 387.718Z" fill="#91AD2A"/>
<path d="M351.703 508.223C359.819 462.642 329.223 459.348 316.878 440.252C285.625 497.387 339.614 502.264 351.435 511.926C351.693 510.921 351.49 509.883 351.703 508.223Z" fill="#91AD2A"/>
<path d="M418.22 498.991C421.191 452.788 451.691 456.873 468.227 441.266C484.978 504.2 431.38 496.081 417.598 502.651C417.587 501.613 418.031 500.653 418.22 498.991Z" fill="#91AD2A"/>
<path d="M410.067 420.924C405.335 385.921 428.762 384.386 438.782 370.225C460.781 414.774 419.471 416.768 410.152 423.755C409.988 422.981 410.176 422.196 410.067 420.924Z" fill="#91AD2A"/>
<path d="M378.017 381.012C385.655 346.525 362.438 343.04 353.636 328.091C327.993 370.647 368.992 376.084 377.695 383.826C377.923 383.067 377.802 382.27 378.017 381.012Z" fill="#91AD2A"/>
<path d="M323.843 413.891C327.176 396.788 315.683 395.362 311.154 388.101C299.044 409.41 319.331 411.575 323.72 415.283C323.823 414.906 323.753 414.514 323.843 413.891Z" fill="#91AD2A"/>
<path d="M388.442 306.146C394.2 293.751 385.717 290.501 383.636 284.12C370.404 298.065 385.443 303.533 388.086 307.183C388.236 306.915 388.256 306.604 388.442 306.146Z" fill="#91AD2A"/>
<path d="M369.18 541.798C366.368 524.602 355.094 527.254 348.327 522.017C344.368 546.204 364.144 541.192 369.548 543.146C369.514 542.757 369.312 542.414 369.18 541.798Z" fill="#91AD2A"/>
<path d="M413.33 532.643C414.138 515.237 425.642 516.569 431.76 510.586C438.486 534.154 418.263 531.459 413.121 534.024C413.11 533.633 413.271 533.269 413.33 532.643Z" fill="#91AD2A"/>
<path d="M453.098 432.861C449.641 415.117 461.565 413.637 466.263 406.104C478.826 428.212 457.78 430.458 453.226 434.305C453.119 433.914 453.192 433.507 453.098 432.861Z" fill="#91AD2A"/>
<path d="M384.36 343.654C393.076 323.032 379.003 318.196 375.231 307.868C354.366 331.456 379.299 339.547 383.837 345.371C384.066 344.924 384.082 344.413 384.36 343.654Z" fill="#91AD2A"/>
<path d="M394.874 329.688C387.603 312.669 399.222 308.627 402.308 300.077C419.631 319.51 399.045 326.278 395.312 331.106C395.121 330.738 395.107 330.316 394.874 329.688Z" fill="#91AD2A"/>
<path d="M426.411 263.886C431.918 261.978 436.545 260.376 442.5 264.842C442.85 265.105 443.185 265.337 443.506 265.54C454.241 278.398 460.703 294.939 460.703 312.974V313.955C460.703 332.447 467.91 350.285 481.015 363.54C505.094 387.432 520 420.815 520 457.636C520 464.018 519.509 470.4 518.69 476.618C511.482 527.512 475.445 569.078 427.779 584.46C424.665 585.457 421.504 586.347 418.298 587.125C437.223 573.3 474.06 537.711 485.5 512.843C485.581 512.667 485.647 512.488 485.7 512.307C491.286 501.563 495.148 489.78 496.915 477.321C497.593 472.182 498 466.909 498 461.635C498 431.21 486 404.35 465.731 383.882C454.885 372.929 448 360.342 444 342.91L441 315.342C437.194 291.471 428.122 274.542 412.459 266.376C412.473 266.365 412.486 266.354 412.5 266.342C418.117 266.758 422.487 265.245 426.411 263.886Z" fill="#473E42"/>
<path d="M364.117 265.366C364.287 265.177 364.577 265.001 365 264.842C377.224 260.258 377.869 256.9 379.739 247.167C380.185 244.844 380.701 242.157 381.461 239.003C375.461 239.392 369.741 240.484 364.223 242.279C363.813 242.443 363.404 242.565 362.994 242.688C362.585 242.811 362.175 242.934 361.766 243.097C351.282 246.861 341.782 252.752 334.083 260.607C320.651 274.026 312.297 292.518 312.297 312.974V313.955C312.297 332.611 304.762 350.612 291.494 363.867C267.742 387.923 253 421.143 253 457.799C253.151 526.24 304.264 582.126 370.503 590.046C370.336 589.979 370.168 589.911 370 589.843C329.6 573.443 303.167 538.009 295 522.343L295.118 522.209C283.701 504.894 277.05 484.144 277 461.77C277 431.48 285.138 406.572 302.5 383.882C305.471 378.787 308.706 374.59 311.854 370.504C317.858 362.713 323.548 355.33 326.5 342.91L330.5 320.842C331.919 297.587 333.882 288.431 345 277.342C355.277 268.35 357.742 267.518 363.689 265.511C363.83 265.463 363.972 265.415 364.117 265.366Z" fill="#473E42"/>
<path d="M340.249 628.619C377.774 610.436 374.822 588.003 374.822 535.106C374.822 512.909 370.102 491.892 361.842 473.945C359.01 466.625 355.234 460.013 350.513 453.873C341.309 440.649 329.745 429.786 317 422.23C341.073 427.189 363.966 439.232 381.195 456.707C391.107 424.591 384.971 392.003 384.971 392.003C407.628 409.242 405.268 455.762 405.268 455.762C419.192 426.717 440.433 419.396 447.749 417.743C420.608 442.774 403.143 484.099 403.143 530.62C403.143 568.875 408 610.003 441 628.619C420 620.503 400.749 631.003 379.749 631.003C358.749 631.003 360.249 631.003 340.249 628.619Z" fill="#473E42"/>
<path d="M198.697 620.864L197.151 619.488C198.881 618.17 199.981 617.248 200.448 616.723C201.158 615.925 201.305 615.133 200.891 614.345C200.476 613.558 198.994 612.03 196.446 609.762L190.61 604.568C185.932 607.866 179.419 612.266 171.07 617.769C162.738 623.253 157.353 626.582 154.912 627.757C156.166 629.326 157.444 630.69 158.747 631.85C159.603 632.612 160.462 633.254 161.322 633.775L159.346 634.997C158.732 634.59 158.162 634.153 157.637 633.685C157.209 633.305 155.927 632.042 153.792 629.897C152.556 628.623 151.461 627.561 150.508 626.713C148.562 624.982 146.393 623.365 144 621.863L145.808 620.595C147.944 621.799 149.53 622.426 150.565 622.476C151.621 622.544 153.177 622.029 155.234 620.932C157.292 619.835 161.605 617.084 168.173 612.681L186.087 600.543C182.125 597.435 178.123 596.174 174.08 596.76C170.075 597.343 166.886 598.968 164.514 601.633C162.904 603.442 161.891 605.364 161.474 607.399C161.205 608.798 160.898 609.692 160.551 610.081C159.582 611.17 158.455 611.144 157.171 610.001C156.354 609.274 156.143 608.179 156.537 606.718C156.932 605.256 157.969 603.582 159.648 601.695C163.163 597.746 167.688 595.324 173.225 594.43C178.782 593.553 184.332 595.582 189.876 600.516L199.71 609.268C202.258 611.536 204.834 613.323 207.437 614.628C202.595 617.954 199.682 620.032 198.697 620.864Z" fill="#91AD2A"/>
<path d="M223.792 636.539L225.104 635.278C228.522 636.923 231.554 638.15 234.199 638.961C232.698 640.183 230.862 641.856 228.691 643.982L220.532 651.873L223.484 653.935C224.869 654.866 226.633 655.447 228.776 655.679C230.941 655.925 233.274 655.466 235.776 654.302C238.3 653.151 240.25 651.44 241.626 649.168C242.989 646.918 243.255 644.644 242.425 642.345C241.617 640.059 239.554 637.911 236.235 635.901C232.449 633.607 228.166 632.308 223.389 632.002C218.625 631.673 214.361 632.379 210.598 634.118C206.87 635.849 204.143 638.14 202.416 640.991C201.566 642.394 201.08 643.774 200.958 645.132C200.85 646.467 201.149 648.033 201.856 649.832C202.462 651.295 202.536 652.405 202.077 653.162C201.78 653.652 201.352 653.956 200.794 654.074C200.235 654.193 199.71 654.103 199.22 653.807C197.906 653.011 197.183 651.339 197.051 648.793C196.919 646.247 197.689 643.593 199.362 640.831C202.425 635.775 207.155 632.338 213.554 630.52C221.952 628.117 230.427 629.506 238.98 634.687C242.232 636.656 244.638 638.692 246.196 640.793C247.777 642.908 248.635 645.01 248.769 647.101C248.926 649.205 248.484 651.115 247.445 652.83C246.123 655.013 244.086 656.717 241.334 657.943C238.618 659.16 235.443 659.55 231.81 659.115C228.199 658.694 224.655 657.431 221.181 655.326C220.646 655.002 219.831 654.463 218.736 653.708L209.802 662.5C208.291 663.99 206.737 665.423 205.141 666.801C206.622 668.277 208.009 669.406 209.301 670.188C210.927 671.173 212.864 671.921 215.113 672.43L213.579 674.058C211.558 673.474 209.946 672.817 208.744 672.089C207.585 671.387 205.967 670.239 203.888 668.645C202.241 667.343 200.86 666.354 199.747 665.68C197.586 664.371 195.215 663.285 192.632 662.421L194.106 660.893C196.652 661.917 198.564 662.33 199.842 662.13C201.652 661.856 203.853 660.434 206.445 657.863L223.613 640.906C224.402 640.105 224.912 639.516 225.141 639.137C225.357 638.781 225.401 638.381 225.273 637.938C225.159 637.473 224.902 637.12 224.501 636.877C224.345 636.782 224.109 636.67 223.792 636.539Z" fill="#91AD2A"/>
<path d="M286.56 656.384C285.729 658.576 285.287 659.745 285.235 659.893C285.166 660.089 285.021 660.577 284.801 661.355L277.146 689.889C277.497 689.599 279.167 688.16 282.155 685.571C291.797 677.216 299.793 671.289 306.142 667.79C312.516 664.3 317.642 663.241 321.521 664.614C323.828 665.431 324.704 666.625 324.148 668.196C323.87 668.981 323.375 669.442 322.665 669.577C321.954 669.712 320.811 669.584 319.237 669.193C316.9 668.614 314.923 668.425 313.305 668.626C311.711 668.836 308.91 669.999 304.901 672.116C300.892 674.233 296.279 677.393 291.062 681.596C285.869 685.808 279.032 691.703 270.548 699.281C265.841 703.526 262.109 705.838 259.351 706.215C256.617 706.602 254.17 706.412 252.01 705.648C249.727 704.84 247.974 703.625 246.752 702.005C245.53 700.384 245.171 698.862 245.675 697.438C245.884 696.849 246.296 696.387 246.911 696.053C247.518 695.743 248.104 695.688 248.669 695.888C249.503 696.183 250.221 697.003 250.823 698.349C252.176 701.314 253.712 703.101 255.431 703.709C258.941 704.952 263.532 702.557 269.203 696.526L279.842 657.569L278.848 657.218C274.134 655.549 269.603 655.63 265.253 657.461C260.912 659.267 258.072 662.061 256.734 665.841C256.091 667.658 255.951 669.887 256.315 672.53C256.468 673.579 256.454 674.361 256.271 674.876C256.071 675.441 255.664 675.849 255.05 676.102C254.445 676.329 253.811 676.326 253.148 676.091C252.019 675.692 251.395 674.684 251.276 673.067C251.182 671.459 251.474 669.698 252.152 667.783C253.942 662.726 257.477 658.825 262.758 656.081C268.072 653.321 274.289 653.201 281.408 655.72C283.47 656.45 285.188 656.671 286.56 656.384Z" fill="#91AD2A"/>
<path d="M402.203 677.18C401.145 675.784 400.163 675.047 399.254 674.969C396.53 674.738 393.493 678.178 390.144 685.289C386.797 692.375 382.713 703.828 377.891 719.648C378.148 719.696 378.75 719.838 379.697 720.076C381.154 720.461 382.337 720.692 383.245 720.77C384.361 720.864 385.578 720.837 386.898 720.688L386.203 722.864C384.918 722.911 383.874 722.901 383.07 722.832C382.369 722.773 380.937 722.56 378.772 722.193C375.034 721.587 358.375 720.026 328.794 717.51C324.694 717.162 321.732 717.119 319.906 717.382L320.672 715.291C323.249 715.405 325.185 714.93 326.478 713.863C327.771 712.797 329.625 709.126 332.04 702.85L337.268 688.868L342.294 674.947C337.177 674.564 333.225 675.09 330.437 676.526C327.675 677.963 326.201 679.785 326.013 681.991C325.951 682.717 326.21 683.667 326.79 684.84C327.324 685.931 327.564 686.801 327.509 687.45C327.449 688.15 327.164 688.74 326.653 689.219C326.144 689.673 325.526 689.868 324.799 689.807C323.839 689.725 323.072 689.215 322.499 688.278C321.953 687.317 321.749 686.032 321.886 684.423C322.104 681.854 323.065 679.623 324.768 677.729C326.497 675.838 328.53 674.521 330.867 673.779C333.232 673.013 335.44 672.56 337.49 672.421C339.569 672.258 343.774 672.446 350.105 672.984C348.954 674.847 348.118 676.37 347.6 677.554C347.081 678.738 345.85 681.992 343.907 687.315C339.74 698.827 336.941 706.076 335.511 709.065C334.108 712.03 332.87 713.989 331.796 714.943C333.897 715.435 335.882 715.761 337.75 715.92C339.826 716.097 343.924 716.158 350.044 716.103C351.968 710.386 354.555 703.171 357.805 694.456C358.889 691.543 360.872 685.753 363.752 677.085L362.704 676.957C361.459 676.851 359.595 676.954 357.111 677.265L358.033 675.188C359.549 674.872 363.272 674.888 369.202 675.236C373.313 675.455 376.21 675.492 377.895 675.348L377.058 677.355C374.111 677.287 372.188 677.463 371.29 677.883C370.391 678.304 369.68 678.988 369.155 679.936C368.658 680.861 367.384 684.163 365.333 689.843C363.307 695.526 361.123 702.004 358.779 709.28L356.131 717.366C357.705 717.604 359.206 717.784 360.633 717.905C364.369 718.223 368.079 718.238 371.763 717.95C371.98 717.551 374.096 711.719 378.112 700.457C380.968 692.389 383.362 686.516 385.295 682.838C387.231 679.135 389.503 676.388 392.112 674.597C394.721 672.807 397.66 672.05 400.93 672.328C403.109 672.514 404.797 673.102 405.994 674.092C407.218 675.059 407.78 676.139 407.678 677.332C407.55 678.837 406.708 679.524 405.151 679.391C404.243 679.314 403.26 678.577 402.203 677.18Z" fill="#91AD2A"/>
<path d="M455.081 676.897L453.037 677.23C453.029 675.886 452.962 674.828 452.836 674.057C452.669 673.029 452.123 672.432 451.199 672.266C450.296 672.071 447.03 672.432 441.401 673.35L435.779 674.306L434.279 692.045L442.259 690.743C444.778 690.332 446.291 689.901 446.798 689.449C447.326 688.967 447.597 687.96 447.611 686.427L449.809 686.069C449.493 689.313 449.318 692.851 449.284 696.682L447.318 697.003C447.249 695.774 447.16 694.825 447.051 694.157C447.005 693.874 446.769 693.557 446.342 693.204C446.128 693.028 445.771 692.941 445.27 692.944C444.555 692.928 443.465 693.04 442 693.279L434.097 694.568C433.235 703.68 431.975 710.917 430.316 716.28C432.585 715.145 434.645 714.426 436.495 714.125C439.579 713.621 443.437 713.494 448.069 713.741C450.521 713.895 452.172 713.903 453.02 713.764C454.151 713.58 455.017 713.148 455.619 712.47C456.221 711.791 456.463 711.092 456.345 710.372C456.278 709.961 456.002 709.32 455.517 708.449C455.207 707.84 455.005 707.253 454.913 706.688C454.817 706.096 454.962 705.532 455.349 704.994C455.762 704.451 456.303 704.126 456.971 704.017C457.768 703.887 458.473 704.088 459.088 704.621C459.728 705.15 460.132 705.929 460.3 706.957C460.657 709.141 460.005 711.213 458.346 713.173C456.712 715.128 454.327 716.361 451.192 716.873C449.547 717.141 447.442 717.339 444.877 717.467C439.25 717.752 434.985 718.131 432.081 718.605C428.277 719.225 423.881 720.259 418.892 721.706L419.163 719.485C422.058 718.142 423.743 717.234 424.22 716.76C424.693 716.261 425.046 715.596 425.28 714.766C426.116 712.124 426.911 706.967 427.665 699.298C428.445 691.624 429.184 683.535 429.881 675.031C426.797 675.534 423.999 676.742 421.488 678.656C418.977 680.57 417.143 682.834 415.987 685.451C414.826 688.041 414.457 690.634 414.881 693.23C415.061 694.335 415.321 695.282 415.661 696.071C416.026 696.856 416.716 697.931 417.73 699.296C418.365 700.116 418.729 700.808 418.821 701.374C418.914 701.939 418.751 702.48 418.334 702.997C417.943 703.509 417.4 703.822 416.706 703.935C415.704 704.099 414.825 703.727 414.071 702.821C412.958 701.499 412.196 699.578 411.785 697.06C410.905 691.662 412.158 686.484 415.544 681.525C418.931 676.566 424.531 673.45 432.344 672.175L445.568 670.018C450.143 669.272 453.474 668.425 455.563 667.478C455.231 671.912 455.07 675.052 455.081 676.897Z" fill="#91AD2A"/>
<path d="M488.634 666.899L488.407 664.979C491.108 663.731 493.918 662.108 496.836 660.109C496.936 662.94 497.082 665.196 497.275 666.878L498.393 675.771C502.703 674.135 505.534 671.835 506.888 668.87C508.257 665.872 508.378 662.887 507.25 659.917C506.465 657.847 505.041 656.48 502.978 655.814C500.939 655.14 498.361 655.394 495.245 656.576C490.838 658.249 487.036 660.89 483.837 664.499C480.639 668.108 478.562 672.03 477.606 676.264C476.666 680.465 476.838 684.258 478.122 687.642C478.473 688.567 478.923 689.385 479.472 690.096C480.035 690.774 480.685 691.349 481.421 691.821C481.861 692.1 482.71 692.391 483.967 692.694C485.383 693.048 486.298 693.369 486.714 693.657C487.12 693.92 487.421 694.308 487.615 694.819C487.809 695.33 487.785 695.855 487.543 696.392C487.316 696.896 486.935 697.249 486.4 697.453C485.012 697.979 483.216 697.505 481.013 696.029C478.834 694.544 477.181 692.317 476.053 689.346C474.501 685.256 474.217 680.837 475.201 676.091C476.2 671.311 478.501 666.914 482.103 662.901C485.705 658.888 490.196 655.86 495.577 653.818C499.96 652.155 503.611 651.758 506.531 652.627C509.476 653.488 511.42 655.159 512.362 657.643C513.258 660.004 513.309 662.45 512.514 664.98C511.711 667.486 509.949 669.853 507.23 672.083C509.502 671.611 511.416 671.553 512.972 671.909C514.518 672.242 515.856 672.904 516.984 673.896C518.137 674.879 519.019 676.174 519.629 677.781C520.627 680.41 520.795 683.202 520.133 686.155C519.486 689.074 517.949 691.886 515.521 694.59C513.108 697.26 510.271 699.215 507.008 700.453C506.059 700.813 503.989 701.487 500.798 702.475C499.285 702.966 497.713 703.521 496.082 704.14C493.599 705.082 491.469 706.113 489.693 707.233L489.479 705.016C491.98 703.9 493.563 702.603 494.228 701.125C494.907 699.614 495.02 696.827 494.565 692.766L491.917 669.496C491.795 668.512 491.645 667.789 491.47 667.326C491.331 666.961 491.053 666.705 490.635 666.557C490.232 666.376 489.799 666.373 489.336 666.548C489.142 666.622 488.907 666.739 488.634 666.899ZM498.64 678.184L499.564 686.231C500.056 690.39 500.251 693.658 500.151 696.036C500.102 697.447 499.837 698.732 499.357 699.889C501.752 699.593 503.74 699.144 505.323 698.544C509.583 696.927 512.298 694.392 513.467 690.94C514.661 687.479 514.643 684.13 513.414 680.892C512.804 679.285 511.868 678.066 510.606 677.236C509.359 676.372 507.978 675.963 506.464 676.009C504.973 676.045 502.366 676.77 498.64 678.184Z" fill="#91AD2A"/>
<path d="M569.72 614.442L570.05 615.391C568.556 616.968 567.439 618.458 566.699 619.861C565.959 621.264 565.158 623.464 564.296 626.461C561.995 634.402 559.693 640.845 557.388 645.789C559.391 646.453 561.336 647.386 563.222 648.59C565.108 649.793 569.002 652.849 574.903 657.757C580.186 662.135 584.356 664.704 587.412 665.466C590.469 666.228 592.94 666.004 594.825 664.795C596.644 663.628 597.264 661.869 596.684 659.519C596.348 658.126 596.238 657.206 596.354 656.76C596.524 656.157 596.849 655.7 597.332 655.391C597.858 655.053 598.42 654.94 599.017 655.052C599.629 655.186 600.096 655.505 600.42 656.009C601.263 657.324 601.301 659.094 600.532 661.32C599.763 663.546 598.184 665.425 595.794 666.958C593.734 668.279 591.435 669.012 588.897 669.155C586.38 669.284 583.631 668.711 580.649 667.438C577.666 666.164 573.856 663.673 569.219 659.965C564.86 656.449 561.748 654.13 559.882 653.006C558.003 651.86 555.749 650.831 553.121 649.918L558.178 665.469C559.206 668.616 560.004 670.826 560.574 672.1C562.473 671.779 564.014 671.24 565.197 670.48C565.482 670.298 565.874 670.016 566.372 669.634L566.999 671.552C566.574 671.856 566.307 672.042 566.198 672.113C565.474 672.577 564.395 673.161 562.959 673.865C561.458 674.611 560.258 675.273 559.359 675.849C557.54 677.016 554.883 679.216 551.387 682.448L550.572 680.743C552.409 678.977 553.523 677.458 553.914 676.186C554.291 674.893 554.225 673.295 553.717 671.394C552.601 667.097 550.69 660.79 547.983 652.471L542.23 634.674C538.059 637.721 535.261 640.908 533.837 644.235C532.715 646.779 532.668 648.852 533.694 650.452C534.06 651.022 534.798 651.569 535.908 652.095C536.919 652.56 537.578 653.034 537.888 653.517C538.267 654.108 538.386 654.775 538.242 655.517C538.085 656.236 537.711 656.786 537.119 657.166C536.439 657.601 535.608 657.655 534.624 657.327C533.662 656.985 532.822 656.255 532.105 655.137C530.151 652.09 529.906 648.38 531.37 644.007C532.842 639.598 537.338 634.982 544.856 630.159L546.993 628.788C547.798 632.696 548.464 635.471 548.992 637.113L552.752 648.762C553.98 647.108 555.197 644.858 556.403 642.011C557.617 639.129 558.687 636.215 559.614 633.27C561.306 627.853 562.193 624.654 562.275 623.673C562.288 623.355 562.245 623.12 562.147 622.966C562.035 622.791 561.706 622.785 561.161 622.949C560.624 623.077 559.301 623.786 557.19 625.078L556.437 622.963C559.411 621.426 561.797 620.081 563.595 618.928C565.436 617.747 567.478 616.252 569.72 614.442Z" fill="#91AD2A"/>
<path d="M615.627 582.964L614.153 584.418C613.369 583.325 612.703 582.501 612.154 581.945C611.423 581.203 610.633 581.031 609.783 581.43C608.933 581.792 606.477 583.975 602.415 587.978L598.381 592.009L607.412 607.35L613.171 601.674C614.989 599.883 615.974 598.656 616.126 597.994C616.278 597.296 615.917 596.317 615.042 595.058L616.628 593.496C618.246 596.325 620.149 599.313 622.336 602.459L620.917 603.857C620.151 602.894 619.53 602.172 619.055 601.689C618.854 601.485 618.477 601.363 617.925 601.322C617.649 601.302 617.307 601.437 616.9 601.729C616.308 602.13 615.483 602.851 614.426 603.893L608.722 609.514C613.287 617.447 616.443 624.081 618.19 629.416C619.385 627.178 620.65 625.401 621.986 624.084C624.211 621.891 627.285 619.556 631.207 617.08C633.297 615.788 634.648 614.84 635.26 614.237C636.077 613.433 636.534 612.58 636.633 611.678C636.731 610.777 636.525 610.066 636.013 609.547C635.72 609.25 635.124 608.887 634.225 608.456C633.62 608.139 633.116 607.776 632.714 607.368C632.293 606.942 632.086 606.397 632.09 605.734C632.114 605.053 632.367 604.475 632.849 603.999C633.424 603.433 634.116 603.189 634.926 603.269C635.754 603.33 636.534 603.731 637.265 604.473C638.819 606.05 639.485 608.117 639.264 610.675C639.061 613.215 637.829 615.6 635.566 617.83C634.379 619 632.776 620.379 630.757 621.966C626.331 625.451 623.07 628.226 620.974 630.292C618.229 632.998 615.239 636.383 612.006 640.447L610.943 638.478C612.528 635.709 613.378 633.994 613.494 633.331C613.591 632.651 613.495 631.904 613.206 631.092C612.36 628.453 610.027 623.786 606.209 617.092C602.409 610.38 598.335 603.353 593.987 596.01C591.762 598.204 590.177 600.807 589.235 603.82C588.292 606.834 588.105 609.742 588.674 612.545C589.225 615.33 590.423 617.659 592.27 619.532C593.056 620.329 593.815 620.952 594.549 621.399C595.301 621.828 596.485 622.306 598.102 622.834C599.094 623.136 599.791 623.49 600.193 623.899C600.595 624.307 600.775 624.842 600.734 625.505C600.711 626.149 600.449 626.718 599.948 627.211C599.225 627.924 598.293 628.129 597.154 627.826C595.481 627.391 593.749 626.264 591.958 624.446C588.119 620.551 586.148 615.602 586.044 609.598C585.94 603.594 588.708 597.813 594.346 592.256L603.889 582.851C607.19 579.597 609.419 576.98 610.575 575C612.868 578.81 614.552 581.465 615.627 582.964Z" fill="#91AD2A"/>
<path d="M137.788 167.765L138.383 168.574C137.419 170.522 136.789 172.274 136.495 173.833C136.201 175.391 136.082 177.729 136.14 180.847C136.279 189.114 135.974 195.949 135.226 201.352C137.336 201.397 139.469 201.717 141.626 202.313C143.782 202.908 148.403 204.683 155.488 207.637C161.824 210.266 166.566 211.495 169.711 211.324C172.857 211.153 175.152 210.212 176.598 208.501C177.994 206.851 178.068 204.987 176.823 202.911C176.091 201.679 175.715 200.833 175.695 200.372C175.68 199.746 175.857 199.213 176.227 198.776C176.63 198.298 177.134 198.025 177.738 197.956C178.362 197.904 178.902 198.071 179.36 198.458C180.553 199.466 181.11 201.148 181.03 203.501C180.95 205.855 179.994 208.115 178.161 210.283C176.581 212.152 174.599 213.529 172.215 214.412C169.848 215.276 167.052 215.538 163.827 215.198C160.602 214.859 156.228 213.599 150.704 211.42C145.504 209.342 141.847 208.041 139.734 207.516C137.6 206.974 135.143 206.654 132.363 206.554L141.772 219.929C143.68 222.634 145.094 224.511 146.013 225.561C147.733 224.696 149.047 223.727 149.955 222.653C150.174 222.394 150.465 222.01 150.828 221.499L151.992 223.147C151.676 223.562 151.476 223.819 151.392 223.919C150.837 224.575 149.977 225.451 148.812 226.546C147.597 227.701 146.645 228.687 145.955 229.502C144.56 231.153 142.667 234.037 140.278 238.155L138.997 236.765C140.233 234.536 140.851 232.757 140.85 231.427C140.83 230.079 140.297 228.572 139.252 226.904C136.921 223.126 133.238 217.66 128.204 210.506L117.469 195.19C114.378 199.33 112.642 203.199 112.26 206.797C111.937 209.559 112.502 211.554 113.953 212.781C114.47 213.218 115.337 213.524 116.553 213.7C117.655 213.847 118.425 214.106 118.863 214.476C119.4 214.93 119.709 215.532 119.791 216.283C119.852 217.017 119.656 217.653 119.202 218.19C118.681 218.806 117.902 219.103 116.865 219.079C115.845 219.035 114.828 218.584 113.813 217.727C111.049 215.39 109.723 211.916 109.836 207.305C109.945 202.658 112.883 196.924 118.65 190.102L120.289 188.163C122.208 191.661 123.661 194.117 124.648 195.531L131.67 205.559C132.357 203.616 132.858 201.107 133.173 198.032C133.485 194.92 133.651 191.82 133.669 188.733C133.692 183.058 133.599 179.739 133.389 178.777C133.308 178.47 133.198 178.258 133.059 178.14C132.9 178.005 132.584 178.097 132.111 178.413C131.636 178.693 130.58 179.761 128.943 181.617L127.6 179.817C129.991 177.473 131.875 175.486 133.254 173.855C134.666 172.184 136.178 170.154 137.788 167.765Z" fill="#473E42"/>
<path d="M171.94 149.324L171.151 147.559C173.358 145.563 175.557 143.176 177.746 140.398C178.685 143.071 179.497 145.181 180.182 146.729L183.901 154.884C187.527 152.038 189.544 148.999 189.953 145.765C190.366 142.495 189.591 139.61 187.63 137.111C186.263 135.369 184.496 134.488 182.329 134.468C180.182 134.432 177.797 135.442 175.175 137.5C171.467 140.41 168.624 144.064 166.647 148.463C164.67 152.861 163.856 157.224 164.206 161.551C164.56 165.841 165.855 169.41 168.089 172.257C168.7 173.036 169.373 173.683 170.109 174.198C170.849 174.677 171.64 175.032 172.484 175.264C172.987 175.398 173.884 175.423 175.174 175.338C176.631 175.254 177.601 175.287 178.083 175.438C178.55 175.568 178.952 175.849 179.289 176.279C179.627 176.709 179.761 177.217 179.69 177.802C179.624 178.35 179.365 178.801 178.915 179.155C177.747 180.071 175.892 180.154 173.348 179.402C170.826 178.634 168.584 177 166.622 174.501C163.922 171.059 162.333 166.926 161.858 162.102C161.387 157.242 162.273 152.359 164.515 147.455C166.757 142.55 170.142 138.322 174.669 134.769C178.357 131.875 181.724 130.407 184.771 130.367C187.838 130.31 190.192 131.327 191.831 133.416C193.391 135.403 194.168 137.723 194.164 140.375C194.143 143.006 193.168 145.791 191.237 148.73C193.264 147.602 195.074 146.976 196.666 146.853C198.241 146.709 199.715 146.942 201.088 147.553C202.482 148.148 203.709 149.121 204.77 150.473C206.506 152.686 207.499 155.3 207.747 158.316C208 161.296 207.37 164.438 205.859 167.743C204.352 171.011 202.226 173.722 199.481 175.876C198.682 176.503 196.907 177.764 194.156 179.658C192.858 180.577 191.523 181.575 190.15 182.652C188.061 184.292 186.335 185.911 184.974 187.509L184.108 185.457C186.163 183.646 187.287 181.936 187.481 180.327C187.68 178.682 186.957 175.989 185.312 172.248L175.849 150.825C175.439 149.922 175.081 149.276 174.775 148.887C174.534 148.579 174.192 148.418 173.749 148.401C173.31 148.348 172.896 148.475 172.507 148.78C172.343 148.909 172.154 149.09 171.94 149.324ZM184.856 157.114L188.136 164.52C189.845 168.343 191.006 171.404 191.619 173.704C191.992 175.066 192.123 176.371 192.009 177.618C194.207 176.622 195.971 175.601 197.303 174.556C200.888 171.743 202.724 168.515 202.811 164.871C202.919 161.212 201.903 158.02 199.765 155.295C198.704 153.943 197.447 153.059 195.995 152.642C194.547 152.189 193.107 152.211 191.675 152.706C190.263 153.184 187.99 154.654 184.856 157.114Z" fill="#473E42"/>
<path d="M268.212 131.591L268.857 133.757C268.054 134.246 267.337 134.648 266.708 134.962C265.8 135.416 264.67 135.893 263.319 136.394C261.013 137.255 259.568 137.831 258.986 138.122C258.008 138.611 256.581 139.513 254.705 140.829C254.52 138.651 254.171 136.438 253.659 134.19C253.298 132.595 252.449 129.962 251.11 126.293C248.373 127.632 244.174 129.803 238.513 132.806C237.113 144.802 235.603 152.645 233.983 156.336C232.398 160.04 230.36 162.514 227.867 163.759C226.562 164.411 225.468 164.638 224.583 164.44C223.686 164.277 223.04 163.799 222.644 163.007C222.341 162.401 222.277 161.807 222.452 161.225C222.627 160.643 222.994 160.212 223.553 159.933C223.879 159.77 224.351 159.607 224.968 159.444C226.529 159.071 227.542 158.769 228.008 158.536C229.569 157.756 230.85 156.01 231.853 153.296C233.484 148.871 235 140.544 236.401 128.316C237.988 114.481 239.703 104.134 241.544 97.2746C236.047 100.662 232.704 102.944 231.515 104.12C229.873 105.727 228.871 107.392 228.509 109.116C228.148 110.839 228.287 112.342 228.928 113.623C229.137 114.042 229.585 114.56 230.272 115.178C231.029 115.877 231.506 116.424 231.704 116.82C231.96 117.333 231.989 117.886 231.791 118.48C231.593 119.074 231.215 119.51 230.655 119.79C229.863 120.186 229.077 120.215 228.297 119.877C227.529 119.504 226.847 118.723 226.254 117.535C225.416 115.858 225.038 114.024 225.12 112.032C225.213 110.006 225.814 108.061 226.92 106.198C228.016 104.311 229.647 102.478 231.813 100.696C232.92 99.7648 234.999 98.3911 238.051 96.575C240.683 94.9685 242.296 93.8858 242.891 93.3269C243.834 92.477 244.586 91.3591 245.145 89.9734C245.878 93.1879 246.628 95.9424 247.396 98.2369L254.763 119.796L260.419 135.048C262.364 134.629 264.024 134.076 265.398 133.39C266.307 132.936 267.245 132.336 268.212 131.591ZM250.133 123.551C246.525 113.534 244.192 106.068 243.133 101.153C242.13 106.545 241.535 109.928 241.349 111.302L239.021 129.103C240.989 128.207 243.767 126.862 247.355 125.07C248.24 124.627 249.166 124.121 250.133 123.551Z" fill="#473E42"/>
<path d="M293.008 85.2692L292.994 83.45C296.538 82.097 299.514 80.7384 301.92 79.3741C301.776 81.3044 301.73 83.7884 301.782 86.826L301.907 98.1761L305.434 97.449C307.061 97.0823 308.696 96.2005 310.337 94.8037C312.004 93.4 313.274 91.3896 314.148 88.7725C315.046 86.1485 315.144 83.5559 314.439 80.9948C313.742 78.4588 312.273 76.7021 310.032 75.7249C307.817 74.7407 304.838 74.7632 301.097 75.7923C296.829 76.9665 292.941 79.1836 289.436 82.4436C285.923 85.6786 283.505 89.2606 282.182 93.1897C280.878 97.0868 280.667 100.642 281.551 103.856C281.986 105.438 282.655 106.74 283.557 107.761C284.452 108.757 285.796 109.616 287.588 110.339C289.067 110.904 289.924 111.614 290.159 112.468C290.311 113.02 290.238 113.54 289.94 114.027C289.642 114.514 289.216 114.834 288.664 114.986C287.182 115.393 285.472 114.77 283.531 113.116C281.591 111.462 280.192 109.078 279.336 105.965C277.768 100.265 278.523 94.4665 281.6 88.5693C285.626 80.8177 292.46 75.6159 302.102 72.9637C305.768 71.9553 308.899 71.607 311.497 71.9188C314.12 72.2237 316.236 73.0459 317.847 74.3854C319.483 75.718 320.567 77.351 321.099 79.2844C321.776 81.7451 321.614 84.396 320.613 87.2372C319.63 90.0464 317.732 92.6212 314.918 94.9616C312.13 97.2951 308.777 99.0005 304.86 100.078C304.258 100.244 303.306 100.465 302.005 100.742L302.251 113.274C302.295 115.396 302.268 117.51 302.172 119.616C304.262 119.554 306.035 119.323 307.492 118.922C309.325 118.418 311.199 117.524 313.115 116.241L313.243 118.475C311.429 119.541 309.845 120.26 308.489 120.633C307.183 120.992 305.237 121.379 302.65 121.793C300.572 122.095 298.906 122.418 297.65 122.764C295.215 123.434 292.796 124.41 290.393 125.692L290.296 123.571C292.79 122.426 294.404 121.32 295.137 120.254C296.182 118.752 296.662 116.175 296.576 112.526L296.058 88.4008C296.019 87.2771 295.94 86.5019 295.823 86.075C295.712 85.6733 295.453 85.3666 295.043 85.1551C294.627 84.9185 294.193 84.8623 293.741 84.9866C293.565 85.035 293.321 85.1292 293.008 85.2692Z" fill="#473E42"/>
<path d="M383.711 66.523C383.098 66.8594 382.638 67.7632 382.33 69.2346L381.112 74.129C380.008 78.602 377.695 89.5848 374.175 107.077C375.679 107.567 377.537 107.768 379.749 107.683C380.035 107.672 380.49 107.641 381.114 107.591L380.562 109.489L379.937 109.513C379.287 109.538 377.825 109.49 375.553 109.37C373.778 109.282 371.667 109.285 369.221 109.38C365.812 109.511 362.803 109.875 360.194 110.471L360.582 108.384C362.885 107.956 364.613 107.486 365.766 106.972C366.919 106.458 367.669 105.973 368.016 105.517C368.388 105.034 368.788 103.897 369.214 102.109C369.665 100.293 370.678 95.8237 372.253 88.7004C373.854 81.5499 375.369 74.2204 376.799 66.7117L363.043 66.8129C361.885 69.9067 360.261 76.4456 358.171 86.4295C355.859 97.4123 353.085 104.556 349.851 107.86C346.642 111.138 343.424 112.838 340.197 112.963C338.323 113.035 336.629 112.684 335.113 111.908C333.625 111.158 332.857 110.171 332.81 108.948C332.784 108.272 332.983 107.704 333.409 107.244C333.86 106.784 334.385 106.542 334.983 106.519C335.998 106.48 337.067 107.155 338.189 108.545C339.256 109.859 340.258 110.498 341.195 110.462C343.355 110.378 345.252 108.559 346.887 105.004C348.522 101.448 350.763 93.3481 353.611 80.7028L356.716 66.979C350.107 67.2342 345.484 68.6636 342.848 71.2672C340.212 73.8709 338.956 76.7731 339.079 79.9738C339.115 80.8846 339.273 81.6082 339.554 82.1446C339.862 82.68 340.49 83.4246 341.439 84.3783C342.335 85.3079 342.798 86.1761 342.829 86.9828C342.857 87.7114 342.621 88.333 342.119 88.8475C341.617 89.336 341.002 89.5943 340.273 89.6225C338.972 89.6727 337.928 88.9572 337.141 87.4761C336.38 85.9939 335.962 84.29 335.888 82.3644C335.702 77.5502 337.592 73.1642 341.556 69.2062C345.52 65.2221 351.145 63.0895 358.432 62.8081C361.528 62.6885 366.024 62.6974 371.919 62.8346C376.955 62.979 383.914 63.01 392.798 62.9275C401.681 62.8451 407.463 62.7522 410.144 62.6487C413.813 62.507 415.607 61.3953 415.527 59.3135C415.521 59.1574 415.455 58.7951 415.328 58.2266C415.231 57.7352 415.18 57.4114 415.174 57.2553C415.145 56.5267 415.37 55.9316 415.847 55.4702C416.324 54.9827 416.874 54.7269 417.499 54.7027C419.294 54.6334 420.233 55.6527 420.314 57.7605C420.387 59.6601 419.45 61.3642 417.501 62.8728C415.578 64.3544 412.549 65.214 408.415 65.4519C407.088 65.5291 406.284 65.6123 406 65.7015C402.197 76.5334 398.915 90.0685 396.154 106.307C396.441 106.322 397.069 106.389 398.038 106.508C399.531 106.711 400.733 106.795 401.644 106.759C402.763 106.716 403.968 106.539 405.259 106.229L404.837 108.473C403.542 108.68 402.53 108.797 401.802 108.825C400.683 108.868 399.196 108.835 397.341 108.724C395.357 108.618 393.662 108.592 392.257 108.647C391.06 108.693 389.909 108.92 388.804 109.327C389.571 106.926 390.575 102.9 391.816 97.2488C394.339 85.6324 396.001 78.4014 396.804 75.5558C397.606 72.7103 398.782 69.4333 400.333 65.7248C393.859 66.1051 389.737 66.3294 387.967 66.3978L383.711 66.523Z" fill="#473E42"/>
<path d="M470.642 117.258L469.801 119.357C468.867 119.24 468.056 119.109 467.368 118.964C466.375 118.755 465.193 118.426 463.824 117.978C461.482 117.219 459.993 116.772 459.355 116.638C458.285 116.413 456.607 116.232 454.32 116.096C455.529 114.275 456.631 112.325 457.628 110.246C458.337 108.772 459.309 106.183 460.541 102.477C457.565 101.823 452.927 100.913 446.626 99.7458C438.071 108.27 432.012 113.474 428.448 115.358C424.904 117.273 421.769 117.944 419.043 117.369C417.616 117.069 416.617 116.566 416.047 115.86C415.446 115.175 415.237 114.399 415.42 113.533C415.559 112.87 415.878 112.365 416.377 112.018C416.876 111.67 417.432 111.561 418.043 111.69C418.4 111.765 418.871 111.931 419.455 112.187C420.909 112.866 421.891 113.259 422.401 113.366C424.108 113.726 426.198 113.154 428.67 111.652C432.699 109.201 439.063 103.622 447.763 94.9155C457.608 85.0663 465.384 78.0282 471.092 73.8011C464.679 73.0362 460.642 72.7448 458.98 72.9271C456.695 73.1643 454.875 73.8455 453.52 74.9707C452.165 76.0959 451.341 77.3593 451.045 78.7608C450.949 79.2195 450.978 79.9042 451.132 80.8149C451.29 81.8329 451.323 82.5585 451.232 82.9917C451.114 83.5523 450.793 84.0036 450.268 84.3456C449.744 84.6875 449.176 84.7941 448.564 84.6653C447.698 84.4829 447.064 84.0168 446.663 83.267C446.293 82.4971 446.245 81.4623 446.519 80.1627C446.905 78.328 447.749 76.6562 449.052 75.1474C450.385 73.6186 452.064 72.4686 454.09 71.6975C456.12 70.901 458.538 70.4787 461.342 70.4306C462.788 70.3891 465.271 70.6059 468.79 71.081C471.851 71.4594 473.788 71.6145 474.6 71.5461C475.868 71.4671 477.151 71.0588 478.451 70.3212C477.026 73.2946 475.902 75.9186 475.077 78.1932L467.442 99.6588L462.389 115.121C464.173 116.003 465.817 116.602 467.32 116.918C468.314 117.127 469.421 117.241 470.642 117.258ZM461.481 99.7207C464.883 89.6324 467.698 82.3343 469.924 77.8267C465.786 81.4262 463.217 83.7061 462.217 84.6663L449.326 97.1608C451.425 97.6827 454.437 98.3569 458.361 99.1833C459.329 99.3873 460.369 99.5664 461.481 99.7207Z" fill="#473E42"/>
<path d="M537.793 96.9743C532.535 95.2203 528.846 94.1365 526.725 93.7227C524.604 93.309 522.638 93.5169 520.827 94.3464C519.017 95.1759 517.794 96.3187 517.158 97.7747C516.971 98.2044 516.861 98.8807 516.827 99.8038C516.776 100.833 516.662 101.55 516.485 101.956C516.266 102.457 515.872 102.839 515.303 103.102C514.744 103.341 514.154 103.326 513.534 103.055C511.744 102.274 511.38 100.666 512.442 98.2316C513.452 95.9162 515.135 94.1079 517.493 92.8066C519.861 91.4814 522.48 90.9478 525.351 91.2057C528.246 91.474 531.825 92.3536 536.09 93.8447C539.011 94.8347 540.982 95.3962 542.004 95.5293C543.059 95.649 544.293 95.4911 545.705 95.0557C543.708 97.6792 541.405 101.135 538.796 105.424L528.987 121.558L520.91 135.679C522.43 136.882 523.919 137.801 525.375 138.436C526.377 138.873 527.439 139.209 528.559 139.441L527.31 141.326C526.563 141.085 525.796 140.793 525.008 140.45C524.101 140.054 522.506 139.216 520.223 137.936C519.021 137.241 518.157 136.779 517.632 136.55C516.486 136.05 514.879 135.534 512.81 135.001C515.618 132.276 518.289 128.725 520.824 124.347C527.346 113.044 532.35 105.155 535.836 100.68C530.589 103.591 525.082 106.899 519.317 110.607C508.477 117.612 501.041 122.281 497.012 124.614C493.006 126.958 489.44 128.556 486.312 129.408C483.185 130.26 480.415 130.16 478.005 129.108C475.355 127.952 474.431 126.456 475.233 124.618C475.504 123.997 475.919 123.567 476.478 123.328C477.036 123.089 477.59 123.089 478.139 123.328C478.497 123.485 478.937 123.747 479.458 124.117C480.72 125.065 481.602 125.649 482.103 125.867C484.275 126.815 487.584 126.198 492.03 124.018C496.5 121.848 502.715 118.152 510.675 112.931C522.502 105.163 531.541 99.8439 537.793 96.9743Z" fill="#473E42"/>
<path d="M609.785 198.612L607.916 199.924C606.825 199.15 606.019 198.527 605.497 198.056C604.666 197.306 603.626 196.243 602.376 194.868C601.029 193.407 599.834 192.205 598.79 191.262C597.959 190.511 596.977 189.87 595.844 189.338C598.643 187.831 602.335 185.55 606.918 182.496L617.004 175.815L608.915 169.036C607.473 167.874 605.966 166.706 604.394 165.532C598.42 169.505 593.62 172.101 589.994 173.318C586.369 174.535 583.133 174.912 580.289 174.448C577.446 174.021 575.203 173.066 573.561 171.583C571.956 170.134 570.933 168.508 570.491 166.705C570.149 165.414 570.344 164.362 571.077 163.55C571.514 163.067 572.044 162.809 572.67 162.778C573.312 162.726 573.866 162.91 574.33 163.329C575.083 164.01 575.376 165.24 575.209 167.018C575.116 168.092 575.127 168.857 575.243 169.312C575.395 169.765 575.654 170.158 576.022 170.489C577.529 171.851 580.04 171.907 583.553 170.659C587.086 169.428 594.465 165.162 605.691 157.86L618.114 149.816C614.249 146.325 610.764 144.336 607.66 143.849C604.575 143.379 602.309 143.946 600.86 145.55C600.371 146.091 600.013 147.013 599.784 148.315C599.55 149.507 599.214 150.345 598.778 150.828C598.272 151.388 597.669 151.686 596.971 151.722C596.308 151.756 595.707 151.528 595.166 151.039C594.489 150.429 594.197 149.586 594.29 148.512C594.401 147.418 595.014 146.253 596.131 145.016C598.156 142.774 600.757 141.527 603.934 141.273C607.11 141.019 610.568 141.93 614.306 144.008C616.451 145.208 620.18 148.208 625.495 153.008C621.517 154.538 615.419 158.084 607.202 163.647C612.305 168.255 616.49 171.701 619.76 173.987C626.503 169.901 631.507 167.332 634.772 166.281C638.055 165.21 640.934 164.898 643.409 165.343C645.903 165.806 648.136 166.928 650.107 168.708C651.808 170.244 652.816 171.751 653.131 173.228C653.483 174.704 653.283 175.857 652.533 176.688C652.096 177.171 651.574 177.419 650.966 177.432C650.359 177.444 649.794 177.215 649.272 176.744C648.596 176.133 648.268 174.96 648.291 173.226C648.294 171.474 647.957 170.293 647.281 169.682C645.831 168.373 643.188 168.424 639.351 169.837C632.51 172.361 620.464 179.852 603.213 192.309C603.507 192.644 603.91 193.131 604.422 193.769C605.349 194.957 606.15 195.856 606.827 196.467C607.619 197.183 608.605 197.898 609.785 198.612Z" fill="#473E42"/>
<path d="M649.161 247.937L647.13 248.931C646.516 248.219 646.002 247.579 645.588 247.01C644.991 246.189 644.334 245.153 643.617 243.903C642.388 241.77 641.582 240.44 641.199 239.914C640.556 239.029 639.431 237.771 637.824 236.138C639.942 235.595 642.067 234.887 644.2 234.012C645.714 233.393 648.17 232.122 651.569 230.197C649.797 227.718 646.964 223.934 643.069 218.845C631.007 219.44 623.022 219.242 619.115 218.253C615.201 217.3 612.425 215.697 610.786 213.443C609.928 212.264 609.524 211.221 609.573 210.316C609.587 209.404 609.951 208.688 610.667 208.167C611.215 207.769 611.79 207.608 612.393 207.685C612.996 207.761 613.482 208.052 613.849 208.558C614.064 208.853 614.302 209.291 614.565 209.873C615.189 211.351 615.654 212.301 615.961 212.722C616.987 214.133 618.921 215.109 621.762 215.651C626.396 216.531 634.858 216.655 647.15 216.022C661.058 215.308 671.546 215.295 678.615 215.981C674.368 211.117 671.567 208.195 670.211 207.217C668.356 205.862 666.548 205.148 664.789 205.075C663.029 205.002 661.57 205.387 660.412 206.23C660.033 206.506 659.595 207.033 659.099 207.812C658.535 208.674 658.073 209.235 657.715 209.496C657.252 209.833 656.711 209.952 656.093 209.855C655.474 209.757 654.981 209.456 654.614 208.95C654.093 208.234 653.935 207.464 654.14 206.638C654.381 205.819 655.038 205.018 656.112 204.237C657.629 203.134 659.376 202.459 661.353 202.212C663.368 201.971 665.385 202.242 667.405 203.027C669.446 203.797 671.523 205.103 673.637 206.947C674.738 207.885 676.436 209.709 678.73 212.42C680.748 214.752 682.081 216.165 682.731 216.659C683.724 217.449 684.951 218.006 686.41 218.33C683.36 219.582 680.767 220.776 678.63 221.912L658.579 232.729L644.467 240.821C645.201 242.67 646.019 244.216 646.923 245.459C647.521 246.28 648.266 247.106 649.161 247.937ZM654.113 228.781C663.398 223.572 670.378 220.041 675.051 218.187C669.568 218.086 666.133 218.057 664.747 218.099L646.806 218.736C648.014 220.529 649.798 223.048 652.157 226.291C652.739 227.091 653.391 227.921 654.113 228.781Z" fill="#473E42"/>
</svg>
