<svg width="49" height="49" viewBox="0 0 49 49" fill="none" xmlns="http://www.w3.org/2000/svg">
<path d="M48.4641 24.5C48.4641 37.7453 37.7453 48.4641 24.5 48.4641C11.2547 48.4641 0.53595 37.7453 0.53595 24.5C0.53595 11.2547 11.2547 0.53595 24.5 0.53595C37.7453 0.53595 48.4641 11.2547 48.4641 24.5ZM24.5 1.99064C12.0203 1.99064 1.99064 12.0203 1.99064 24.5C1.99064 36.9797 12.0969 47.0094 24.5 47.0094C36.9797 47.0094 47.0094 36.9031 47.0094 24.5C47.0094 12.0203 36.9797 1.99064 24.5 1.99064Z" fill="url(#paint0_linear)"/>
<path d="M24.5 1.9906C12.0203 1.9906 1.9906 12.0203 1.9906 24.5C1.9906 36.9797 12.0968 47.0093 24.5 47.0093C36.9797 47.0093 47.0093 36.9031 47.0093 24.5C47.0093 12.0203 36.9797 1.9906 24.5 1.9906ZM24.5 45.5547C12.8625 45.5547 3.44529 36.1375 3.44529 24.5C3.44529 12.8625 12.8625 3.44529 24.5 3.44529C36.1375 3.44529 45.5547 12.8625 45.5547 24.5C45.5547 36.1375 36.1375 45.5547 24.5 45.5547Z" fill="url(#paint1_linear)"/>
<path opacity="0.4" d="M24.5 48.4641C37.7453 48.4641 48.4641 37.7453 48.4641 24.5C48.4641 11.2547 37.7453 0.535937 24.5 0.535937C11.2547 0.535937 0.535937 11.2547 0.535937 24.5C0.535937 37.7453 11.2547 48.4641 24.5 48.4641ZM24.5 0C37.975 0 49 11.025 49 24.5C49 37.975 37.975 49 24.5 49C11.025 49 0 37.975 0 24.5C0 11.025 11.025 0 24.5 0Z" fill="url(#paint2_linear)"/>
<path d="M1.68439 24.5766C1.68439 12.0203 11.8672 1.68439 24.5 1.68439C37.1328 1.68439 47.3156 11.9438 47.3156 24.5766C47.3156 37.1328 37.1328 47.3156 24.5 47.3156C11.8672 47.3156 1.68439 37.1328 1.68439 24.5766ZM8.8047 8.8047C4.74689 12.8625 2.22032 18.4516 2.22032 24.5766C2.22032 30.7016 4.74689 36.2906 8.72814 40.2719C12.7859 44.2531 18.375 46.7797 24.5 46.7797C30.625 46.7797 36.2141 44.3297 40.1953 40.2719C44.2531 36.2906 46.7031 30.7016 46.7031 24.5766C46.7031 18.4516 44.1766 12.8625 40.1953 8.8047C36.2141 4.74689 30.625 2.22032 24.5 2.22032C18.375 2.22032 12.7859 4.74689 8.8047 8.8047Z" fill="white"/>
<path opacity="0.4" d="M24.5 45.6313C18.8344 45.6313 13.5516 43.411 9.57034 39.4297C5.58909 35.4485 3.36877 30.1657 3.36877 24.5C3.36877 18.8344 5.58909 13.5516 9.57034 9.57034C13.5516 5.58909 18.8344 3.36877 24.5 3.36877C30.1657 3.36877 35.4485 5.58909 39.4297 9.57034C43.411 13.5516 45.6313 18.8344 45.6313 24.5C45.6313 30.1657 43.411 35.4485 39.4297 39.4297C35.4485 43.411 30.1657 45.6313 24.5 45.6313ZM24.5 45.0188C29.936 45.0188 35.1422 42.875 38.9703 39.0469C42.875 35.1422 44.9422 30.0125 44.9422 24.5766C44.9422 19.1406 42.7985 13.9344 38.9703 10.1063C35.0657 6.20159 29.936 4.1344 24.5 4.1344C19.0641 4.1344 13.8578 6.27815 10.0297 10.1063C6.12503 13.8578 3.98127 19.0641 3.98127 24.5C3.98127 29.936 6.12503 35.1422 9.95315 38.9703C13.8578 42.875 19.0641 45.0188 24.5 45.0188Z" fill="url(#paint3_linear)"/>
<path d="M43.1047 34.4531C42.7219 34.1469 27.9453 22.4328 27.9453 22.4328L24.5 2.75623C24.2703 2.83279 23.9641 3.06248 23.8109 3.36873L21.3609 22.5093L6.12499 34.2234C6.12499 34.2234 5.81874 34.6062 5.66561 34.8359C5.58905 34.989 5.58905 35.2187 5.58905 35.4484L24.4234 27.7156L43.2578 35.4484C43.4109 35.0656 43.2578 34.6828 43.1047 34.4531Z" fill="white"/>
<path d="M24.6531 25.1125L24.5 28.6344L41.8031 35.6016C42.4156 35.9078 42.875 35.7547 43.3344 35.4484L24.8828 25.0359C24.8063 24.9594 24.6531 25.0359 24.6531 25.1125Z" fill="#565F64"/>
<path d="M24.6531 25.1125C24.6531 25.1125 25.6484 26.8734 26.7969 28.0984C28.4047 29.8594 30.5485 31.0844 30.5485 31.0844L41.8031 35.6016C42.4156 35.9078 42.875 35.7547 43.3344 35.4484L24.8828 25.0359C24.8063 24.9594 24.6531 25.0359 24.6531 25.1125Z" fill="url(#paint4_linear)"/>
<path d="M43.2578 34.7594C43.2578 34.6828 43.1813 34.6063 43.1047 34.4531L27.3328 22.8922L25.1891 24.2703C25.1891 24.2703 25.3422 24.3469 25.4188 24.2703C25.6485 24.1938 26.1078 24.1172 26.5672 24.2703C26.95 24.4235 43.2578 34.836 43.2578 34.836C43.2578 34.836 43.2578 34.836 43.2578 34.7594Z" fill="#A4AAAE" fill-opacity="0.6"/>
<path d="M42.7219 34.0703L28.0219 22.4328L27.3328 22.8922L43.1047 34.5297C43.0281 34.3765 42.875 34.2234 42.7219 34.0703Z" fill="#333E46"/>
<path d="M24.8828 23.9641C24.8063 24.0406 24.8063 24.0406 24.8063 24.0406C24.8063 24.0406 24.8063 24.1938 24.9594 24.1172C25.036 24.0406 27.2563 22.8922 28.0219 22.4328L25.3422 4.05782C25.2656 3.36876 24.9594 3.06251 24.4235 2.83282L24.7297 24.1172L24.8828 23.9641Z" fill="#565F64"/>
<path d="M23.5812 4.05782V5.05314L21.8969 21.9734C21.8969 22.2031 21.9734 22.4328 22.2031 22.5859L23.1984 23.3516L23.8875 4.67032L23.964 3.21564C23.7343 3.36876 23.6578 3.67501 23.5812 4.05782Z" fill="#A4AAAE" fill-opacity="0.6"/>
<path d="M22.6625 23.6578L21.7438 22.8922L6.20159 34.1469C6.20159 34.1469 5.74221 34.4531 5.66565 34.7594L6.20159 34.4531L22.5094 24.1938C22.8157 24.0406 22.8922 23.8875 22.6625 23.6578Z" fill="#A4AAAE" fill-opacity="0.6"/>
<path d="M24.2703 25.1125C24.2703 25.0359 24.1937 24.9594 24.1172 25.0359L5.58905 35.525C6.04843 35.8312 6.5078 35.9078 7.1203 35.6781L24.4234 28.7109L24.2703 25.1125Z" fill="#565F64"/>
<path d="M24.8063 24.0406L24.8828 23.9641C24.8063 24.0406 24.8063 24.0406 24.8063 24.0406C24.8063 24.0406 24.8063 24.1172 24.8828 24.1172H24.9594C25.036 24.0406 27.2563 22.8922 28.0219 22.4328L27.7156 20.2125L25.3422 4.05784C25.3422 3.75159 25.2656 3.5219 25.1125 3.36877C25.1125 3.36877 26.261 18.8344 26.261 20.5188C26.261 22.7391 24.8063 24.0406 24.8063 24.0406Z" fill="url(#paint5_linear)"/>
<path d="M24.2703 25.1125C24.2703 25.0359 24.1937 24.9594 24.1172 25.0359L5.58905 35.525C6.04843 35.8312 6.5078 35.9078 7.1203 35.6781L24.4234 28.7109L24.2703 25.1125Z" fill="url(#paint6_linear)" fill-opacity="0.8"/>
<path opacity="0.8" d="M7.12032 35.6016L24.4235 28.6344L24.2703 25.2656C23.9641 26.1844 23.4281 27.1797 21.9734 27.9453C20.9016 28.5578 10.6422 33.6109 6.9672 35.3719C6.73751 35.525 6.43126 35.6016 6.27814 35.6781C6.58439 35.8312 6.81407 35.7547 7.12032 35.6016Z" fill="url(#paint7_linear)"/>
<path d="M24.8828 23.9641C24.8063 24.0406 24.8063 24.0406 24.8063 24.0406C24.8063 24.0406 24.8063 24.1938 24.9594 24.1172C25.036 24.0406 27.2563 22.8922 28.0219 22.4328L25.3422 4.05782C25.2656 3.36876 24.9594 3.06251 24.4235 2.83282L24.7297 24.1172L24.8828 23.9641Z" fill="url(#paint8_linear)"/>
<path d="M24.8828 23.9641C24.8063 24.0406 24.8063 24.0406 24.8063 24.0406C24.8063 24.0406 24.8063 24.1938 24.9594 24.1172C25.036 24.0406 27.2563 22.8922 28.0219 22.4328L25.3422 4.05782C25.2656 3.36876 24.9594 3.06251 24.4235 2.83282L24.7297 24.1172L24.8828 23.9641Z" fill="url(#paint9_linear)"/>
<path d="M3.9047 33.9938C3.36876 32.7688 0.306262 26.7969 3.67501 15.3125H2.37345C1.68439 17.6094 1.14845 18.9875 0.8422 21.0547C0.8422 21.0547 0.689075 21.8203 0.612512 22.6625C0.53595 23.5047 0.53595 23.9641 0.53595 24.5C0.53595 29.0938 1.68439 31.7734 1.68439 31.7734C2.90939 35.6016 5.05314 39.0469 7.96251 41.65C10.4891 43.8703 14.3938 45.5547 17.6094 46.1672C17.0735 46.0906 7.88595 42.1859 3.9047 33.9938Z" fill="url(#paint10_linear)"/>
<path d="M24.8063 24.9594H24.1172C24.1938 24.9594 24.2703 24.9594 24.2703 25.036L24.4234 28.5578H24.5L24.6531 25.036C24.6531 24.9594 24.7297 24.8828 24.8063 24.9594Z" fill="url(#paint11_linear)"/>
<path d="M32.1562 1.76093C40.1953 4.82343 47.775 13.2453 47.775 23.8875C47.775 36.75 37.5156 47.2391 24.5 47.2391V48.4641C37.5156 48.4641 48.4641 37.7453 48.4641 24.5C48.4641 13.9344 41.7266 5.05311 32.1562 1.76093Z" fill="url(#paint12_linear)"/>
<path d="M45.0187 15.4656C39.6594 3.13904 27.5625 2.44998 26.8734 2.37341C26.8734 2.37341 26.8734 2.37341 26.7969 2.37341C36.0609 4.05779 41.9562 10.1062 44.0234 16.4609V16.5375C44.9422 18.9875 45.4016 21.5906 45.4781 24.4234C45.5547 27.1031 44.9422 30.089 43.7937 32.8453C43.7172 33.2281 43.6406 33.6875 43.5641 33.6875H44.7891C48.4641 26.7969 46.8562 19.8297 45.0187 15.4656Z" fill="url(#paint13_linear)"/>
<path d="M1.68439 24.5766C1.68439 12.0203 11.8672 1.68439 24.5 1.68439C37.1328 1.68439 47.3156 11.9438 47.3156 24.5766C47.3156 37.1328 37.1328 47.3156 24.5 47.3156C11.8672 47.3156 1.68439 37.1328 1.68439 24.5766ZM8.8047 8.8047C4.74689 12.8625 2.22032 18.4516 2.22032 24.5766C2.22032 30.7016 4.74689 36.2906 8.72814 40.2719C12.7859 44.2531 18.375 46.7797 24.5 46.7797C30.625 46.7797 36.2141 44.3297 40.1953 40.2719C44.2531 36.2906 46.7031 30.7016 46.7031 24.5766C46.7031 18.4516 44.1766 12.8625 40.1953 8.8047C36.2141 4.74689 30.625 2.22032 24.5 2.22032C18.375 2.22032 12.7859 4.74689 8.8047 8.8047Z" fill="#FBFBFB"/>
<path d="M6.04846 34.3L21.6672 23.0453C22.5094 23.5047 23.8875 24.1172 24.0406 24.1172C24.1938 24.1938 24.1938 24.0407 24.1938 24.0407L22.2797 22.4328C22.05 22.2797 21.9735 22.05 21.9735 21.8203L23.811 3.36877C23.7344 3.44534 23.7344 3.59846 23.6578 3.67502C23.5813 3.82815 23.5813 3.90471 23.5813 4.05784L20.9016 22.5094L6.20159 34.0703C6.12502 34.1469 6.04846 34.2235 6.04846 34.3Z" fill="#333F47"/>
<defs>
<linearGradient id="paint0_linear" x1="6.12501" y1="9.11095" x2="42.875" y2="39.8891" gradientUnits="userSpaceOnUse">
<stop stop-color="white"/>
<stop offset="0.1" stop-color="#CDD0D0"/>
<stop offset="0.2" stop-color="#A5ACAF"/>
<stop offset="0.3" stop-color="#98A0A4"/>
<stop offset="0.4" stop-color="#828A8F"/>
<stop offset="0.5" stop-color="#667075"/>
<stop offset="0.6" stop-color="#535C63"/>
<stop offset="0.7" stop-color="#475158"/>
<stop offset="0.8" stop-color="#434D54"/>
<stop offset="1" stop-color="#475157"/>
</linearGradient>
<linearGradient id="paint1_linear" x1="7.27341" y1="10.0297" x2="41.7265" y2="38.9703" gradientUnits="userSpaceOnUse">
<stop stop-color="#0B1F2A"/>
<stop offset="0.2" stop-color="#333F47"/>
<stop offset="0.5" stop-color="#81898D"/>
<stop offset="0.7" stop-color="#B3B8B8"/>
<stop offset="0.8" stop-color="#DEE0DD"/>
<stop offset="1" stop-color="#FBFBFB"/>
</linearGradient>
<linearGradient id="paint2_linear" x1="32.9009" y1="47.5507" x2="16.1337" y2="1.46012" gradientUnits="userSpaceOnUse">
<stop stop-color="#E1E3E1"/>
<stop offset="0.1" stop-color="#C1C5C4"/>
<stop offset="0.3" stop-color="#9BA1A2"/>
<stop offset="0.5" stop-color="#7D8487"/>
<stop offset="0.7" stop-color="#687074" stop-opacity="0"/>
<stop offset="0.8" stop-color="#5B6469" stop-opacity="0"/>
<stop offset="1" stop-color="#576065" stop-opacity="0"/>
</linearGradient>
<linearGradient id="paint3_linear" x1="13.9344" y1="6.20159" x2="35.0657" y2="42.7985" gradientUnits="userSpaceOnUse">
<stop stop-color="#E1E3E1"/>
<stop offset="0.1" stop-color="#C1C5C4"/>
<stop offset="0.3" stop-color="#9BA1A2"/>
<stop offset="0.5" stop-color="#7D8487"/>
<stop offset="0.7" stop-color="#687074" stop-opacity="0"/>
<stop offset="0.8" stop-color="#5B6469" stop-opacity="0"/>
<stop offset="1" stop-color="#576065" stop-opacity="0"/>
</linearGradient>
<linearGradient id="paint4_linear" x1="34.0703" y1="30.1656" x2="32.7688" y2="32.3094" gradientUnits="userSpaceOnUse">
<stop stop-color="#27343C"/>
<stop offset="1" stop-color="#00111E" stop-opacity="0"/>
</linearGradient>
<linearGradient id="paint5_linear" x1="30.3188" y1="22.2797" x2="28.175" y2="18.8344" gradientUnits="userSpaceOnUse">
<stop offset="0.1" stop-color="#02131F"/>
<stop offset="0.9" stop-color="#02131F" stop-opacity="0"/>
</linearGradient>
<linearGradient id="paint6_linear" x1="24.5" y1="27.8687" x2="21.2844" y2="28.7875" gradientUnits="userSpaceOnUse">
<stop offset="0.2" stop-color="#02131F"/>
<stop offset="0.9" stop-color="#02131F" stop-opacity="0"/>
</linearGradient>
<linearGradient id="paint7_linear" x1="15.925" y1="32.0797" x2="15.4656" y2="30.9312" gradientUnits="userSpaceOnUse">
<stop stop-color="#02131F"/>
<stop offset="0.1" stop-color="#02131F"/>
<stop offset="1" stop-color="#02131F" stop-opacity="0"/>
</linearGradient>
<linearGradient id="paint8_linear" x1="27.2563" y1="13.1688" x2="24.6531" y2="13.475" gradientUnits="userSpaceOnUse">
<stop offset="0.3" stop-color="#02131F"/>
<stop offset="0.8" stop-color="#02131F" stop-opacity="0"/>
</linearGradient>
<linearGradient id="paint9_linear" x1="27.3328" y1="13.0922" x2="25.5719" y2="13.3219" gradientUnits="userSpaceOnUse">
<stop offset="0.4" stop-color="#27343C"/>
<stop offset="1" stop-color="#3B474E" stop-opacity="0"/>
</linearGradient>
<linearGradient id="paint10_linear" x1="-0.306238" y1="25.1891" x2="21.0547" y2="37.5156" gradientUnits="userSpaceOnUse">
<stop stop-color="#25323B" stop-opacity="0"/>
<stop offset="0.1" stop-color="#27343C"/>
</linearGradient>
<linearGradient id="paint11_linear" x1="24.5" y1="28.6344" x2="24.5" y2="24.9594" gradientUnits="userSpaceOnUse">
<stop offset="0.3" stop-color="#A5ABAF"/>
<stop offset="1" stop-color="#A5ABAF" stop-opacity="0"/>
</linearGradient>
<linearGradient id="paint12_linear" x1="36.5203" y1="1.76093" x2="36.5203" y2="48.4641" gradientUnits="userSpaceOnUse">
<stop stop-color="#6B7378"/>
<stop offset="0.2" stop-color="#333F47"/>
<stop offset="0.5" stop-color="#27343C"/>
<stop offset="0.8" stop-color="#333F47"/>
<stop offset="1" stop-color="#434D54"/>
</linearGradient>
<linearGradient id="paint13_linear" x1="43.8703" y1="6.20154" x2="33.5344" y2="21.3609" gradientUnits="userSpaceOnUse">
<stop offset="0.7" stop-color="#49545B"/>
<stop offset="0.8" stop-color="white" stop-opacity="0"/>
</linearGradient>
</defs>
</svg>
