<svg width="103" height="65" viewBox="0 0 103 65" fill="none" xmlns="http://www.w3.org/2000/svg">
<path d="M42.8503 0.771226C42.9671 0.798238 43.0886 0.853157 43.1827 0.9405L73.4775 23.129C73.664 23.2786 73.7898 23.4979 73.8351 23.725C73.8806 23.953 73.8481 24.2126 73.6819 24.4209C73.5328 24.6079 73.3141 24.7344 73.0872 24.7799C72.8609 24.8253 72.6037 24.7934 72.3965 24.6298L42.8643 2.98306L2.43083 63.8823L2.4133 63.8998C2.22988 64.0838 2.00372 64.25 1.68439 64.25C1.51721 64.25 1.31054 64.1752 1.18601 64.1128L1.17208 64.1058L1.15912 64.0972C0.940339 63.9509 0.801405 63.7403 0.761694 63.5014C0.722347 63.2647 0.783723 63.0215 0.9243 62.8101L41.8752 1.16009C42.008 0.960283 42.2262 0.789307 42.4845 0.772983C42.6085 0.740145 42.7377 0.745164 42.8503 0.771226Z" fill="#343434"/>
<path fill-rule="evenodd" clip-rule="evenodd" d="M65.9444 42.7655L66.4541 41.2833H70.36L70.8193 42.7674L70.8209 42.7724C70.8975 43.0027 71.0537 43.1647 71.2221 43.2491C71.2924 43.2843 71.355 43.3069 71.416 43.3191C71.4751 43.331 71.5234 43.3309 71.5519 43.3309H71.5549C71.6669 43.3309 71.7715 43.3119 71.8705 43.2678C71.9562 43.2296 72.0281 43.1769 72.0916 43.1173C72.2866 42.9998 72.3568 42.7923 72.3568 42.5829C72.3568 42.5344 72.3458 42.4907 72.3394 42.4671C72.3324 42.4413 72.3236 42.415 72.3173 42.396L72.3164 42.3933C72.3091 42.3713 72.3046 42.3575 72.3016 42.3465V42.3254L69.0871 31.4327L69.0828 31.422C68.9588 31.1113 68.7297 30.8219 68.3539 30.8219C67.978 30.8219 67.7489 31.1113 67.6249 31.422L67.6205 31.4331L64.4842 42.1918C64.4402 42.2599 64.4238 42.3311 64.4164 42.3758C64.4061 42.438 64.4061 42.4968 64.4061 42.5245V42.5275C64.4061 42.7276 64.507 42.8981 64.6447 43.0361C64.805 43.1968 65.0356 43.2756 65.208 43.2756C65.377 43.2756 65.5412 43.242 65.6781 43.1504C65.8167 43.0578 65.9029 42.9222 65.9444 42.7655ZM68.3539 34.367L69.7689 39.6765H66.9388L68.3539 34.367Z" fill="#343434"/>
<path d="M34.2465 30.9326C34.1344 30.9326 34.0299 30.9516 33.9309 30.9957C33.8329 31.0394 33.7531 31.102 33.6831 31.1721C33.6132 31.2422 33.5509 31.3222 33.5074 31.4202C33.4635 31.5193 33.4446 31.6239 33.4446 31.736V42.4722C33.4446 42.5843 33.4635 42.6889 33.5074 42.7879C33.5509 42.886 33.6132 42.966 33.6831 43.0361C33.7531 43.1062 33.8329 43.1688 33.9309 43.2124C34.0299 43.2566 34.1344 43.2756 34.2465 43.2756L34.2656 43.2756C34.4126 43.276 34.6059 43.2764 34.7833 43.1167C34.8898 43.0493 34.9531 42.9459 34.9892 42.8554C35.0307 42.7513 35.0484 42.6359 35.0484 42.5275V36.7453H38.7428V42.5829C38.7428 42.695 38.7617 42.7996 38.8057 42.8986C38.8491 42.9966 38.9114 43.0767 38.9814 43.1468L39.01 43.1755L39.053 43.1971C39.1648 43.2532 39.3198 43.3309 39.5447 43.3309C39.6568 43.3309 39.7613 43.3119 39.8603 43.2678C39.9469 43.2292 40.0193 43.1758 40.0833 43.1156C40.1887 43.0482 40.2515 42.9454 40.2874 42.8554C40.3289 42.7513 40.3466 42.6359 40.3466 42.5275V31.736C40.3466 31.6239 40.3277 31.5193 40.2838 31.4203C40.2403 31.3222 40.178 31.2422 40.1081 31.1721C40.0381 31.102 39.9583 31.0394 39.8603 30.9957C39.7613 30.9516 39.6568 30.9326 39.5447 30.9326C39.4327 30.9326 39.3281 30.9516 39.2291 30.9957C39.1312 31.0394 39.0513 31.102 38.9814 31.1721C38.9114 31.2422 38.8491 31.3222 38.8057 31.4202C38.7617 31.5193 38.7428 31.6239 38.7428 31.736V35.1939H35.0484V31.736C35.0484 31.6239 35.0295 31.5193 34.9855 31.4202C34.9421 31.3222 34.8798 31.2422 34.8098 31.1721C34.6496 31.0114 34.4189 30.9326 34.2465 30.9326Z" fill="#343434"/>
<path fill-rule="evenodd" clip-rule="evenodd" d="M55.3841 30.9326C54.859 30.9326 54.4718 31.3219 54.4718 31.8467V42.4722C54.4718 42.6946 54.5184 42.9128 54.6759 43.0707C54.8335 43.2288 55.0515 43.2756 55.2737 43.2756H58.9714C59.6458 43.2756 60.2059 43.0272 60.6386 42.5934C61.0712 42.1596 61.3186 41.5982 61.3186 40.9226V37.6022C61.3186 37.1632 61.1924 36.7922 61.0164 36.4391C60.8434 36.0921 60.6159 35.8539 60.4082 35.6451C60.6636 35.2454 60.7667 34.8347 60.7667 34.337V33.2856C60.7667 32.6688 60.5217 32.051 60.0867 31.6148C59.654 31.181 59.0939 30.9326 58.4195 30.9326H55.3841ZM55.9652 41.7241V32.5394H58.3091C58.6148 32.5394 58.8087 32.591 58.96 32.7427C59.1354 32.9186 59.2181 33.1324 59.2181 33.3409V34.3924C59.2181 34.5484 59.1334 34.7614 59.0152 34.8799L59.0054 34.8897L58.9967 34.9006C58.8363 35.1017 58.5875 35.1939 58.3091 35.1939H57.4261C57.201 35.1939 57.0119 35.3066 56.8851 35.4533C56.7589 35.5993 56.6794 35.7948 56.6794 35.9973C56.6794 36.201 56.7602 36.3892 56.8904 36.5197C57.0135 36.6432 57.1964 36.7268 57.3971 36.69H58.7507C59.0277 36.69 59.2754 36.7813 59.436 36.9805C59.5835 37.1784 59.6596 37.3468 59.6596 37.5468V40.8673C59.6596 41.0673 59.5835 41.2357 59.436 41.4337C59.2754 41.6328 59.0277 41.7241 58.7507 41.7241H55.9652Z" fill="#343434"/>
<path fill-rule="evenodd" clip-rule="evenodd" d="M46.2776 30.9881C45.6033 30.9881 45.0431 31.2365 44.6105 31.6704C44.1779 32.1041 43.9304 32.6655 43.9304 33.3411V40.9782C43.9304 41.5949 44.1755 42.2127 44.6105 42.6489C45.0431 43.0827 45.6033 43.3312 46.2776 43.3312H48.3749C49.0492 43.3312 49.6094 43.0827 50.042 42.6489C50.5379 42.1517 50.7221 41.5861 50.7221 40.9228V33.3411C50.7221 32.6655 50.4746 32.1041 50.042 31.6704C49.6094 31.2365 49.0492 30.9881 48.3749 30.9881H46.2776ZM45.5215 32.9911C45.5479 32.9115 45.5913 32.8369 45.6697 32.7554C45.8535 32.6214 46.0718 32.5396 46.2776 32.5396H48.3749C48.4969 32.5396 48.59 32.552 48.6709 32.5806C48.7493 32.6084 48.8285 32.6558 48.9153 32.7429C49.0907 32.9188 49.1735 33.1326 49.1735 33.3411V40.9228C49.1735 41.0598 49.151 41.1627 49.1121 41.2504C49.0728 41.3392 49.0109 41.4252 48.9153 41.5211L48.9028 41.5337L48.8921 41.5479C48.7834 41.6933 48.5895 41.7797 48.3749 41.7797H46.2776C46.1413 41.7797 46.0389 41.7572 45.9517 41.7183C45.8673 41.6807 45.7853 41.6225 45.6947 41.5337C45.5608 41.3493 45.479 41.1299 45.479 40.9228V33.3411C45.479 33.1869 45.4922 33.0791 45.5215 32.9911Z" fill="#343434"/>
<path d="M77.8462 30.9881C77.1719 30.9881 76.6117 31.2365 76.1791 31.6704C75.7465 32.1041 75.499 32.6655 75.499 33.3411V36.7169C75.499 37.3925 75.7465 37.9539 76.1791 38.3877C76.5982 38.8079 77.137 39.0542 77.7834 39.0692L75.9168 42.0737L75.9116 42.0841C75.9014 42.1046 75.8908 42.1233 75.8781 42.1454L75.8749 42.1509C75.8637 42.1705 75.8489 42.1961 75.8357 42.2225C75.8028 42.2885 75.775 42.3684 75.775 42.4724C75.775 42.5845 75.7939 42.6891 75.8378 42.7881C75.8812 42.8862 75.9436 42.9662 76.0135 43.0363C76.0834 43.1064 76.1633 43.169 76.2612 43.2127C76.3603 43.2568 76.4648 43.2758 76.5769 43.2758C76.849 43.2758 77.0301 43.0928 77.1692 42.952L77.1954 42.9256L77.2151 42.9059L79.8857 38.6659L79.8912 38.6547C79.9014 38.6342 79.912 38.6156 79.9247 38.5935L79.9279 38.5879C79.9392 38.5684 79.954 38.5427 79.9671 38.5164C80 38.4504 80.0279 38.3705 80.0279 38.2665C80.0279 37.8352 79.6781 37.5184 79.226 37.5184H77.9566C77.6875 37.5184 77.4766 37.4311 77.3058 37.2598C77.1445 37.0981 77.1028 36.948 77.1028 36.7169V33.3411C77.1028 33.1224 77.1924 32.9119 77.3058 32.7982C77.4726 32.6309 77.7365 32.5396 77.9566 32.5396H80.5765V42.5277C80.5765 42.6361 80.5942 42.7515 80.6357 42.8556C80.6718 42.9461 80.7351 43.0495 80.8416 43.1169C81.019 43.2766 81.2122 43.2762 81.3593 43.2758L81.3784 43.2758C81.4904 43.2758 81.595 43.2568 81.694 43.2127C81.7919 43.169 81.8718 43.1064 81.9417 43.0363C82.0117 42.9662 82.074 42.8861 82.1174 42.7881C82.1614 42.6891 82.1803 42.5845 82.1803 42.4724V31.4309H82.0719C82.0335 31.342 81.9774 31.2634 81.9141 31.2C81.7963 31.0818 81.6255 30.9881 81.4336 30.9881H77.8462Z" fill="#343434"/>
<path fill-rule="evenodd" clip-rule="evenodd" d="M86.9178 63.2362L87.3762 61.7041H91.2768L91.7362 63.1882L91.7378 63.1932C91.8143 63.4234 91.9706 63.5854 92.1389 63.6698C92.2092 63.7051 92.2719 63.7277 92.3329 63.7399C92.3919 63.7517 92.4403 63.7517 92.4687 63.7517H92.4717C92.5838 63.7517 92.6883 63.7327 92.7873 63.6885C92.8731 63.6503 92.9449 63.5976 93.0084 63.5381C93.2035 63.4206 93.2736 63.2131 93.2736 63.0036C93.2736 62.9552 93.2627 62.9115 93.2562 62.8879C93.2526 62.8745 93.2485 62.861 93.2445 62.8484C93.2404 62.8356 93.2365 62.8238 93.2333 62.8141L93.2242 62.7865C93.2218 62.7789 93.2199 62.7728 93.2184 62.7673V62.7466L90.0593 51.9092L90.0548 51.8981C89.9309 51.5874 89.7018 51.298 89.3259 51.298C88.9501 51.298 88.7209 51.5874 88.597 51.8981L88.5925 51.9092L85.4563 62.668C85.4123 62.7361 85.3959 62.8072 85.3885 62.852C85.3781 62.9141 85.3782 62.973 85.3782 63.0006V63.0036C85.3782 63.2037 85.4791 63.3742 85.6167 63.5122C85.777 63.6729 86.0077 63.7517 86.1801 63.7517C86.3491 63.7517 86.5132 63.7181 86.6502 63.6265C86.7904 63.5328 86.8769 63.3952 86.9178 63.2362ZM90.7961 60.1526H87.9661L89.3811 54.8431L90.7961 60.1526Z" fill="#343434"/>
<path fill-rule="evenodd" clip-rule="evenodd" d="M34.2465 51.4087C33.7607 51.4087 33.4446 51.8145 33.4446 52.2121V63.0036C33.4446 63.2082 33.4959 63.4127 33.6558 63.5607C33.8115 63.7048 34.0239 63.7517 34.2465 63.7517H37.9442C38.6186 63.7517 39.1787 63.5033 39.6114 63.0695C40.044 62.6357 40.2914 62.0743 40.2914 61.3987V59.2958C40.2914 58.679 40.0464 58.0613 39.6114 57.625C39.1787 57.1912 38.6186 56.9428 37.9442 56.9428H34.938V53.0155H38.3857C38.4978 53.0155 38.6023 52.9965 38.7014 52.9524C38.7993 52.9087 38.8792 52.8461 38.9491 52.776C39.1093 52.6154 39.1876 52.3844 39.1876 52.2121L39.1877 52.1929C39.188 52.0456 39.1884 51.8523 39.0294 51.6748C38.9623 51.5681 38.8592 51.5045 38.7685 51.4682C38.6645 51.4265 38.5492 51.4087 38.4409 51.4087H34.2465ZM35.0484 62.2002V58.3836H37.9442C38.1376 58.3836 38.298 58.455 38.4847 58.6422C38.6601 58.8181 38.7428 59.0319 38.7428 59.2404V61.3434C38.7428 61.4803 38.7203 61.5833 38.6815 61.671C38.6421 61.7598 38.5803 61.8457 38.4847 61.9416L38.4721 61.9542L38.4615 61.9684C38.3527 62.1139 38.1589 62.2002 37.9442 62.2002H35.0484Z" fill="#343434"/>
<path fill-rule="evenodd" clip-rule="evenodd" d="M76.5771 51.4087C76.0521 51.4087 75.6649 51.798 75.6649 52.3228V62.893C75.6649 63.1154 75.7114 63.3335 75.8689 63.4915C76.0266 63.6496 76.2446 63.6964 76.4668 63.6964H80.1645C80.8389 63.6964 81.399 63.448 81.8316 63.0141C82.2642 62.5804 82.5117 62.019 82.5117 61.3434V58.0229C82.5117 57.584 82.3855 57.2129 82.2095 56.8599L82.2052 56.8513L82.2003 56.8431C82.0371 56.5703 81.8289 56.3503 81.5862 56.1446C81.8526 55.7374 81.9598 55.3205 81.9598 54.8131V53.7617C81.9598 53.1449 81.7148 52.5271 81.2797 52.0909C80.8471 51.6571 80.287 51.4087 79.6126 51.4087H76.5771ZM77.1583 62.2002V53.0155H79.5022C79.8078 53.0155 80.0018 53.0671 80.153 53.2188C80.3285 53.3947 80.4112 53.6085 80.4112 53.817V54.8685C80.4112 55.0245 80.3265 55.2375 80.2082 55.356L80.1985 55.3658L80.1898 55.3767C80.0294 55.5778 79.7806 55.67 79.5022 55.67H78.6192C78.394 55.67 78.205 55.7828 78.0782 55.9294C77.952 56.0754 77.8725 56.2709 77.8725 56.4734C77.8725 56.6771 77.9533 56.8653 78.0834 56.9958C78.2066 57.1193 78.3895 57.2029 78.5902 57.1661H79.9437C80.2821 57.1661 80.5267 57.2612 80.6842 57.4566C80.8317 57.6545 80.9079 57.8229 80.9079 58.0229V61.3434C80.9079 61.5396 80.8346 61.7054 80.6926 61.8985C80.471 62.1144 80.2106 62.2002 79.9437 62.2002H77.1583Z" fill="#343434"/>
<path d="M98.3219 51.4087C97.6476 51.4087 97.0874 51.6571 96.6548 52.0909C96.2222 52.5247 95.9747 53.0861 95.9747 53.7617V57.1375C95.9747 57.8131 96.2222 58.3744 96.6548 58.8082C97.0739 59.2285 97.6127 59.4747 98.2591 59.4897L96.3925 62.4942L96.3873 62.5047C96.3771 62.5252 96.3665 62.5438 96.3538 62.5659L96.3506 62.5716C96.3394 62.591 96.3245 62.6169 96.3114 62.643C96.2785 62.7091 96.2507 62.789 96.2507 62.893C96.2507 63.0051 96.2696 63.1096 96.3135 63.2087C96.3569 63.3067 96.4193 63.3868 96.4892 63.4569C96.5591 63.527 96.639 63.5896 96.7369 63.6332C96.836 63.6773 96.9405 63.6964 97.0526 63.6964C97.3247 63.6964 97.5058 63.5133 97.6449 63.3726L97.6711 63.3462L97.6908 63.3265L100.361 59.0864L100.367 59.0753C100.372 59.065 100.377 59.0551 100.383 59.045C100.388 59.0351 100.394 59.025 100.4 59.014L100.404 59.0085C100.411 58.9962 100.419 58.9814 100.428 58.9656C100.433 58.9563 100.438 58.9467 100.443 58.937C100.476 58.8709 100.504 58.791 100.504 58.687C100.504 58.2557 100.154 57.939 99.7017 57.939H98.4323C98.1632 57.939 97.9523 57.8517 97.7815 57.6804C97.6202 57.5187 97.5785 57.3686 97.5785 57.1375V53.7617C97.5785 53.543 97.6681 53.3324 97.7815 53.2188C97.9483 53.0515 98.2122 52.9602 98.4323 52.9602H101.052V62.9483C101.052 63.0566 101.07 63.1721 101.111 63.2761C101.148 63.3667 101.211 63.4701 101.317 63.5374C101.495 63.6971 101.688 63.6967 101.835 63.6964L101.854 63.6964C101.966 63.6964 102.071 63.6773 102.17 63.6332C102.268 63.5896 102.348 63.527 102.417 63.4569C102.487 63.3868 102.55 63.3067 102.593 63.2087C102.637 63.1096 102.656 63.0051 102.656 62.893V51.8514H102.548C102.509 51.7626 102.453 51.6839 102.39 51.6205C102.272 51.5024 102.101 51.4087 101.909 51.4087H98.3219Z" fill="#343434"/>
<path fill-rule="evenodd" clip-rule="evenodd" d="M46.2776 51.4643C45.6033 51.4643 45.0431 51.7127 44.6105 52.1465C44.1779 52.5803 43.9304 53.1416 43.9304 53.8172V61.399C43.9304 62.0157 44.1755 62.6335 44.6105 63.0697C45.0431 63.5035 45.6033 63.7519 46.2776 63.7519H48.3749C49.0462 63.7519 49.6043 63.5058 50.0361 63.0756C50.5413 62.629 50.7221 62.0555 50.7221 61.399V53.8172C50.7221 53.1416 50.4746 52.5803 50.042 52.1465C49.6094 51.7127 49.0492 51.4643 48.3749 51.4643H46.2776ZM45.5215 53.4672C45.5479 53.3876 45.5913 53.3131 45.6697 53.2315C45.8534 53.0975 46.0718 53.0157 46.2776 53.0157H48.3749C48.4969 53.0157 48.59 53.0281 48.6709 53.0568C48.7493 53.0845 48.8285 53.1319 48.9153 53.219C49.0907 53.3949 49.1735 53.6087 49.1735 53.8172V61.399C49.1735 61.5359 49.151 61.6389 49.1121 61.7266C49.0728 61.8153 49.0109 61.9013 48.9153 61.9972L48.9028 62.0098L48.8921 62.024C48.7834 62.1694 48.5895 62.2558 48.3749 62.2558H46.2776C46.1413 62.2558 46.0389 62.2333 45.9517 62.1944C45.8673 62.1568 45.7853 62.0986 45.6947 62.0098C45.5608 61.8254 45.479 61.606 45.479 61.399V53.8172C45.479 53.6631 45.4922 53.5552 45.5215 53.4672Z" fill="#343434"/>
<path d="M55.1633 51.4643C54.9714 51.4643 54.8006 51.5579 54.6828 51.6761C54.5649 51.7942 54.4718 51.9652 54.4718 52.157V63.0039C54.4718 63.116 54.4907 63.2205 54.5346 63.3196C54.5781 63.4176 54.6404 63.4977 54.7104 63.5678C54.7803 63.6379 54.8601 63.7005 54.9581 63.7441C55.0571 63.7882 55.1617 63.8073 55.2737 63.8073C55.4986 63.8073 55.6536 63.7295 55.7654 63.6734L55.7721 63.6701C55.9021 63.6049 55.9761 63.488 56.0164 63.387C56.0579 63.283 56.0756 63.1675 56.0756 63.0592V53.0157H58.861C59.1301 53.0157 59.341 53.103 59.5119 53.2743C59.6731 53.436 59.7148 53.5861 59.7148 53.8172V57.193C59.7148 57.4117 59.6252 57.6222 59.5119 57.7359C59.341 57.9073 59.1301 57.9945 58.861 57.9945H57.4261C57.0049 57.9945 56.702 58.3276 56.629 58.6937L56.6242 58.7179V58.7426C56.6242 58.9451 56.7038 59.1405 56.8299 59.2865C56.9567 59.4332 57.1458 59.546 57.3709 59.546H58.9162C59.5906 59.546 60.1507 59.2976 60.5834 58.8638C61.016 58.43 61.2634 57.8686 61.2634 57.193V53.8172C61.2634 53.1416 61.016 52.5803 60.5834 52.1465C60.1507 51.7127 59.5906 51.4643 58.9162 51.4643H55.1633Z" fill="#343434"/>
<path fill-rule="evenodd" clip-rule="evenodd" d="M67.3053 51.4643C66.6309 51.4643 66.0707 51.7127 65.6381 52.1465C65.2055 52.5803 64.958 53.1416 64.958 53.8172V61.399C64.958 62.0157 65.2031 62.6335 65.6381 63.0697C66.0707 63.5035 66.6309 63.7519 67.3053 63.7519H69.4025C70.0738 63.7519 70.6319 63.5058 71.0637 63.0756C71.5689 62.629 71.7497 62.0555 71.7497 61.399V53.8172C71.7497 53.1416 71.5022 52.5803 71.0696 52.1465C70.637 51.7127 70.0768 51.4643 69.4025 51.4643H67.3053ZM66.5491 53.4672C66.5755 53.3876 66.6189 53.3131 66.6973 53.2315C66.8811 53.0975 67.0995 53.0157 67.3053 53.0157H69.4025C69.5245 53.0157 69.6177 53.0281 69.6985 53.0568C69.7769 53.0845 69.8561 53.1319 69.9429 53.219C70.1184 53.3949 70.2011 53.6087 70.2011 53.8172V61.399C70.2011 61.5359 70.1786 61.6389 70.1397 61.7266C70.1004 61.8153 70.0386 61.9013 69.9429 61.9972L69.9304 62.0098L69.9197 62.024C69.811 62.1694 69.6172 62.2558 69.4025 62.2558H67.3053C67.1689 62.2558 67.0665 62.2333 66.9793 62.1944C66.8949 62.1568 66.8129 62.0986 66.7223 62.0098C66.5885 61.8254 66.5066 61.606 66.5066 61.399V53.8172C66.5066 53.6631 66.5198 53.5552 66.5491 53.4672Z" fill="#343434"/>
</svg>
