<svg width="73" height="128" viewBox="0 0 73 128" fill="none" xmlns="http://www.w3.org/2000/svg">
<path d="M14.5961 76.4841H69.6035V26.539V0" stroke="#FB9115" stroke-width="1.7" stroke-miterlimit="10"/>
<path d="M69.6038 26.539V0M70.8757 100.812H30.0991C25.8507 100.812 22.6504 99.9001 20.0224 98.1189C16.742 95.8971 13.4796 91.8933 13.3225 84.7386C13.2096 79.6173 14.7596 74.6021 17.645 70.3694C20.4877 66.2048 26.506 61.177 34.4656 57.6288C45.4221 52.7446 69.6039 43.4249 69.6039 23.1302" stroke="#352B8A" stroke-width="1.7" stroke-miterlimit="10"/>
<path d="M56.2781 25.6678L1 26L1.00003 75.5V102" stroke="#FB9115" stroke-width="1.7" stroke-miterlimit="10"/>
<path d="M0 1H40.7596C45.008 1 48.2252 2.2508 50.8533 4.03124C54.1336 6.25305 57.3953 10.2568 57.5524 17.4115C57.6653 22.5329 56.1145 27.548 53.2292 31.7807C50.3865 35.9453 44.3681 40.9724 36.4078 44.5205C25.4513 49.4048 1.00075 58.2022 1 78.5V102.066" stroke="#352B8A" stroke-width="1.7" stroke-miterlimit="10"/>
<path d="M0.417236 111.851V127H1.84497V121.289H5.78174C8.6687 121.289 10.6528 119.378 10.6528 116.565C10.6528 113.751 8.6792 111.851 5.79224 111.851H0.417236ZM1.84497 113.132H5.4563C7.79736 113.132 9.18311 114.413 9.18311 116.565C9.18311 118.717 7.78687 120.008 5.4563 120.008H1.84497V113.132Z" fill="#352B8A"/>
<path d="M18.9883 111.61C14.7681 111.61 12.1121 114.633 12.1121 119.431C12.1121 124.229 14.7681 127.241 18.9883 127.241C23.219 127.241 25.875 124.229 25.875 119.431C25.875 114.633 23.2085 111.61 18.9883 111.61ZM18.9883 112.943C22.3057 112.943 24.4053 115.452 24.4053 119.431C24.4053 123.399 22.3057 125.908 18.9883 125.908C15.6709 125.908 13.5818 123.399 13.5818 119.431C13.5818 115.452 15.6709 112.943 18.9883 112.943Z" fill="#352B8A"/>
<path d="M37.1289 125.698H29.5388V111.851H28.1111V127H37.1289V125.698Z" fill="#352B8A"/>
<path d="M40.5828 127V111.851H39.155V127H40.5828Z" fill="#352B8A"/>
<path d="M42.6824 122.885C42.8398 125.488 45.0654 127.241 48.2358 127.241C51.5847 127.241 53.7263 125.499 53.7263 122.843C53.7263 120.733 52.4456 119.567 49.4011 118.801L47.7634 118.381C45.5378 117.814 44.593 117.048 44.593 115.746C44.593 114.077 46.1467 112.912 48.2463 112.912C50.3984 112.912 51.9102 114.045 52.0466 115.757H53.4849C53.4009 113.353 51.2383 111.61 48.2883 111.61C45.3069 111.61 43.1023 113.353 43.1023 115.799C43.1023 117.793 44.3516 118.979 47.1545 119.693L49.0337 120.176C51.2803 120.743 52.2566 121.583 52.2566 123C52.2566 124.701 50.6294 125.94 48.3618 125.94C45.9893 125.94 44.2781 124.701 44.1206 122.885H42.6824Z" fill="#352B8A"/>
<path d="M57.2537 127V111.851H55.8259V127H57.2537Z" fill="#352B8A"/>
<path d="M60.0881 111.851V127H65.0747C69.6204 127 72.2554 124.218 72.2554 119.42C72.2554 114.633 69.6099 111.851 65.0747 111.851H60.0881ZM61.5264 113.153H64.9907C68.7175 113.153 70.7961 115.4 70.7961 119.431C70.7961 123.452 68.7175 125.698 64.9907 125.698H61.5264V113.153Z" fill="#352B8A"/>
</svg>
