<svg width="205" height="201" viewBox="0 0 205 201" fill="none" xmlns="http://www.w3.org/2000/svg">
<path d="M9.5625 55.0087L42.9814 38.9646V34.7136L55.0407 27.9136L62.373 31.6848L77.4612 24.1425L79.6392 25.4695L86.6528 22.1745L95.687 24.6186L125.597 8.46956L131.603 13.1966L154.184 0.5L167.679 13.0391V20.6338L183.191 33.5965L166.986 21.3798V15.1608L154.342 5.3882L131.494 16.2779L125.492 12.027L95.6345 27.2239L86.4954 23.7677L79.4817 26.9053L77.3038 25.6307L62.3205 32.6407L54.8833 29.4543L43.8848 35.5121L43.8324 39.6543L9.5625 55.0087Z" fill="#291716"/>
<path d="M9.5625 56.8155L45.2119 41.09V36.5205L54.8308 31.3136L58.4595 32.978L62.2681 34.8186L54.9358 32.3782L46.7001 36.7866L46.5389 41.5661L9.5625 56.8155Z" fill="#291716"/>
<path d="M9.5625 56.8155V113.54L10.1285 56.5831L9.5625 56.8155Z" fill="#291716"/>
<path opacity="0.6" d="M18.2539 53.2318L18.6325 120.482L18.8574 52.9844L18.2539 53.2318Z" fill="#291716"/>
<path d="M11.5459 64.2377L45.7445 50.6528V52.2909L11.5459 64.2377Z" fill="#FC8103"/>
<path d="M45.8495 55.4922L11.5459 68.841L45.7633 56.8155L45.8495 55.4922Z" fill="#FC8103"/>
<path d="M45.8495 59.9156L11.5459 73.3057L45.8495 61.2426V59.9156Z" fill="#FC8103"/>
<path d="M45.7633 67.9902L34.3562 72.0986L33.0817 71.675L11.5459 79.326L33.2954 72.4548L34.6411 72.7359L45.7633 68.8411V67.9902Z" fill="#291716"/>
<path d="M46.0444 73.3057L11.5459 85.0613L46.0707 74.419L46.0444 73.3057Z" fill="#291716"/>
<path d="M46.1157 78.1939L11.5459 90.0208L45.9919 79.4497L46.1157 78.1939Z" fill="#291716"/>
<path d="M11.5459 94.2717L45.7633 82.7259V84.1091L11.5459 94.2717Z" fill="#291716"/>
<path d="M46.1157 87.0293L11.5459 98.665L46.0519 88.0789L46.1157 87.0293Z" fill="#291716"/>
<path d="M46.0707 91.8276L11.5459 103.696L46.0707 93.1884V91.8276Z" fill="#291716"/>
<path d="M46.0707 96.9632L11.5459 107.804L46.0707 98.5826V96.9632Z" fill="#291716"/>
<path d="M46.0707 103.609L11.5459 112.902L46.0032 104.843L46.0707 103.609Z" fill="#291716"/>
<path d="M45.542 42.0084L46.0705 139.045L46.6028 39.7068L45.542 42.0084Z" fill="#291716"/>
<path d="M53.8447 32.9593L54.6169 139.045L55.1492 31.8459L53.8447 32.9593Z" fill="#291716"/>
<path opacity="0.6" d="M56.0518 37.7425L60.5651 35.5646L62.743 36.2543L77.6213 29.2969L79.267 29.8779L86.8129 26.2118L96.162 30.5152L95.4722 30.89L86.5468 26.9577L79.4806 30.6239L77.5126 30.0391L62.9042 36.944L60.3552 36.2543L56.0518 37.7425Z" fill="#291716"/>
<path opacity="0.6" d="M60.083 36.348L60.4091 134.97L60.6715 36.3405L60.3567 36.2543L60.083 36.348Z" fill="#291716"/>
<path opacity="0.6" d="M62.2686 36.7716L62.5872 134.281L62.9058 36.9441L62.2686 36.7716Z" fill="#291716"/>
<path d="M124.801 24.7085L94.0771 36.6779L125.202 25.6307L124.801 24.7085Z" fill="#FC8103"/>
<path d="M125.201 29.3119L93.6523 41.4986L125.201 30.4477V29.3119Z" fill="#FC8103"/>
<path opacity="0.6" d="M77.251 30.1628L77.6221 133.43L78.0982 30.2116L77.5134 30.0391L77.251 30.1628Z" fill="#291716"/>
<path opacity="0.6" d="M78.8447 30.4327L79.4295 130.187L79.6394 30.5414L79.482 30.6239L78.8447 30.4327Z" fill="#291716"/>
<path opacity="0.6" d="M86.3203 27.0777L86.4965 127.481L86.9726 27.1414L86.549 26.9577L86.3203 27.0777Z" fill="#291716"/>
<path d="M8.35938 125.299L86.6455 107.804L91.8786 109.007L125.811 99.7259L133.886 104.119V107.804L125.245 103.34L91.7361 110.353L86.4618 109.292L8.35938 125.299Z" fill="#291716"/>
<path d="M125.201 34.0576L93.6523 45.9595L125.598 35.051L125.201 34.0576Z" fill="#FC8103"/>
<path d="M56.7432 66.6106L86.8296 56.8155L91.7365 58.3561L125.527 44.0664L133.815 50.6527V51.0613L125.388 45.3222L91.3129 59.0646L86.8258 57.7901L56.7432 66.6106Z" fill="#291716"/>
<path d="M90.8838 33.068L91.5211 135.289L92.5857 33.3491L90.8838 33.068Z" fill="#291716"/>
<path d="M90.8838 33.068L125.386 15.993L134.24 22.7255V139.825L132.895 22.7968L125.457 17.5524L92.5857 33.634L90.8838 33.068Z" fill="#291716"/>
<path d="M124.8 17.8748L125.598 139.825V16.9864L124.8 17.8748Z" fill="#291716"/>
<path d="M125.201 52.2647L93.6523 63.1731L125.598 53.258L125.201 52.2647Z" fill="#291716"/>
<path d="M125.201 56.8005L93.083 67.6377L125.201 57.7189V56.8005Z" fill="#291716"/>
<path d="M125.201 61.1189L93.083 71.8887L125.201 62.2172V61.1189Z" fill="#291716"/>
<path d="M125.201 65.9358L93.083 77.058L125.201 66.9292V65.9358Z" fill="#291716"/>
<path d="M125.201 70.6142L93.083 81.6276L125.599 71.4989L125.201 70.6142Z" fill="#291716"/>
<path d="M125.201 77.5529L93.083 87.7566L125.599 78.9024L125.201 77.5529Z" fill="#291716"/>
<path d="M163.994 36.6779L183.618 51.275L163.356 38.8071L163.994 36.6779Z" fill="#FC8103"/>
<path d="M125.224 82.3735L94.0771 91.7938L125.599 83.2919L125.224 82.3735Z" fill="#291716"/>
<path d="M163.853 62.2173L183.619 73.2345L163.853 64.0953V62.2173Z" fill="#FC8103"/>
<path d="M125.257 87.7566L93.6523 97.3905L125.598 88.4651L125.257 87.7566Z" fill="#291716"/>
<path d="M125.405 110.211L92.5859 116.707L125.413 111.751L125.405 110.211Z" fill="#291716"/>
<path d="M125.435 114.994L92.8711 121.423L125.443 116.43L125.435 114.994Z" fill="#291716"/>
<path d="M183.19 57.2953L163.356 42.5595L163.638 45.0411L183.19 57.2953Z" fill="#FC8103"/>
<path d="M131.434 20.5926V18.5458L151.95 8.55952V10.6213L131.902 18.9694V20.9937L131.434 20.5926Z" fill="#291716"/>
<path d="M183.619 64.7326L163.853 51.7698V54.0378L183.619 64.7326Z" fill="#FC8103"/>
<path d="M151.032 5.08454L153.386 140.672L154.29 2.67793L151.032 5.08454Z" fill="#291716"/>
<path d="M154.067 7.99723L164.63 15.5694L164.488 117.389L162.576 15.993L153.774 10.2539L154.067 7.99723Z" fill="#291716"/>
<path d="M183.618 36.0444L163.356 21.451V23.2204L183.618 36.0444Z" fill="#291716"/>
<path d="M164.641 116.707V119.774L183.327 127.031C183.338 127.036 183.351 127.036 183.362 127.032C183.373 127.028 183.382 127.019 183.387 127.008C183.392 126.997 183.393 126.985 183.389 126.974C183.384 126.962 183.376 126.953 183.365 126.948L164.641 116.707Z" fill="#291716"/>
<path d="M183.619 34.0576L181.917 141.879L183.619 161.076L184.608 141.947L183.619 34.0576Z" fill="#FC8103"/>
<path d="M0 145.418L183.262 141.808L204.6 143.641L183.262 144.901L0 145.418Z" fill="#FC8103"/>
<path d="M51.1809 163.919H46.3058V182.113H43.0557V163.919H38.1807V160.86H51.1809V163.919Z" fill="#FB8101"/>
<path d="M55.3146 160.86H59.9985C61.9528 160.86 63.5035 161.243 64.6506 162.007C65.5002 162.581 66.1481 163.335 66.5942 164.27C67.0616 165.183 67.2952 166.15 67.2952 167.169C67.2952 169.081 66.6048 170.632 65.2241 171.821C63.9283 172.926 62.1971 173.478 60.0304 173.478H58.5647V182.113H55.3146V160.86ZM58.5647 163.855V170.483H60.0304C61.3899 170.483 62.4201 170.186 63.1211 169.591C63.8221 168.975 64.1726 168.157 64.1726 167.137C64.1726 166.776 64.1195 166.436 64.0133 166.118C63.9283 165.799 63.7478 165.459 63.4716 165.098C63.2167 164.716 62.7919 164.418 62.1971 164.206C61.6023 163.972 60.8695 163.855 59.9985 163.855H58.5647Z" fill="#FB8101"/>
<path d="M86.2369 182.113V167.806L71.8985 183.069V160.86H75.1485V175.231L89.487 159.968V182.113H86.2369Z" fill="#FB8101"/>
<path d="M93.499 160.86H97.45L102.931 172.204L107.901 160.86H111.279L101.688 182.113H98.3103L101.051 176.091L93.499 160.86Z" fill="#FB8101"/>
<path d="M116.984 182.113H113.67L118.131 159.267L125.524 175.772L132.98 159.267L136.994 182.113H133.681L131.514 169.304L125.332 183.101L119.215 169.272L116.984 182.113Z" fill="#FB8101"/>
<path d="M151.701 182.113V179.118H151.128C147.984 179.118 145.626 178.353 144.054 176.824C142.482 175.273 141.696 173.276 141.696 170.833C141.696 168.391 142.482 166.404 144.054 164.875C145.626 163.324 147.984 162.549 151.128 162.549H151.701V160H154.951V162.549H155.525C158.669 162.549 161.027 163.324 162.598 164.875C164.17 166.404 164.956 168.391 164.956 170.833C164.956 173.276 164.17 175.273 162.598 176.824C161.027 178.353 158.669 179.118 155.525 179.118H154.951V182.113H151.701ZM151.701 176.123V165.544H151.064C149.025 165.544 147.495 166.033 146.476 167.01C145.456 167.966 144.946 169.24 144.946 170.833C144.946 172.427 145.456 173.712 146.476 174.689C147.495 175.645 149.025 176.123 151.064 176.123H151.701ZM154.951 165.544V176.123H155.589C157.628 176.123 159.157 175.645 160.177 174.689C161.196 173.712 161.706 172.427 161.706 170.833C161.706 169.24 161.196 167.966 160.177 167.01C159.157 166.033 157.628 165.544 155.589 165.544H154.951Z" fill="#FB8101"/>
<path d="M42.6914 191.355H43.6623V195.108L46.9948 191.355H48.2019L44.5282 195.436L48.3068 200.106H47.0735L43.8722 196.105L43.6623 196.341V200.106H42.6914V196.341L42.4815 196.105L39.2802 200.106H38.0469L41.8255 195.436L38.1518 191.355H39.3589L42.6914 195.108V191.355Z" fill="#291716"/>
<path d="M56.2258 200.106V193.428L50.138 200.5V191.355H51.1089V198.06L57.1967 190.988V200.106H56.2258Z" fill="#291716"/>
<path d="M60.8698 191.355H66.1966V200.106H65.2257V192.274H61.8407V196.971C61.8407 197.382 61.8363 197.692 61.8276 197.902C61.8188 198.103 61.7489 198.392 61.6177 198.768C61.4952 199.136 61.3071 199.433 61.0535 199.66C60.6599 200.01 60.1613 200.185 59.5578 200.185C59.4178 200.185 59.2429 200.159 59.033 200.106V199.188C59.2079 199.24 59.3697 199.267 59.5184 199.267C59.8596 199.267 60.1438 199.153 60.3712 198.926C60.5287 198.768 60.6468 198.545 60.7255 198.256C60.8042 197.959 60.8479 197.71 60.8567 197.509C60.8654 197.307 60.8698 196.997 60.8698 196.577V191.355Z" fill="#291716"/>
<path d="M76.2924 198.965C75.4177 199.831 74.3418 200.264 73.0648 200.264C71.7878 200.264 70.7075 199.831 69.8241 198.965C68.9494 198.099 68.5121 197.023 68.5121 195.737C68.5121 194.443 68.9538 193.367 69.8372 192.51C70.7207 191.644 71.7965 191.211 73.0648 191.211C74.3331 191.211 75.4089 191.644 76.2924 192.51C77.1758 193.367 77.6175 194.443 77.6175 195.737C77.6175 197.023 77.1758 198.099 76.2924 198.965ZM75.5839 193.179C74.8929 192.479 74.0532 192.129 73.0648 192.129C72.0764 192.129 71.2367 192.479 70.5457 193.179C69.8547 193.879 69.5092 194.732 69.5092 195.737C69.5092 196.743 69.8547 197.596 70.5457 198.296C71.2367 198.996 72.0764 199.345 73.0648 199.345C74.0532 199.345 74.8929 198.996 75.5839 198.296C76.2749 197.596 76.6204 196.743 76.6204 195.737C76.6204 194.732 76.2749 193.879 75.5839 193.179Z" fill="#291716"/>
<path d="M86.0137 200.106V193.428L79.9259 200.5V191.355H80.8968V198.06L86.9846 190.988V200.106H86.0137ZM81.4216 189.374L82.34 189.072C82.3925 189.239 82.4712 189.378 82.5762 189.492C82.6899 189.597 82.8124 189.671 82.9436 189.715C83.0835 189.75 83.1885 189.776 83.2584 189.794C83.3284 189.803 83.394 189.807 83.4552 189.807C83.5165 189.807 83.5821 189.803 83.6521 189.794C83.722 189.776 83.8226 189.75 83.9538 189.715C84.0938 189.671 84.2162 189.597 84.3212 189.492C84.4349 189.378 84.518 189.239 84.5705 189.072L85.4889 189.374C85.4539 189.47 85.4014 189.571 85.3314 189.676C85.2702 189.781 85.1652 189.916 85.0165 190.083C84.8679 190.249 84.6579 190.384 84.3868 190.489C84.1156 190.594 83.8051 190.647 83.4552 190.647C83.1054 190.647 82.7949 190.594 82.5237 190.489C82.2526 190.384 82.0426 190.249 81.8939 190.083C81.7453 189.916 81.6359 189.781 81.5659 189.676C81.5047 189.571 81.4566 189.47 81.4216 189.374Z" fill="#291716"/>
<path d="M94.3235 191.355V195.108L98.0496 191.355H99.3616L95.2681 195.436L99.4928 200.106H98.1545L94.5727 196.092L94.3235 196.341V200.106H93.3526V191.355H94.3235Z" fill="#291716"/>
<path d="M108.091 198.965C107.217 199.831 106.141 200.264 104.864 200.264C103.587 200.264 102.507 199.831 101.623 198.965C100.748 198.099 100.311 197.023 100.311 195.737C100.311 194.443 100.753 193.367 101.636 192.51C102.52 191.644 103.595 191.211 104.864 191.211C106.132 191.211 107.208 191.644 108.091 192.51C108.975 193.367 109.416 194.443 109.416 195.737C109.416 197.023 108.975 198.099 108.091 198.965ZM107.383 193.179C106.692 192.479 105.852 192.129 104.864 192.129C103.875 192.129 103.036 192.479 102.345 193.179C101.654 193.879 101.308 194.732 101.308 195.737C101.308 196.743 101.654 197.596 102.345 198.296C103.036 198.996 103.875 199.345 104.864 199.345C105.852 199.345 106.692 198.996 107.383 198.296C108.074 197.596 108.419 196.743 108.419 195.737C108.419 194.732 108.074 193.879 107.383 193.179Z" fill="#291716"/>
<path d="M112.42 200.106H111.423L112.879 190.87L116.238 198.256L119.663 190.857L121.027 200.106H120.03L119.203 194.019L116.225 200.474L113.286 194.019L112.42 200.106Z" fill="#291716"/>
<path d="M123.576 191.355H130.005V200.106H129.034V192.274H124.547V200.106H123.576V191.355Z" fill="#291716"/>
<path d="M133.68 191.355H139.007V200.106H138.036V192.274H134.651V196.971C134.651 197.382 134.647 197.692 134.638 197.902C134.629 198.103 134.559 198.392 134.428 198.768C134.305 199.136 134.117 199.433 133.864 199.66C133.47 200.01 132.972 200.185 132.368 200.185C132.228 200.185 132.053 200.159 131.843 200.106V199.188C132.018 199.24 132.18 199.267 132.329 199.267C132.67 199.267 132.954 199.153 133.181 198.926C133.339 198.768 133.457 198.545 133.536 198.256C133.614 197.959 133.658 197.71 133.667 197.509C133.676 197.307 133.68 196.997 133.68 196.577V191.355Z" fill="#291716"/>
<path d="M146.334 191.355V192.274H142.766V194.871H146.229V195.79H142.766V199.188H146.334V200.106H141.795V191.355H146.334Z" fill="#291716"/>
<path d="M149.62 191.355V195.108L153.346 191.355H154.658L150.564 195.436L154.789 200.106H153.451L149.869 196.092L149.62 196.341V200.106H148.649V191.355H149.62Z" fill="#291716"/>
<path d="M162.912 192.077V193.284C162.562 192.934 162.182 192.663 161.771 192.47C161.272 192.243 160.769 192.129 160.262 192.129C159.256 192.129 158.416 192.484 157.743 193.192C157.078 193.892 156.746 194.753 156.746 195.777C156.746 196.879 157.109 197.749 157.834 198.388C158.569 199.026 159.383 199.345 160.275 199.345C160.835 199.345 161.377 199.21 161.902 198.939C162.269 198.755 162.606 198.51 162.912 198.204V199.411C162.116 199.98 161.237 200.264 160.275 200.264C158.98 200.264 157.9 199.831 157.034 198.965C156.177 198.099 155.748 197.032 155.748 195.764C155.748 194.46 156.181 193.376 157.047 192.51C157.922 191.644 159.015 191.211 160.327 191.211C161.289 191.211 162.151 191.5 162.912 192.077Z" fill="#291716"/>
</svg>
