<svg width="241" height="38" viewBox="0 0 241 38" fill="none" xmlns="http://www.w3.org/2000/svg">
<path fill-rule="evenodd" clip-rule="evenodd" d="M126.996 17.9294V30.4097C126.996 30.7016 126.923 30.8476 126.851 30.9205C126.778 30.9935 126.559 31.0665 126.268 31.0665H123.067C122.557 31.0665 122.339 30.8476 122.339 30.4097V17.9294H117.755C117.318 17.9294 117.1 17.7104 117.1 17.1995V14.864C117.1 14.5721 117.173 14.3531 117.245 14.2802C117.318 14.2072 117.464 14.1342 117.755 14.1342H131.653C131.944 14.1342 132.09 14.2072 132.162 14.2802C132.235 14.3531 132.308 14.5721 132.308 14.864V17.1995C132.308 17.6374 132.09 17.9294 131.653 17.9294H126.996ZM145.187 33.8399C144.678 35.2996 143.95 36.3943 143.077 37.0512C142.131 37.7081 140.967 38 139.439 38C139.002 38 138.493 38 137.911 37.927C137.329 37.854 136.747 37.781 136.237 37.5621C135.946 37.4891 135.801 37.4161 135.728 37.3431C135.655 37.2702 135.655 37.1242 135.728 36.8323L136.31 34.2778C136.383 33.9859 136.456 33.9129 136.528 33.8399C136.601 33.8399 136.747 33.8399 137.038 33.8399C137.401 33.9129 137.693 33.9129 137.911 33.9859C138.129 33.9859 138.347 33.9859 138.638 33.9859C139.366 33.9859 139.948 33.8399 140.385 33.621C140.821 33.402 141.113 32.8911 141.404 32.1613L141.986 30.4097H141.04C140.53 30.4097 140.167 30.3367 139.948 30.1177C139.73 29.9717 139.512 29.5338 139.366 29.023L134.491 14.7181C134.418 14.4991 134.418 14.3532 134.491 14.2072C134.564 14.1342 134.709 14.0612 134.927 14.0612H138.711C139.002 14.0612 139.221 14.1342 139.366 14.2072C139.512 14.2802 139.584 14.4261 139.657 14.6451L141.331 21.2137L142.859 26.8334H143.077L144.751 21.1407L146.715 14.7911C146.788 14.5721 146.861 14.3531 147.006 14.2802C147.079 14.2072 147.298 14.1342 147.661 14.1342H151.518C151.882 14.1342 152.027 14.2802 151.882 14.6451L145.187 33.8399ZM161.632 27.1254C162.287 27.1254 163.015 27.0524 163.67 26.9064C164.325 26.7605 164.907 26.6145 165.343 26.3955C165.634 26.3225 165.78 26.2496 165.925 26.2496C165.998 26.2496 166.144 26.3955 166.217 26.6875L167.09 29.0959C167.162 29.3149 167.235 29.4609 167.235 29.6068C167.235 29.7528 167.09 29.8988 166.871 29.9717C165.925 30.4826 164.907 30.8476 163.815 30.9935C162.724 31.2125 161.778 31.2855 160.905 31.2855C158.358 31.2855 156.466 30.5556 155.156 29.0959C153.846 27.6363 153.192 25.4467 153.192 22.5274C153.192 21.1407 153.41 19.8999 153.774 18.8052C154.138 17.7104 154.647 16.7616 155.375 15.9588C156.029 15.156 156.903 14.5721 157.921 14.2072C158.94 13.7693 160.031 13.6233 161.269 13.6233C162.142 13.6233 163.088 13.6963 163.961 13.9152C164.834 14.1342 165.634 14.3531 166.362 14.7181C166.653 14.864 166.799 14.937 166.799 15.083C166.799 15.156 166.799 15.3749 166.653 15.6669L165.78 18.1483C165.707 18.3673 165.562 18.5132 165.416 18.5132C165.271 18.5132 165.052 18.5132 164.761 18.4403C164.179 18.2943 163.67 18.1483 163.088 18.0024C162.506 17.8564 162.069 17.8564 161.56 17.8564C160.905 17.8564 160.395 18.0024 159.959 18.2213C159.522 18.5132 159.158 18.8052 158.867 19.2431C158.576 19.681 158.358 20.1919 158.285 20.7758C158.14 21.3596 158.067 21.9435 158.067 22.6004C158.067 23.2572 158.14 23.9141 158.212 24.425C158.285 25.0088 158.503 25.4467 158.794 25.8846C159.086 26.3225 159.449 26.6145 159.886 26.8334C160.323 27.0524 160.905 27.1254 161.632 27.1254ZM177.713 27.4903C178.368 27.4903 178.95 27.3443 179.387 27.1254C179.824 26.9064 180.187 26.5415 180.479 26.1766C180.77 25.7387 180.915 25.3008 181.061 24.7899C181.133 24.279 181.206 23.7681 181.206 23.2572C181.206 22.8193 181.133 22.3084 181.061 21.7975C180.988 21.2866 180.842 20.8487 180.624 20.4838C180.406 20.1189 180.115 19.754 179.678 19.535C179.314 19.3161 178.805 19.1701 178.15 19.1701C177.568 19.1701 176.986 19.2431 176.404 19.462C175.749 19.608 175.239 19.8999 174.73 20.1919C174.657 20.8487 174.585 21.4326 174.585 21.9435C174.585 22.3814 174.585 22.8923 174.585 23.4032C174.585 23.9871 174.657 24.4979 174.73 25.0088C174.803 25.5197 175.021 25.9576 175.239 26.3225C175.458 26.6875 175.822 26.9794 176.185 27.1984C176.549 27.4173 177.059 27.4903 177.713 27.4903ZM179.605 15.3019C180.842 15.3019 181.788 15.5209 182.661 15.8858C183.462 16.3237 184.117 16.8346 184.626 17.5645C185.136 18.2943 185.499 19.0971 185.718 20.0459C185.936 20.9947 186.081 22.0165 186.081 23.0383C186.081 24.06 185.936 25.0818 185.645 26.0306C185.354 26.9794 184.844 27.8552 184.19 28.658C183.535 29.4609 182.661 30.0447 181.57 30.5556C180.479 31.0665 179.169 31.2855 177.641 31.2855C175.894 31.2855 174.439 31.0665 173.42 30.5556C172.329 30.0447 171.528 29.3879 170.946 28.5121C170.364 27.6363 170 26.6875 169.782 25.5927C169.564 24.4979 169.491 23.4032 169.491 22.1625C169.491 20.4108 169.564 18.7322 169.782 17.1995C169.928 15.6669 170.291 14.3531 170.801 13.1854C171.31 12.0177 172.038 10.9959 173.056 10.1931C174.002 9.39023 175.239 8.73337 176.84 8.36845C177.568 8.1495 178.514 7.93055 179.533 7.7116C180.551 7.49264 181.716 7.27369 182.88 7.05474C183.025 6.98175 183.171 6.98175 183.316 7.05474C183.462 7.05474 183.535 7.20071 183.535 7.41966L184.19 10.1201C184.262 10.412 184.262 10.558 184.19 10.631C184.117 10.7039 183.971 10.7769 183.899 10.7769C183.171 10.9959 182.516 11.1419 181.934 11.2148C181.352 11.2878 180.842 11.4338 180.26 11.5798C179.242 11.7987 178.441 12.0177 177.786 12.3096C177.131 12.5285 176.622 12.8205 176.258 13.1854C175.894 13.5503 175.531 13.9882 175.385 14.4261C175.167 14.937 175.094 15.5209 175.021 16.2507H175.094L175.167 16.3237C175.894 15.8128 176.695 15.5209 177.495 15.3019C178.15 15.4479 178.878 15.3019 179.605 15.3019ZM211.113 30.4097C211.113 30.7016 211.04 30.8476 210.967 30.9205C210.894 30.9935 210.676 31.0665 210.385 31.0665H207.183C206.747 31.0665 206.456 30.8476 206.456 30.4097V14.7181C206.456 14.2802 206.674 14.1342 207.183 14.1342H210.385C210.676 14.1342 210.894 14.2072 210.967 14.2802C211.04 14.3531 211.113 14.4991 211.113 14.7911V20.3378H217.152V14.7911C217.152 14.3531 217.371 14.2072 217.88 14.2072H221.154C221.445 14.2072 221.664 14.2802 221.736 14.3531C221.809 14.4261 221.882 14.5721 221.882 14.864V30.5556C221.882 30.8476 221.809 30.9935 221.736 31.0665C221.664 31.1395 221.445 31.2125 221.154 31.2125H217.88C217.371 31.2125 217.152 30.9935 217.152 30.5556V24.06H211.113V30.4097ZM110.551 23.3302H108.004C107.713 23.3302 107.349 23.3302 107.058 23.4032C106.695 23.4762 106.403 23.5491 106.112 23.6951C105.821 23.8411 105.603 24.06 105.385 24.425C105.166 24.7169 105.094 25.1548 105.094 25.6657C105.094 26.3955 105.312 26.9794 105.821 27.2713C106.331 27.5633 106.986 27.7092 107.859 27.7092C108.004 27.7092 108.15 27.7092 108.368 27.7092C108.586 27.7092 108.805 27.7092 109.096 27.6363C109.314 27.6363 109.605 27.5633 109.823 27.4903C110.114 27.4173 110.333 27.3443 110.551 27.2713V23.3302ZM115.281 28.95C115.281 29.2419 115.208 29.4609 115.135 29.6798C115.063 29.8988 114.844 30.0447 114.553 30.2637C114.044 30.4826 113.534 30.7016 112.952 30.8476C112.37 30.9935 111.788 31.1395 111.206 31.2125C110.624 31.2855 110.042 31.3584 109.387 31.4314C108.805 31.5044 108.223 31.5044 107.64 31.5044C106.185 31.5044 104.948 31.3584 104.002 31.0665C103.056 30.7746 102.256 30.4097 101.674 29.8988C101.092 29.3879 100.655 28.804 100.437 28.1471C100.218 27.4903 100.073 26.7604 100.073 26.0306C100.073 25.1548 100.218 24.425 100.509 23.6951C100.801 22.9653 101.237 22.3814 101.746 21.8705C102.329 21.3596 102.983 20.9217 103.857 20.6298C104.73 20.3378 105.749 20.1919 106.913 20.1919H110.478V19.681C110.478 19.3891 110.478 19.0971 110.406 18.8052C110.333 18.5132 110.187 18.2943 109.969 18.0753C109.751 17.8564 109.46 17.7104 109.096 17.5645C108.732 17.4185 108.223 17.3455 107.64 17.3455C107.349 17.3455 106.913 17.3455 106.549 17.4185C106.112 17.4185 105.749 17.4915 105.312 17.5645C104.875 17.6374 104.512 17.7104 104.148 17.7834C103.784 17.8564 103.42 17.9294 103.129 18.0024C102.838 18.0753 102.62 18.0753 102.547 18.0024C102.474 17.9294 102.329 17.7834 102.329 17.5645L101.819 15.3019C101.746 15.083 101.746 14.864 101.819 14.7911C101.892 14.7181 101.965 14.6451 102.183 14.5721C103.129 14.2072 104.148 13.9882 105.239 13.8423C106.331 13.6963 107.349 13.6233 108.441 13.6233C110.769 13.6233 112.516 14.1342 113.607 15.156C114.699 16.1777 115.281 17.6374 115.281 19.608V28.95ZM198.233 23.3302H195.687C195.395 23.3302 195.032 23.3302 194.741 23.4032C194.377 23.4762 194.086 23.5491 193.795 23.6951C193.504 23.8411 193.285 24.06 193.067 24.425C192.849 24.7169 192.776 25.1548 192.776 25.6657C192.776 26.3955 192.994 26.9794 193.504 27.2713C194.013 27.5633 194.668 27.7092 195.541 27.7092C195.686 27.7092 195.832 27.7092 196.05 27.7092C196.269 27.7092 196.487 27.7092 196.778 27.6363C196.996 27.6363 197.287 27.5633 197.506 27.4903C197.797 27.4173 198.015 27.3443 198.233 27.2713V23.3302ZM202.89 28.95C202.89 29.2419 202.817 29.4609 202.745 29.6798C202.672 29.8988 202.454 30.0447 202.163 30.2637C201.653 30.4826 201.144 30.7016 200.562 30.8476C199.98 30.9935 199.398 31.1395 198.815 31.2125C198.233 31.2855 197.651 31.3584 196.996 31.4314C196.414 31.5044 195.832 31.5044 195.25 31.5044C193.795 31.5044 192.558 31.3584 191.612 31.0665C190.666 30.7746 189.865 30.4097 189.283 29.8988C188.701 29.3879 188.264 28.804 188.046 28.1471C187.828 27.4903 187.682 26.7604 187.682 26.0306C187.682 25.1548 187.828 24.425 188.119 23.6951C188.41 22.9653 188.847 22.3814 189.356 21.8705C189.938 21.3596 190.593 20.9217 191.466 20.6298C192.339 20.3378 193.358 20.1919 194.522 20.1919H198.088V19.681C198.088 19.3891 198.088 19.0971 198.015 18.8052C197.942 18.5132 197.797 18.2943 197.578 18.0753C197.36 17.8564 197.069 17.7104 196.705 17.5645C196.341 17.4185 195.832 17.3455 195.25 17.3455C194.959 17.3455 194.522 17.3455 194.158 17.4185C193.722 17.4185 193.358 17.4915 192.921 17.5645C192.485 17.6374 192.121 17.7104 191.757 17.7834C191.393 17.8564 191.03 17.9294 190.738 18.0024C190.447 18.0753 190.229 18.0753 190.156 18.0024C190.084 17.9294 189.938 17.7834 189.938 17.5645L189.429 15.3019C189.356 15.083 189.356 14.864 189.429 14.7911C189.501 14.7181 189.574 14.6451 189.793 14.5721C190.738 14.2072 191.757 13.9882 192.849 13.8423C193.94 13.6963 194.959 13.6233 196.05 13.6233C198.379 13.6233 200.125 14.1342 201.217 15.156C202.308 16.1777 202.89 17.6374 202.89 19.608V28.95ZM235.926 19.754L240.947 30.4097C241.092 30.8476 240.947 31.0665 240.437 31.0665H236.653C236.362 31.0665 236.217 30.9935 236.071 30.9205C235.926 30.8476 235.78 30.7016 235.707 30.4097L232.651 23.4762L230.177 26.2496C230.177 26.4685 230.177 26.6875 230.177 27.0524C230.177 27.4173 230.177 27.7822 230.177 28.2201C230.177 28.5851 230.177 29.023 230.177 29.3879C230.177 29.7528 230.177 30.1177 230.177 30.4097C230.177 30.6286 230.104 30.7746 230.032 30.9205C229.959 30.9935 229.741 31.0665 229.45 31.0665H226.102C225.666 31.0665 225.448 30.8476 225.448 30.4826V14.7181C225.448 14.4991 225.52 14.3531 225.593 14.2802C225.666 14.2072 225.884 14.1342 226.102 14.1342H229.45C229.741 14.1342 229.959 14.1342 230.032 14.2072C230.104 14.2802 230.104 14.4261 230.104 14.7181V19.8999L230.25 19.9729L234.907 14.4261C235.053 14.2802 235.198 14.1342 235.344 14.0612C235.489 13.9882 235.707 13.9882 235.998 13.9882H239.928C240.219 13.9882 240.364 14.0612 240.437 14.2072C240.437 14.3532 240.437 14.4991 240.292 14.6451L235.926 19.754ZM93.5968 17.9294V30.4097C93.5968 30.7016 93.524 30.8476 93.4512 30.9205C93.3785 30.9935 93.1602 31.0665 92.8691 31.0665H89.6674C89.1581 31.0665 88.9398 30.8476 88.9398 30.4097V17.9294H84.3556C83.919 17.9294 83.7007 17.7104 83.7007 17.1995V14.864C83.7007 14.5721 83.7734 14.3531 83.8462 14.2802C83.919 14.2072 84.0645 14.1342 84.3556 14.1342H98.2537C98.5448 14.1342 98.6903 14.2072 98.7631 14.2802C98.8359 14.3531 98.9086 14.5721 98.9086 14.864V17.1995C98.9086 17.6374 98.6903 17.9294 98.2537 17.9294H93.5968ZM75.6237 26.9794C76.6424 26.9794 77.5884 26.8334 78.3888 26.6145C79.1892 26.3955 79.9169 26.1036 80.6445 25.8846C80.9356 25.7387 81.1539 25.7387 81.2994 25.8117C81.445 25.8846 81.5177 26.0306 81.6633 26.2496L82.7547 28.5851C82.9003 28.877 82.973 29.0959 82.9003 29.2419C82.8275 29.3879 82.7547 29.5338 82.5364 29.6068C81.3722 30.3367 80.1352 30.7746 78.8982 31.0665C77.5884 31.2855 76.3514 31.4314 75.1144 31.4314C73.368 31.4314 71.8399 31.1395 70.5302 30.6286C69.2204 30.1177 68.2017 29.3149 67.4012 28.3661C66.6008 27.3443 65.9459 26.1766 65.5821 24.7169C65.2183 23.2572 65 21.6516 65 19.8999C65 18.1483 65.2183 16.5427 65.7277 15.083C66.237 13.6233 66.9647 12.3826 67.8378 11.3608C68.711 10.339 69.8025 9.5362 71.1123 8.95232C72.4221 8.36845 73.8046 8.07652 75.3327 8.07652C76.4242 8.07652 77.5156 8.1495 78.5343 8.36845C79.5531 8.58741 80.6445 8.95233 81.5905 9.46322C81.8088 9.60918 81.9543 9.75515 82.0271 9.82814C82.0998 9.9741 82.0271 10.1931 81.8815 10.558L80.8628 12.8205C80.7901 13.1124 80.6445 13.3314 80.499 13.4044C80.3535 13.4773 80.1352 13.4773 79.8441 13.3314C79.0437 13.0394 78.3888 12.8205 77.6612 12.6745C77.0063 12.5285 76.2786 12.4556 75.4054 12.4556C74.5322 12.4556 73.7318 12.6745 73.0769 13.0394C72.4221 13.4044 71.8399 13.9152 71.4033 14.5721C70.9667 15.229 70.6029 16.0318 70.3846 16.9076C70.1663 17.7834 70.0208 18.8052 70.0208 19.827C70.0208 20.8487 70.0936 21.8705 70.3119 22.6733C70.5302 23.5491 70.8212 24.279 71.2578 24.9358C71.6944 25.5927 72.2765 26.0306 73.0042 26.3955C73.7318 26.7604 74.605 26.9794 75.6237 26.9794Z" fill="#B0CA1F"/>
<path d="M48.4059 6.95065C48.6934 6.65942 49.3402 7.09626 50.4901 8.26117C50.9931 8.77082 51.3525 9.20765 51.5681 9.57169C51.7837 9.93572 51.8555 10.1541 51.8555 10.2269L51.7837 10.3726L27.8522 34.6172C27.5647 34.9084 26.9179 34.3988 25.768 33.2338C25.265 32.7242 24.9057 32.2874 24.6901 31.9233C24.4745 31.5593 24.4026 31.3409 24.4026 31.2681L24.4745 31.1225C32.4516 23.1137 40.4288 15.0322 48.4059 6.95065Z" fill="#5AA8B4"/>
<path fill-rule="evenodd" clip-rule="evenodd" d="M14.1293 34.6174C13.8415 34.9076 13.194 34.3998 12.043 33.2391C11.5394 32.7313 11.1797 32.296 10.9639 31.9333C10.748 31.5706 10.6761 31.353 10.6761 31.2804L10.748 31.1354C21.0357 20.7617 31.2514 10.4607 41.539 0.0870514C41.8268 -0.20312 42.4743 0.232136 43.6254 1.39282C44.1289 1.90062 44.4887 2.33588 44.7045 2.69859C44.9203 3.0613 44.9922 3.27893 44.9922 3.35148L44.9203 3.49656C34.7046 13.9427 24.4169 24.3163 14.1293 34.6174Z" fill="#B0CA1F"/>
<path fill-rule="evenodd" clip-rule="evenodd" d="M3.24097 24.5935L2.58104 23.9336L0.0879899 21.4405C-0.205311 21.1472 0.234642 20.4873 1.40784 19.3141C1.92112 18.8008 2.36107 18.4342 2.72769 18.2142C3.09432 17.9942 3.31429 17.9209 3.38762 17.9209L3.53427 17.9942L6.02732 20.4873L6.68725 21.1472L9.84023 24.3002L9.91356 24.4468C9.91356 24.5202 9.84023 24.7401 9.62025 25.1068C9.40028 25.4734 9.03365 25.9133 8.52038 26.4266C7.34718 27.5998 6.68725 28.0398 6.39395 27.7465L3.24097 24.5935Z" fill="#B0CA1F"/>
<path d="M10.1043 17.7302L9.44433 17.0703L6.95127 14.5772C6.65797 14.2839 7.09792 13.624 8.27113 12.4508C8.7844 11.9375 9.22435 11.5709 9.59097 11.3509C9.9576 11.1309 10.1776 11.0576 10.2509 11.0576L10.3976 11.1309L12.8906 13.624L13.5505 14.2839L16.7035 17.4369L16.7768 17.5836C16.7768 17.6569 16.7035 17.8769 16.4835 18.2435C16.2636 18.6101 15.8969 19.0501 15.3837 19.5633C14.2105 20.7365 13.5505 21.1765 13.2572 20.8832L10.1043 17.7302Z" fill="#5AA8B4"/>
</svg>
